<svg width="2155" height="1282" viewBox="0 0 2155 1282" fill="none" xmlns="http://www.w3.org/2000/svg">
<g id="Group">
<g id="Vector">
<path d="M190.851 6.27462C205.429 36.2862 247.172 86.5209 271.236 103.958C305.829 129.024 398.264 146.839 534.031 154.455C692.801 163.611 748.475 177.48 836.885 230.736C864.82 247.196 883.274 254.085 896.482 252.851L916.294 250.999L889.882 231.321C827.759 183.606 722.395 146.698 563.995 117.821C378.648 83.4641 314.886 64.8149 232.381 19.6191C192.211 -2.46475 185.24 -4.27412 190.851 6.27462Z" fill="#006861"/>
<path d="M190.851 6.27462C205.429 36.2862 247.172 86.5209 271.236 103.958C305.829 129.024 398.264 146.839 534.031 154.455C692.801 163.611 748.475 177.48 836.885 230.736C864.82 247.196 883.274 254.085 896.482 252.851L916.294 250.999L889.882 231.321C827.759 183.606 722.395 146.698 563.995 117.821C378.648 83.4641 314.886 64.8149 232.381 19.6191C192.211 -2.46475 185.24 -4.27412 190.851 6.27462Z" fill="url(#paint0_linear)"/>
<path d="M190.851 6.27462C205.429 36.2862 247.172 86.5209 271.236 103.958C305.829 129.024 398.264 146.839 534.031 154.455C692.801 163.611 748.475 177.48 836.885 230.736C864.82 247.196 883.274 254.085 896.482 252.851L916.294 250.999L889.882 231.321C827.759 183.606 722.395 146.698 563.995 117.821C378.648 83.4641 314.886 64.8149 232.381 19.6191C192.211 -2.46475 185.24 -4.27412 190.851 6.27462Z" stroke="white"/>
</g>
<g id="Vector_2">
<path d="M285.976 146.236C306.002 172.303 360.682 210.017 395.996 221.601C433.482 234.223 440.858 234.15 542.358 225.841C655.871 217.023 706.16 220.987 775.078 246.18C801.325 255.512 847.457 258.624 846.263 250.662C845.253 243.924 776.832 213.094 731.125 199.382C677.012 183.355 612.836 176.35 498.994 174.019C402.646 171.905 351.897 164.878 309.134 148.405C284.873 138.886 280.146 138.71 285.976 146.236Z" fill="#006861"/>
<path d="M285.976 146.236C306.002 172.303 360.682 210.017 395.996 221.601C433.482 234.223 440.858 234.15 542.358 225.841C655.871 217.023 706.16 220.987 775.078 246.18C801.325 255.512 847.457 258.624 846.263 250.662C845.253 243.924 776.832 213.094 731.125 199.382C677.012 183.355 612.836 176.35 498.994 174.019C402.646 171.905 351.897 164.878 309.134 148.405C284.873 138.886 280.146 138.71 285.976 146.236Z" fill="url(#paint1_linear)"/>
<path d="M285.976 146.236C306.002 172.303 360.682 210.017 395.996 221.601C433.482 234.223 440.858 234.15 542.358 225.841C655.871 217.023 706.16 220.987 775.078 246.18C801.325 255.512 847.457 258.624 846.263 250.662C845.253 243.924 776.832 213.094 731.125 199.382C677.012 183.355 612.836 176.35 498.994 174.019C402.646 171.905 351.897 164.878 309.134 148.405C284.873 138.886 280.146 138.71 285.976 146.236Z" stroke="white"/>
</g>
<g id="Vector_3">
<path d="M1147.55 136.554C1059.28 156.978 1006.85 185.051 967.481 233.271C936.421 270.341 913.229 332.923 910.643 386.263C909.212 412.031 905.685 423.955 899.109 424.568C891.218 425.302 888.899 418.804 887.445 387.202C885.227 337.361 890.329 309.421 906.043 281.104C913.425 268.21 918.835 255.499 918.561 253.694C918.288 251.888 883.436 255.133 841.625 260.856C700.591 280.699 558.018 329.982 218.939 477.511C100.019 528.864 1.88689 572.179 0.754141 573.505C-3.95927 577.606 23.8751 589.662 93.7176 614.898L161.496 639.715L252.088 581.845C529.8 403.407 681.786 328.225 817.688 300.925C851.993 294.07 858.002 294.121 859.279 302.547C860.282 309.167 854.82 312.727 841.011 314.012C805.502 317.318 724.159 343.811 663 371.477C537.576 428.318 187.031 641 206.154 648.375C221.057 654.312 334.502 672.436 347.653 671.212C353.571 670.661 383.076 645.332 413.257 615.668C494.465 535.478 567.705 473.119 627.04 433.416C708.79 378.81 855.53 321.816 858.814 343.482C859.634 348.899 842.883 357.172 809.126 367.639C717.445 396.315 588.032 484.044 450.648 611.576L449.219 612.922C379.448 678.628 379.438 678.637 474.326 671.016L523.077 667.088L575.659 604.821C666.188 498.13 739.298 443.717 799.138 438.147C832.674 435.025 854.864 449.438 859.059 477.123C864.623 513.835 857.351 523.057 799.388 549.815C769.558 564.188 728.51 588.15 708.816 603.411C688.465 618.733 654.65 642.022 632.71 655.661C573.577 692.293 516.469 737.892 485.793 773.095C471.067 790.335 447.116 812.705 432.794 823.804C361.474 876.829 350.919 948 401.846 1024.43L420.033 1052.04L425.773 1028.31C433.342 994.647 457.754 953.313 478.47 940.398C506.438 922.536 545.792 878.59 558.785 849.916C565.327 835.879 574.101 805.767 578.708 783.366C586.426 737.482 607.824 698.26 633.546 678.776C642.929 671.626 647.234 668.346 647.711 668.819C648.116 669.22 645.77 672.318 641.437 678.041C624.335 701.605 612.945 749.662 615.859 790.893C620.117 867.399 600.669 932.684 548.174 1017.53C517.057 1067.42 515.631 1071.21 520.647 1104.31L526.028 1139.82L545.179 1098.98C555.139 1076.69 591.151 1023.9 624.769 981.709C657.729 939.579 690.982 894.981 697.14 882.811C703.956 870.58 717.002 851.056 727.379 840.324C752.573 812.955 759.902 790.911 754.977 758.411C752.15 739.754 753.595 731.685 758.654 734.266C763.622 736.245 766.761 748.159 767.159 763.991L768.542 790.717L783.397 765.531C801.377 734.561 829.566 709.354 859.104 697.45C871.051 692.675 919.457 682.066 965.689 674.71C1056.66 658.918 1109.21 644.87 1161.44 619.867C1197 603.739 1240.51 596.027 1248.55 605.044C1257.42 615.204 1178.67 671.973 1136.07 685.704C1119.52 690.906 1118.57 693.436 1122.76 721.121L1127.23 750.611L1171.63 713.521C1195.94 693.557 1230.62 667.137 1248.14 655.13C1265.75 643.725 1285.73 625.996 1293.66 616.713C1311.04 594.954 1303.57 585.274 1251.26 565.73C1229.98 557.335 1199.81 543.055 1185.11 534.048C1170.31 524.439 1151.01 515.86 1142.1 514.249C1127.83 512.525 1125.31 509.098 1121.39 483.218C1119.02 467.57 1107.7 436.887 1096.43 415.353C1076.97 379.324 1075.88 372.102 1075.34 324.546C1075.09 296.494 1075.86 270.788 1077.38 267.595C1082.97 256.088 1091.59 260.168 1098.84 277.193C1102.27 286.639 1112.08 298.543 1120.88 303.827C1129.12 309.774 1140.8 320.893 1147.43 329.431C1154.15 338.571 1163.79 344.997 1169.71 344.446C1185.5 342.977 1189.01 313.354 1181.55 237.756L1174.17 167.034L1147.87 169.482C1114.33 172.604 1060.81 193.456 1033.11 213.123C988.739 245.94 952.506 306.074 933.494 378.643L927.48 400.565L927.778 376.124C928.387 344.94 945.513 295.129 966.78 263.853C1001.93 214.195 1066.8 175.808 1143.12 160.159C1164.55 156.333 1187.22 147.509 1195.42 140.032L1209.47 127.128L1186.64 130.474C1174.14 131.637 1156.57 134.493 1147.55 136.554ZM1168.71 232.237C1169.44 237.052 1167.36 240.908 1163.41 241.275C1160.13 241.581 1156.02 236.471 1154.92 229.249C1153.92 222.628 1156.66 218.711 1160.22 220.211C1164.44 221.649 1167.98 227.422 1168.71 232.237Z" fill="#006861"/>
<path d="M1147.55 136.554C1059.28 156.978 1006.85 185.051 967.481 233.271C936.421 270.341 913.229 332.923 910.643 386.263C909.212 412.031 905.685 423.955 899.109 424.568C891.218 425.302 888.899 418.804 887.445 387.202C885.227 337.361 890.329 309.421 906.043 281.104C913.425 268.21 918.835 255.499 918.561 253.694C918.288 251.888 883.436 255.133 841.625 260.856C700.591 280.699 558.018 329.982 218.939 477.511C100.019 528.864 1.88689 572.179 0.754141 573.505C-3.95927 577.606 23.8751 589.662 93.7176 614.898L161.496 639.715L252.088 581.845C529.8 403.407 681.786 328.225 817.688 300.925C851.993 294.07 858.002 294.121 859.279 302.547C860.282 309.167 854.82 312.727 841.011 314.012C805.502 317.318 724.159 343.811 663 371.477C537.576 428.318 187.031 641 206.154 648.375C221.057 654.312 334.502 672.436 347.653 671.212C353.571 670.661 383.076 645.332 413.257 615.668C494.465 535.478 567.705 473.119 627.04 433.416C708.79 378.81 855.53 321.816 858.814 343.482C859.634 348.899 842.883 357.172 809.126 367.639C717.445 396.315 588.032 484.044 450.648 611.576L449.219 612.922C379.448 678.628 379.438 678.637 474.326 671.016L523.077 667.088L575.659 604.821C666.188 498.13 739.298 443.717 799.138 438.147C832.674 435.025 854.864 449.438 859.059 477.123C864.623 513.835 857.351 523.057 799.388 549.815C769.558 564.188 728.51 588.15 708.816 603.411C688.465 618.733 654.65 642.022 632.71 655.661C573.577 692.293 516.469 737.892 485.793 773.095C471.067 790.335 447.116 812.705 432.794 823.804C361.474 876.829 350.919 948 401.846 1024.43L420.033 1052.04L425.773 1028.31C433.342 994.647 457.754 953.313 478.47 940.398C506.438 922.536 545.792 878.59 558.785 849.916C565.327 835.879 574.101 805.767 578.708 783.366C586.426 737.482 607.824 698.26 633.546 678.776C642.929 671.626 647.234 668.346 647.711 668.819C648.116 669.22 645.77 672.318 641.437 678.041C624.335 701.605 612.945 749.662 615.859 790.893C620.117 867.399 600.669 932.684 548.174 1017.53C517.057 1067.42 515.631 1071.21 520.647 1104.31L526.028 1139.82L545.179 1098.98C555.139 1076.69 591.151 1023.9 624.769 981.709C657.729 939.579 690.982 894.981 697.14 882.811C703.956 870.58 717.002 851.056 727.379 840.324C752.573 812.955 759.902 790.911 754.977 758.411C752.15 739.754 753.595 731.685 758.654 734.266C763.622 736.245 766.761 748.159 767.159 763.991L768.542 790.717L783.397 765.531C801.377 734.561 829.566 709.354 859.104 697.45C871.051 692.675 919.457 682.066 965.689 674.71C1056.66 658.918 1109.21 644.87 1161.44 619.867C1197 603.739 1240.51 596.027 1248.55 605.044C1257.42 615.204 1178.67 671.973 1136.07 685.704C1119.52 690.906 1118.57 693.436 1122.76 721.121L1127.23 750.611L1171.63 713.521C1195.94 693.557 1230.62 667.137 1248.14 655.13C1265.75 643.725 1285.73 625.996 1293.66 616.713C1311.04 594.954 1303.57 585.274 1251.26 565.73C1229.98 557.335 1199.81 543.055 1185.11 534.048C1170.31 524.439 1151.01 515.86 1142.1 514.249C1127.83 512.525 1125.31 509.098 1121.39 483.218C1119.02 467.57 1107.7 436.887 1096.43 415.353C1076.97 379.324 1075.88 372.102 1075.34 324.546C1075.09 296.494 1075.86 270.788 1077.38 267.595C1082.97 256.088 1091.59 260.168 1098.84 277.193C1102.27 286.639 1112.08 298.543 1120.88 303.827C1129.12 309.774 1140.8 320.893 1147.43 329.431C1154.15 338.571 1163.79 344.997 1169.71 344.446C1185.5 342.977 1189.01 313.354 1181.55 237.756L1174.17 167.034L1147.87 169.482C1114.33 172.604 1060.81 193.456 1033.11 213.123C988.739 245.94 952.506 306.074 933.494 378.643L927.48 400.565L927.778 376.124C928.387 344.94 945.513 295.129 966.78 263.853C1001.93 214.195 1066.8 175.808 1143.12 160.159C1164.55 156.333 1187.22 147.509 1195.42 140.032L1209.47 127.128L1186.64 130.474C1174.14 131.637 1156.57 134.493 1147.55 136.554ZM1168.71 232.237C1169.44 237.052 1167.36 240.908 1163.41 241.275C1160.13 241.581 1156.02 236.471 1154.92 229.249C1153.92 222.628 1156.66 218.711 1160.22 220.211C1164.44 221.649 1167.98 227.422 1168.71 232.237Z" fill="url(#paint2_linear)"/>
<path d="M1147.55 136.554C1059.28 156.978 1006.85 185.051 967.481 233.271C936.421 270.341 913.229 332.923 910.643 386.263C909.212 412.031 905.685 423.955 899.109 424.568C891.218 425.302 888.899 418.804 887.445 387.202C885.227 337.361 890.329 309.421 906.043 281.104C913.425 268.21 918.835 255.499 918.561 253.694C918.288 251.888 883.436 255.133 841.625 260.856C700.591 280.699 558.018 329.982 218.939 477.511C100.019 528.864 1.88689 572.179 0.754141 573.505C-3.95927 577.606 23.8751 589.662 93.7176 614.898L161.496 639.715L252.088 581.845C529.8 403.407 681.786 328.225 817.688 300.925C851.993 294.07 858.002 294.121 859.279 302.547C860.282 309.167 854.82 312.727 841.011 314.012C805.502 317.318 724.159 343.811 663 371.477C537.576 428.318 187.031 641 206.154 648.375C221.057 654.312 334.502 672.436 347.653 671.212C353.571 670.661 383.076 645.332 413.257 615.668C494.465 535.478 567.705 473.119 627.04 433.416C708.79 378.81 855.53 321.816 858.814 343.482C859.634 348.899 842.883 357.172 809.126 367.639C717.445 396.315 588.032 484.044 450.648 611.576L449.219 612.922C379.448 678.628 379.438 678.637 474.326 671.016L523.077 667.088L575.659 604.821C666.188 498.13 739.298 443.717 799.138 438.147C832.674 435.025 854.864 449.438 859.059 477.123C864.623 513.835 857.351 523.057 799.388 549.815C769.558 564.188 728.51 588.15 708.816 603.411C688.465 618.733 654.65 642.022 632.71 655.661C573.577 692.293 516.469 737.892 485.793 773.095C471.067 790.335 447.116 812.705 432.794 823.804C361.474 876.829 350.919 948 401.846 1024.43L420.033 1052.04L425.773 1028.31C433.342 994.647 457.754 953.313 478.47 940.398C506.438 922.536 545.792 878.59 558.785 849.916C565.327 835.879 574.101 805.767 578.708 783.366C586.426 737.482 607.824 698.26 633.546 678.776C642.929 671.626 647.234 668.346 647.711 668.819C648.116 669.22 645.77 672.318 641.437 678.041C624.335 701.605 612.945 749.662 615.859 790.893C620.117 867.399 600.669 932.684 548.174 1017.53C517.057 1067.42 515.631 1071.21 520.647 1104.31L526.028 1139.82L545.179 1098.98C555.139 1076.69 591.151 1023.9 624.769 981.709C657.729 939.579 690.982 894.981 697.14 882.811C703.956 870.58 717.002 851.056 727.379 840.324C752.573 812.955 759.902 790.911 754.977 758.411C752.15 739.754 753.595 731.685 758.654 734.266C763.622 736.245 766.761 748.159 767.159 763.991L768.542 790.717L783.397 765.531C801.377 734.561 829.566 709.354 859.104 697.45C871.051 692.675 919.457 682.066 965.689 674.71C1056.66 658.918 1109.21 644.87 1161.44 619.867C1197 603.739 1240.51 596.027 1248.55 605.044C1257.42 615.204 1178.67 671.973 1136.07 685.704C1119.52 690.906 1118.57 693.436 1122.76 721.121L1127.23 750.611L1171.63 713.521C1195.94 693.557 1230.62 667.137 1248.14 655.13C1265.75 643.725 1285.73 625.996 1293.66 616.713C1311.04 594.954 1303.57 585.274 1251.26 565.73C1229.98 557.335 1199.81 543.055 1185.11 534.048C1170.31 524.439 1151.01 515.86 1142.1 514.249C1127.83 512.525 1125.31 509.098 1121.39 483.218C1119.02 467.57 1107.7 436.887 1096.43 415.353C1076.97 379.324 1075.88 372.102 1075.34 324.546C1075.09 296.494 1075.86 270.788 1077.38 267.595C1082.97 256.088 1091.59 260.168 1098.84 277.193C1102.27 286.639 1112.08 298.543 1120.88 303.827C1129.12 309.774 1140.8 320.893 1147.43 329.431C1154.15 338.571 1163.79 344.997 1169.71 344.446C1185.5 342.977 1189.01 313.354 1181.55 237.756L1174.17 167.034L1147.87 169.482C1114.33 172.604 1060.81 193.456 1033.11 213.123C988.739 245.94 952.506 306.074 933.494 378.643L927.48 400.565L927.778 376.124C928.387 344.94 945.513 295.129 966.78 263.853C1001.93 214.195 1066.8 175.808 1143.12 160.159C1164.55 156.333 1187.22 147.509 1195.42 140.032L1209.47 127.128L1186.64 130.474C1174.14 131.637 1156.57 134.493 1147.55 136.554ZM1168.71 232.237C1169.44 237.052 1167.36 240.908 1163.41 241.275C1160.13 241.581 1156.02 236.471 1154.92 229.249C1153.92 222.628 1156.66 218.711 1160.22 220.211C1164.44 221.649 1167.98 227.422 1168.71 232.237Z" stroke="white"/>
</g>
<g id="Vector_4">
<path d="M397.352 252.09C402.738 256.653 419.301 263.953 434.831 268.812C458.219 276.726 481.073 276.438 570.056 267.899C644.429 260.762 686.633 259.252 710.888 263.909C732.303 267.568 751.837 267.598 763.993 263.257C771.427 260.429 775.765 258.779 775.709 257.056C775.63 254.64 766.908 252.083 745.956 245.94C682.598 227.257 629.696 224.714 505.906 234.689C405.359 242.433 389.606 245.214 397.352 252.09Z" fill="#006861"/>
<path d="M397.352 252.09C402.738 256.653 419.301 263.953 434.831 268.812C458.219 276.726 481.073 276.438 570.056 267.899C644.429 260.762 686.633 259.252 710.888 263.909C732.303 267.568 751.837 267.598 763.993 263.257C771.427 260.429 775.765 258.779 775.709 257.056C775.63 254.64 766.908 252.083 745.956 245.94C682.598 227.257 629.696 224.714 505.906 234.689C405.359 242.433 389.606 245.214 397.352 252.09Z" fill="url(#paint3_linear)"/>
<path d="M397.352 252.09C402.738 256.653 419.301 263.953 434.831 268.812C458.219 276.726 481.073 276.438 570.056 267.899C644.429 260.762 686.633 259.252 710.888 263.909C732.303 267.568 751.837 267.598 763.993 263.257C771.427 260.429 775.765 258.779 775.709 257.056C775.63 254.64 766.908 252.083 745.956 245.94C682.598 227.257 629.696 224.714 505.906 234.689C405.359 242.433 389.606 245.214 397.352 252.09Z" stroke="white"/>
</g>
<g id="Vector_5">
<path d="M1093.24 684.872C1091.06 687.489 1092.15 707.858 1095.48 730.42C1099.94 760.702 1103.42 771.208 1109.47 768.822C1113.62 766.618 1115.22 751.412 1112.98 727.541C1109.71 692.328 1101.39 675.059 1093.24 684.872Z" fill="#006861"/>
<path d="M1093.24 684.872C1091.06 687.489 1092.15 707.858 1095.48 730.42C1099.94 760.702 1103.42 771.208 1109.47 768.822C1113.62 766.618 1115.22 751.412 1112.98 727.541C1109.71 692.328 1101.39 675.059 1093.24 684.872Z" fill="url(#paint4_linear)"/>
<path d="M1093.24 684.872C1091.06 687.489 1092.15 707.858 1095.48 730.42C1099.94 760.702 1103.42 771.208 1109.47 768.822C1113.62 766.618 1115.22 751.412 1112.98 727.541C1109.71 692.328 1101.39 675.059 1093.24 684.872Z" stroke="white"/>
</g>
<g id="Vector_6">
<path d="M480.406 1120.83C487.811 1171.27 489.938 1177.09 497.14 1169.77C503.262 1163.77 503.595 1148.69 498.194 1111.89C492.269 1071.54 488.992 1062.22 481.459 1062.95C473.926 1063.67 473.524 1073.94 480.406 1120.83Z" fill="#006861"/>
<path d="M480.406 1120.83C487.811 1171.27 489.938 1177.09 497.14 1169.77C503.262 1163.77 503.595 1148.69 498.194 1111.89C492.269 1071.54 488.992 1062.22 481.459 1062.95C473.926 1063.67 473.524 1073.94 480.406 1120.83Z" fill="url(#paint5_linear)"/>
<path d="M480.406 1120.83C487.811 1171.27 489.938 1177.09 497.14 1169.77C503.262 1163.77 503.595 1148.69 498.194 1111.89C492.269 1071.54 488.992 1062.22 481.459 1062.95C473.926 1063.67 473.524 1073.94 480.406 1120.83Z" stroke="white"/>
</g>
</g>
<path id="JUMP" d="M488.074 1137.81H506.922V1238.5C506.922 1252.1 502.82 1262.75 494.617 1270.43C486.479 1278.11 475.607 1281.95 462 1281.95C447.872 1281.95 436.87 1278.34 428.992 1271.11C421.115 1263.89 417.176 1253.76 417.176 1240.74H435.926C435.926 1248.88 438.139 1255.23 442.566 1259.79C447.059 1264.34 453.536 1266.62 462 1266.62C469.747 1266.62 475.997 1264.18 480.75 1259.3C485.568 1254.41 488.009 1247.58 488.074 1238.79V1137.81ZM638.953 1137.81V1234.49C638.888 1247.9 634.656 1258.87 626.258 1267.4C617.924 1275.93 606.596 1280.72 592.273 1281.76L587.293 1281.95C571.733 1281.95 559.331 1277.75 550.086 1269.36C540.841 1260.96 536.154 1249.4 536.023 1234.69V1137.81H554.578V1234.1C554.578 1244.39 557.41 1252.4 563.074 1258.12C568.738 1263.79 576.811 1266.62 587.293 1266.62C597.905 1266.62 606.01 1263.79 611.609 1258.12C617.273 1252.46 620.105 1244.49 620.105 1234.2V1137.81H638.953ZM692.762 1137.81L739.246 1253.83L785.73 1137.81H810.047V1280H791.297V1224.63L793.055 1164.86L746.375 1280H732.02L685.438 1165.16L687.293 1224.63V1280H668.543V1137.81H692.762ZM861.902 1224.34V1280H843.152V1137.81H895.594C911.154 1137.81 923.328 1141.78 932.117 1149.73C940.971 1157.67 945.398 1168.18 945.398 1181.27C945.398 1195.07 941.069 1205.72 932.41 1213.2C923.816 1220.62 911.479 1224.34 895.398 1224.34H861.902ZM861.902 1209H895.594C905.62 1209 913.302 1206.66 918.641 1201.97C923.979 1197.22 926.648 1190.38 926.648 1181.46C926.648 1173 923.979 1166.23 918.641 1161.15C913.302 1156.07 905.978 1153.44 896.668 1153.24H861.902V1209Z" fill="#54C6EB"/>
<path id="START" d="M772.158 1022.11C753.665 1016.8 740.189 1010.28 731.729 1002.57C723.343 994.787 719.15 985.203 719.15 973.823C719.15 960.946 724.279 950.314 734.536 941.929C744.868 933.468 758.27 929.238 774.741 929.238C785.972 929.238 795.967 931.41 804.727 935.752C813.561 940.094 820.374 946.084 825.166 953.721C830.033 961.357 832.466 969.705 832.466 978.765H810.791C810.791 968.882 807.646 961.133 801.357 955.518C795.068 949.827 786.196 946.982 774.741 946.982C764.11 946.982 755.799 949.341 749.81 954.058C743.895 958.7 740.938 965.176 740.938 973.486C740.938 980.15 743.745 985.802 749.36 990.444C755.05 995.011 764.671 999.204 778.223 1003.02C791.849 1006.84 802.48 1011.07 810.117 1015.71C817.829 1020.28 823.519 1025.63 827.188 1031.77C830.931 1037.91 832.803 1045.14 832.803 1053.45C832.803 1066.7 827.637 1077.33 817.305 1085.34C806.973 1093.28 793.159 1097.25 775.864 1097.25C764.634 1097.25 754.152 1095.11 744.419 1090.84C734.686 1086.5 727.161 1080.59 721.846 1073.1C716.605 1065.61 713.984 1057.12 713.984 1047.61H735.659C735.659 1057.49 739.29 1065.31 746.553 1071.08C753.89 1076.77 763.66 1079.61 775.864 1079.61C787.244 1079.61 795.967 1077.29 802.031 1072.65C808.096 1068.01 811.128 1061.68 811.128 1053.67C811.128 1045.66 808.32 1039.48 802.705 1035.14C797.09 1030.72 786.908 1026.38 772.158 1022.11ZM973.521 949.229H920.962V1095H899.512V949.229H847.065V931.484H973.521V949.229ZM1079.09 1052.32H1010.58L995.195 1095H972.959L1035.4 931.484H1054.27L1116.82 1095H1094.7L1079.09 1052.32ZM1017.09 1034.58H1072.69L1044.83 958.101L1017.09 1034.58ZM1198.8 1028.85H1160.4V1095H1138.72V931.484H1192.85C1211.27 931.484 1225.42 935.677 1235.3 944.062C1245.26 952.448 1250.24 964.652 1250.24 980.674C1250.24 990.856 1247.47 999.728 1241.93 1007.29C1236.46 1014.85 1228.83 1020.5 1219.02 1024.25L1257.43 1093.65V1095H1234.29L1198.8 1028.85ZM1160.4 1011.22H1193.53C1204.23 1011.22 1212.73 1008.45 1219.02 1002.91C1225.38 997.37 1228.56 989.958 1228.56 980.674C1228.56 970.566 1225.53 962.817 1219.47 957.427C1213.48 952.036 1204.79 949.303 1193.41 949.229H1160.4V1011.22ZM1384.56 949.229H1332V1095H1310.55V949.229H1258.1V931.484H1384.56V949.229Z" fill="#06D6A0"/>
<path id="CAREER" d="M1331.48 842.092C1329.1 862.395 1321.59 878.083 1308.93 889.157C1296.36 900.144 1279.62 905.637 1258.7 905.637C1236.03 905.637 1217.83 897.507 1204.12 881.247C1190.5 864.987 1183.69 843.234 1183.69 815.988V797.531C1183.69 779.689 1186.85 764.001 1193.18 750.466C1199.6 736.931 1208.65 726.56 1220.34 719.353C1232.03 712.058 1245.56 708.41 1260.94 708.41C1281.33 708.41 1297.68 714.123 1309.99 725.549C1322.29 736.887 1329.46 752.619 1331.48 772.746H1306.03C1303.83 757.453 1299.04 746.379 1291.66 739.523C1284.37 732.668 1274.13 729.24 1260.94 729.24C1244.77 729.24 1232.07 735.217 1222.84 747.17C1213.7 759.123 1209.13 776.13 1209.13 798.19V816.779C1209.13 837.609 1213.48 854.177 1222.18 866.481C1230.89 878.786 1243.06 884.938 1258.7 884.938C1272.77 884.938 1283.53 881.774 1291 875.446C1298.56 869.03 1303.57 857.912 1306.03 842.092H1331.48ZM1472.15 852.902H1391.73L1373.66 903H1347.56L1420.86 711.047H1443.01L1516.44 903H1490.47L1472.15 852.902ZM1399.37 832.072H1464.63L1431.94 742.292L1399.37 832.072ZM1612.68 825.349H1567.59V903H1542.15V711.047H1605.7C1627.32 711.047 1643.93 715.969 1655.53 725.812C1667.22 735.656 1673.06 749.982 1673.06 768.791C1673.06 780.744 1669.81 791.159 1663.31 800.036C1656.89 808.913 1647.93 815.549 1636.41 819.943L1681.5 901.418V903H1654.34L1612.68 825.349ZM1567.59 804.65H1606.49C1619.05 804.65 1629.03 801.398 1636.41 794.895C1643.88 788.391 1647.62 779.689 1647.62 768.791C1647.62 756.926 1644.06 747.829 1636.94 741.501C1629.91 735.173 1619.71 731.965 1606.35 731.877H1567.59V804.65ZM1817.16 814.274H1733.97V882.302H1830.61V903H1708.66V711.047H1829.29V731.877H1733.97V793.576H1817.16V814.274ZM1970.62 814.274H1887.43V882.302H1984.06V903H1862.12V711.047H1982.75V731.877H1887.43V793.576H1970.62V814.274ZM2085.97 825.349H2040.89V903H2015.44V711.047H2078.99C2100.61 711.047 2117.22 715.969 2128.82 725.812C2140.51 735.656 2146.35 749.982 2146.35 768.791C2146.35 780.744 2143.1 791.159 2136.6 800.036C2130.18 808.913 2121.22 815.549 2109.7 819.943L2154.79 901.418V903H2127.63L2085.97 825.349ZM2040.89 804.65H2079.78C2092.35 804.65 2102.32 801.398 2109.7 794.895C2117.17 788.391 2120.91 779.689 2120.91 768.791C2120.91 756.926 2117.35 747.829 2110.23 741.501C2103.2 735.173 2093 731.965 2079.65 731.877H2040.89V804.65Z" fill="#048A81"/>
<defs>
<linearGradient id="paint0_linear" x1="576.333" y1="282.763" x2="546.81" y2="-33.222" gradientUnits="userSpaceOnUse">
<stop stop-color="#00F4B5"/>
<stop offset="1" stop-color="white" stop-opacity="0"/>
</linearGradient>
<linearGradient id="paint1_linear" x1="577.428" y1="279.339" x2="561.951" y2="114.869" gradientUnits="userSpaceOnUse">
<stop stop-color="#00F4B5"/>
<stop offset="1" stop-color="white" stop-opacity="0"/>
</linearGradient>
<linearGradient id="paint2_linear" x1="732.101" y1="1120.64" x2="644.508" y2="179.722" gradientUnits="userSpaceOnUse">
<stop stop-color="#00F4B5"/>
<stop offset="1" stop-color="white" stop-opacity="0"/>
</linearGradient>
<linearGradient id="paint3_linear" x1="589.832" y1="281.499" x2="584.54" y2="226.356" gradientUnits="userSpaceOnUse">
<stop stop-color="#00F4B5"/>
<stop offset="1" stop-color="white" stop-opacity="0"/>
</linearGradient>
<linearGradient id="paint4_linear" x1="1110.31" y1="768.933" x2="1101.96" y2="681.732" gradientUnits="userSpaceOnUse">
<stop stop-color="#00F4B5"/>
<stop offset="1" stop-color="white" stop-opacity="0"/>
</linearGradient>
<linearGradient id="paint5_linear" x1="497.459" y1="1171.94" x2="486.92" y2="1062.42" gradientUnits="userSpaceOnUse">
<stop stop-color="#00F4B5"/>
<stop offset="1" stop-color="white" stop-opacity="0"/>
</linearGradient>
</defs>
</svg>
