<svg width="2159" height="1286" viewBox="0 0 2159 1286" fill="none" xmlns="http://www.w3.org/2000/svg">
<g id="Group">
<g id="Vector">
<path d="M192.624 5.42866L192.642 5.46285L192.659 5.49764C199.84 20.2813 213.797 40.1908 229.02 58.6287C244.252 77.0771 260.564 93.8247 272.369 102.379C289.25 114.61 320.595 125.266 364.973 133.8C409.253 142.316 466.204 148.666 534.034 152.471L534.038 152.471C613.44 157.05 667.217 162.814 712.238 174.134C757.315 185.468 793.534 202.352 837.857 229.051C851.767 237.247 863.238 243.012 872.824 246.574C882.419 250.139 890.001 251.45 896.183 250.872L911.011 249.487L888.726 232.883L888.713 232.873L888.7 232.864C827.011 185.482 722.084 148.642 563.735 119.774L563.729 119.773C378.345 85.4096 314.301 66.7135 231.479 21.3441L231.476 21.3426C211.315 10.2589 199.747 4.41658 193.938 2.60131C192.592 2.18079 191.722 2.03289 191.204 2.02454C191.225 2.13688 191.258 2.28081 191.311 2.46153C191.52 3.17757 191.947 4.15622 192.624 5.42866Z" fill="#006861"/>
<path d="M192.624 5.42866L192.642 5.46285L192.659 5.49764C199.84 20.2813 213.797 40.1908 229.02 58.6287C244.252 77.0771 260.564 93.8247 272.369 102.379C289.25 114.61 320.595 125.266 364.973 133.8C409.253 142.316 466.204 148.666 534.034 152.471L534.038 152.471C613.44 157.05 667.217 162.814 712.238 174.134C757.315 185.468 793.534 202.352 837.857 229.051C851.767 237.247 863.238 243.012 872.824 246.574C882.419 250.139 890.001 251.45 896.183 250.872L911.011 249.487L888.726 232.883L888.713 232.873L888.7 232.864C827.011 185.482 722.084 148.642 563.735 119.774L563.729 119.773C378.345 85.4096 314.301 66.7135 231.479 21.3441L231.476 21.3426C211.315 10.2589 199.747 4.41658 193.938 2.60131C192.592 2.18079 191.722 2.03289 191.204 2.02454C191.225 2.13688 191.258 2.28081 191.311 2.46153C191.52 3.17757 191.947 4.15622 192.624 5.42866Z" fill="url(#paint0_linear)"/>
<path d="M192.624 5.42866L192.642 5.46285L192.659 5.49764C199.84 20.2813 213.797 40.1908 229.02 58.6287C244.252 77.0771 260.564 93.8247 272.369 102.379C289.25 114.61 320.595 125.266 364.973 133.8C409.253 142.316 466.204 148.666 534.034 152.471L534.038 152.471C613.44 157.05 667.217 162.814 712.238 174.134C757.315 185.468 793.534 202.352 837.857 229.051C851.767 237.247 863.238 243.012 872.824 246.574C882.419 250.139 890.001 251.45 896.183 250.872L911.011 249.487L888.726 232.883L888.713 232.873L888.7 232.864C827.011 185.482 722.084 148.642 563.735 119.774L563.729 119.773C378.345 85.4096 314.301 66.7135 231.479 21.3441L231.476 21.3426C211.315 10.2589 199.747 4.41658 193.938 2.60131C192.592 2.18079 191.722 2.03289 191.204 2.02454C191.225 2.13688 191.258 2.28081 191.311 2.46153C191.52 3.17757 191.947 4.15622 192.624 5.42866Z" stroke="white" stroke-width="4"/>
</g>
<g id="Vector_2">
<path d="M287.551 145.083L287.557 145.09C297.366 157.858 315.824 173.65 336.342 187.738C356.846 201.815 379.152 214.015 396.538 219.718L396.546 219.72L396.554 219.723C415.21 226.005 426.198 229.071 445.119 229.583C464.198 230.101 491.282 228.019 542.086 223.86L542.094 223.86C655.729 215.032 706.358 218.978 775.679 244.317C788.566 248.897 806.454 251.982 820.986 252.923C828.259 253.394 834.569 253.319 838.931 252.667C841.137 252.338 842.673 251.884 843.574 251.389C843.983 251.164 844.167 250.981 844.24 250.884C844.182 250.8 844.071 250.655 843.87 250.442C843.427 249.974 842.732 249.377 841.753 248.657C839.804 247.221 836.961 245.462 833.356 243.453C826.163 239.444 816.151 234.559 804.707 229.44C781.82 219.203 753.378 208.104 730.636 201.282C676.808 185.34 612.864 178.337 499.06 176.006L499.057 176.006C402.671 173.891 351.616 166.865 308.49 150.251L308.478 150.247C302.426 147.872 297.625 146.093 293.918 144.874C290.163 143.64 287.685 143.033 286.207 142.909C286.155 142.904 286.105 142.901 286.057 142.898C286.059 142.901 286.061 142.904 286.063 142.907C286.367 143.464 286.855 144.184 287.551 145.083Z" fill="#006861"/>
<path d="M287.551 145.083L287.557 145.09C297.366 157.858 315.824 173.65 336.342 187.738C356.846 201.815 379.152 214.015 396.538 219.718L396.546 219.72L396.554 219.723C415.21 226.005 426.198 229.071 445.119 229.583C464.198 230.101 491.282 228.019 542.086 223.86L542.094 223.86C655.729 215.032 706.358 218.978 775.679 244.317C788.566 248.897 806.454 251.982 820.986 252.923C828.259 253.394 834.569 253.319 838.931 252.667C841.137 252.338 842.673 251.884 843.574 251.389C843.983 251.164 844.167 250.981 844.24 250.884C844.182 250.8 844.071 250.655 843.87 250.442C843.427 249.974 842.732 249.377 841.753 248.657C839.804 247.221 836.961 245.462 833.356 243.453C826.163 239.444 816.151 234.559 804.707 229.44C781.82 219.203 753.378 208.104 730.636 201.282C676.808 185.34 612.864 178.337 499.06 176.006L499.057 176.006C402.671 173.891 351.616 166.865 308.49 150.251L308.478 150.247C302.426 147.872 297.625 146.093 293.918 144.874C290.163 143.64 287.685 143.033 286.207 142.909C286.155 142.904 286.105 142.901 286.057 142.898C286.059 142.901 286.061 142.904 286.063 142.907C286.367 143.464 286.855 144.184 287.551 145.083Z" fill="url(#paint1_linear)"/>
<path d="M287.551 145.083L287.557 145.09C297.366 157.858 315.824 173.65 336.342 187.738C356.846 201.815 379.152 214.015 396.538 219.718L396.546 219.72L396.554 219.723C415.21 226.005 426.198 229.071 445.119 229.583C464.198 230.101 491.282 228.019 542.086 223.86L542.094 223.86C655.729 215.032 706.358 218.978 775.679 244.317C788.566 248.897 806.454 251.982 820.986 252.923C828.259 253.394 834.569 253.319 838.931 252.667C841.137 252.338 842.673 251.884 843.574 251.389C843.983 251.164 844.167 250.981 844.24 250.884C844.182 250.8 844.071 250.655 843.87 250.442C843.427 249.974 842.732 249.377 841.753 248.657C839.804 247.221 836.961 245.462 833.356 243.453C826.163 239.444 816.151 234.559 804.707 229.44C781.82 219.203 753.378 208.104 730.636 201.282C676.808 185.34 612.864 178.337 499.06 176.006L499.057 176.006C402.671 173.891 351.616 166.865 308.49 150.251L308.478 150.247C302.426 147.872 297.625 146.093 293.918 144.874C290.163 143.64 287.685 143.033 286.207 142.909C286.155 142.904 286.105 142.901 286.057 142.898C286.059 142.901 286.061 142.904 286.063 142.907C286.367 143.464 286.855 144.184 287.551 145.083Z" stroke="white" stroke-width="4"/>
</g>
<g id="Vector_3">
<mask id="path-3-inside-1" fill="white">
<path d="M1147.55 136.554C1059.28 156.978 1006.85 185.051 967.481 233.271C936.421 270.341 913.229 332.924 910.642 386.263C909.212 412.031 905.685 423.955 899.109 424.568C891.218 425.302 888.9 418.804 887.445 387.202C885.227 337.361 890.329 309.421 906.043 281.104C913.425 268.21 918.835 255.499 918.561 253.694C918.288 251.888 883.436 255.133 841.625 260.856C700.591 280.699 558.018 329.982 218.939 477.511C100.019 528.864 1.88689 572.179 0.754137 573.505C-3.95927 577.606 23.8751 589.662 93.7176 614.898L161.496 639.715L252.088 581.845C529.8 403.407 681.786 328.225 817.688 300.925C851.993 294.07 858.002 294.121 859.279 302.547C860.282 309.167 854.82 312.727 841.011 314.013C805.502 317.318 724.159 343.811 663 371.477C537.576 428.318 187.031 641 206.154 648.375C221.057 654.311 334.502 672.436 347.653 671.212C353.571 670.661 383.076 645.332 413.257 615.668C494.465 535.478 567.705 473.119 627.04 433.417C708.79 378.81 855.53 321.816 858.814 343.482C859.634 348.899 842.883 357.172 809.126 367.639C717.445 396.315 588.032 484.044 450.648 611.576C379.452 678.627 378.795 678.689 474.326 671.016L523.077 667.088L575.659 604.821C666.188 498.13 739.299 443.717 799.138 438.147C832.674 435.025 854.864 449.438 859.059 477.123C864.623 513.835 857.351 523.057 799.388 549.815C769.558 564.188 728.51 588.15 708.816 603.411C688.465 618.733 654.65 642.022 632.71 655.661C573.577 692.293 516.469 737.892 485.793 773.095C471.067 790.335 447.116 812.705 432.794 823.804C361.474 876.829 350.919 948 401.846 1024.43L420.033 1052.04L425.773 1028.31C433.342 994.647 457.754 953.313 478.47 940.398C506.438 922.536 545.792 878.59 558.785 849.916C565.327 835.879 574.101 805.767 578.708 783.366C586.426 737.482 607.824 698.26 633.546 678.776C650.883 665.566 650.883 665.566 641.437 678.041C624.335 701.605 612.945 749.662 615.859 790.893C620.117 867.399 600.669 932.684 548.174 1017.53C517.057 1067.42 515.631 1071.21 520.647 1104.31L526.028 1139.82L545.179 1098.98C555.139 1076.69 591.151 1023.9 624.769 981.709C657.729 939.579 690.982 894.981 697.14 882.811C703.956 870.58 717.002 851.056 727.379 840.324C752.573 812.955 759.902 790.911 754.977 758.411C752.15 739.754 753.595 731.685 758.654 734.266C763.622 736.245 766.761 748.159 767.159 763.991L768.542 790.717L783.397 765.531C801.377 734.561 829.566 709.354 859.104 697.45C871.051 692.675 919.457 682.066 965.689 674.71C1056.66 658.918 1109.21 644.87 1161.44 619.867C1197 603.739 1240.51 596.027 1248.55 605.044C1257.42 615.204 1178.67 671.973 1136.07 685.704C1119.52 690.906 1118.57 693.436 1122.76 721.121L1127.23 750.611L1171.63 713.521C1195.94 693.557 1230.62 667.137 1248.14 655.13C1265.75 643.725 1285.73 625.996 1293.66 616.713C1311.04 594.954 1303.57 585.274 1251.26 565.73C1229.98 557.335 1199.81 543.055 1185.11 534.048C1170.31 524.439 1151.01 515.86 1142.1 514.249C1127.83 512.525 1125.31 509.098 1121.39 483.218C1119.02 467.57 1107.7 436.887 1096.43 415.353C1076.97 379.324 1075.88 372.102 1075.34 324.546C1075.09 296.494 1075.86 270.788 1077.38 267.595C1082.97 256.088 1091.59 260.168 1098.84 277.193C1102.27 286.639 1112.08 298.543 1120.88 303.827C1129.12 309.774 1140.8 320.893 1147.43 329.431C1154.15 338.571 1163.79 344.997 1169.71 344.446C1185.49 342.977 1189.01 313.354 1181.55 237.756L1174.17 167.034L1147.87 169.482C1114.33 172.604 1060.81 193.456 1033.11 213.123C988.739 245.94 952.506 306.074 933.494 378.643L927.48 400.565L927.778 376.124C928.387 344.94 945.513 295.129 966.78 263.853C1001.93 214.195 1066.8 175.808 1143.12 160.159C1164.55 156.333 1187.22 147.509 1195.42 140.032L1209.47 127.128L1186.64 130.474C1174.14 131.637 1156.57 134.494 1147.55 136.554ZM1168.71 232.237C1169.44 237.052 1167.36 240.908 1163.41 241.275C1160.13 241.581 1156.02 236.471 1154.92 229.249C1153.92 222.628 1156.66 218.711 1160.22 220.211C1164.44 221.649 1167.98 227.422 1168.71 232.237Z"/>
</mask>
<path d="M1147.55 136.554C1059.28 156.978 1006.85 185.051 967.481 233.271C936.421 270.341 913.229 332.924 910.642 386.263C909.212 412.031 905.685 423.955 899.109 424.568C891.218 425.302 888.9 418.804 887.445 387.202C885.227 337.361 890.329 309.421 906.043 281.104C913.425 268.21 918.835 255.499 918.561 253.694C918.288 251.888 883.436 255.133 841.625 260.856C700.591 280.699 558.018 329.982 218.939 477.511C100.019 528.864 1.88689 572.179 0.754137 573.505C-3.95927 577.606 23.8751 589.662 93.7176 614.898L161.496 639.715L252.088 581.845C529.8 403.407 681.786 328.225 817.688 300.925C851.993 294.07 858.002 294.121 859.279 302.547C860.282 309.167 854.82 312.727 841.011 314.013C805.502 317.318 724.159 343.811 663 371.477C537.576 428.318 187.031 641 206.154 648.375C221.057 654.311 334.502 672.436 347.653 671.212C353.571 670.661 383.076 645.332 413.257 615.668C494.465 535.478 567.705 473.119 627.04 433.417C708.79 378.81 855.53 321.816 858.814 343.482C859.634 348.899 842.883 357.172 809.126 367.639C717.445 396.315 588.032 484.044 450.648 611.576C379.452 678.627 378.795 678.689 474.326 671.016L523.077 667.088L575.659 604.821C666.188 498.13 739.299 443.717 799.138 438.147C832.674 435.025 854.864 449.438 859.059 477.123C864.623 513.835 857.351 523.057 799.388 549.815C769.558 564.188 728.51 588.15 708.816 603.411C688.465 618.733 654.65 642.022 632.71 655.661C573.577 692.293 516.469 737.892 485.793 773.095C471.067 790.335 447.116 812.705 432.794 823.804C361.474 876.829 350.919 948 401.846 1024.43L420.033 1052.04L425.773 1028.31C433.342 994.647 457.754 953.313 478.47 940.398C506.438 922.536 545.792 878.59 558.785 849.916C565.327 835.879 574.101 805.767 578.708 783.366C586.426 737.482 607.824 698.26 633.546 678.776C650.883 665.566 650.883 665.566 641.437 678.041C624.335 701.605 612.945 749.662 615.859 790.893C620.117 867.399 600.669 932.684 548.174 1017.53C517.057 1067.42 515.631 1071.21 520.647 1104.31L526.028 1139.82L545.179 1098.98C555.139 1076.69 591.151 1023.9 624.769 981.709C657.729 939.579 690.982 894.981 697.14 882.811C703.956 870.58 717.002 851.056 727.379 840.324C752.573 812.955 759.902 790.911 754.977 758.411C752.15 739.754 753.595 731.685 758.654 734.266C763.622 736.245 766.761 748.159 767.159 763.991L768.542 790.717L783.397 765.531C801.377 734.561 829.566 709.354 859.104 697.45C871.051 692.675 919.457 682.066 965.689 674.71C1056.66 658.918 1109.21 644.87 1161.44 619.867C1197 603.739 1240.51 596.027 1248.55 605.044C1257.42 615.204 1178.67 671.973 1136.07 685.704C1119.52 690.906 1118.57 693.436 1122.76 721.121L1127.23 750.611L1171.63 713.521C1195.94 693.557 1230.62 667.137 1248.14 655.13C1265.75 643.725 1285.73 625.996 1293.66 616.713C1311.04 594.954 1303.57 585.274 1251.26 565.73C1229.98 557.335 1199.81 543.055 1185.11 534.048C1170.31 524.439 1151.01 515.86 1142.1 514.249C1127.83 512.525 1125.31 509.098 1121.39 483.218C1119.02 467.57 1107.7 436.887 1096.43 415.353C1076.97 379.324 1075.88 372.102 1075.34 324.546C1075.09 296.494 1075.86 270.788 1077.38 267.595C1082.97 256.088 1091.59 260.168 1098.84 277.193C1102.27 286.639 1112.08 298.543 1120.88 303.827C1129.12 309.774 1140.8 320.893 1147.43 329.431C1154.15 338.571 1163.79 344.997 1169.71 344.446C1185.49 342.977 1189.01 313.354 1181.55 237.756L1174.17 167.034L1147.87 169.482C1114.33 172.604 1060.81 193.456 1033.11 213.123C988.739 245.94 952.506 306.074 933.494 378.643L927.48 400.565L927.778 376.124C928.387 344.94 945.513 295.129 966.78 263.853C1001.93 214.195 1066.8 175.808 1143.12 160.159C1164.55 156.333 1187.22 147.509 1195.42 140.032L1209.47 127.128L1186.64 130.474C1174.14 131.637 1156.57 134.494 1147.55 136.554ZM1168.71 232.237C1169.44 237.052 1167.36 240.908 1163.41 241.275C1160.13 241.581 1156.02 236.471 1154.92 229.249C1153.92 222.628 1156.66 218.711 1160.22 220.211C1164.44 221.649 1167.98 227.422 1168.71 232.237Z" fill="#006861"/>
<path d="M1147.55 136.554C1059.28 156.978 1006.85 185.051 967.481 233.271C936.421 270.341 913.229 332.924 910.642 386.263C909.212 412.031 905.685 423.955 899.109 424.568C891.218 425.302 888.9 418.804 887.445 387.202C885.227 337.361 890.329 309.421 906.043 281.104C913.425 268.21 918.835 255.499 918.561 253.694C918.288 251.888 883.436 255.133 841.625 260.856C700.591 280.699 558.018 329.982 218.939 477.511C100.019 528.864 1.88689 572.179 0.754137 573.505C-3.95927 577.606 23.8751 589.662 93.7176 614.898L161.496 639.715L252.088 581.845C529.8 403.407 681.786 328.225 817.688 300.925C851.993 294.07 858.002 294.121 859.279 302.547C860.282 309.167 854.82 312.727 841.011 314.013C805.502 317.318 724.159 343.811 663 371.477C537.576 428.318 187.031 641 206.154 648.375C221.057 654.311 334.502 672.436 347.653 671.212C353.571 670.661 383.076 645.332 413.257 615.668C494.465 535.478 567.705 473.119 627.04 433.417C708.79 378.81 855.53 321.816 858.814 343.482C859.634 348.899 842.883 357.172 809.126 367.639C717.445 396.315 588.032 484.044 450.648 611.576C379.452 678.627 378.795 678.689 474.326 671.016L523.077 667.088L575.659 604.821C666.188 498.13 739.299 443.717 799.138 438.147C832.674 435.025 854.864 449.438 859.059 477.123C864.623 513.835 857.351 523.057 799.388 549.815C769.558 564.188 728.51 588.15 708.816 603.411C688.465 618.733 654.65 642.022 632.71 655.661C573.577 692.293 516.469 737.892 485.793 773.095C471.067 790.335 447.116 812.705 432.794 823.804C361.474 876.829 350.919 948 401.846 1024.43L420.033 1052.04L425.773 1028.31C433.342 994.647 457.754 953.313 478.47 940.398C506.438 922.536 545.792 878.59 558.785 849.916C565.327 835.879 574.101 805.767 578.708 783.366C586.426 737.482 607.824 698.26 633.546 678.776C650.883 665.566 650.883 665.566 641.437 678.041C624.335 701.605 612.945 749.662 615.859 790.893C620.117 867.399 600.669 932.684 548.174 1017.53C517.057 1067.42 515.631 1071.21 520.647 1104.31L526.028 1139.82L545.179 1098.98C555.139 1076.69 591.151 1023.9 624.769 981.709C657.729 939.579 690.982 894.981 697.14 882.811C703.956 870.58 717.002 851.056 727.379 840.324C752.573 812.955 759.902 790.911 754.977 758.411C752.15 739.754 753.595 731.685 758.654 734.266C763.622 736.245 766.761 748.159 767.159 763.991L768.542 790.717L783.397 765.531C801.377 734.561 829.566 709.354 859.104 697.45C871.051 692.675 919.457 682.066 965.689 674.71C1056.66 658.918 1109.21 644.87 1161.44 619.867C1197 603.739 1240.51 596.027 1248.55 605.044C1257.42 615.204 1178.67 671.973 1136.07 685.704C1119.52 690.906 1118.57 693.436 1122.76 721.121L1127.23 750.611L1171.63 713.521C1195.94 693.557 1230.62 667.137 1248.14 655.13C1265.75 643.725 1285.73 625.996 1293.66 616.713C1311.04 594.954 1303.57 585.274 1251.26 565.73C1229.98 557.335 1199.81 543.055 1185.11 534.048C1170.31 524.439 1151.01 515.86 1142.1 514.249C1127.83 512.525 1125.31 509.098 1121.39 483.218C1119.02 467.57 1107.7 436.887 1096.43 415.353C1076.97 379.324 1075.88 372.102 1075.34 324.546C1075.09 296.494 1075.86 270.788 1077.38 267.595C1082.97 256.088 1091.59 260.168 1098.84 277.193C1102.27 286.639 1112.08 298.543 1120.88 303.827C1129.12 309.774 1140.8 320.893 1147.43 329.431C1154.15 338.571 1163.79 344.997 1169.71 344.446C1185.49 342.977 1189.01 313.354 1181.55 237.756L1174.17 167.034L1147.87 169.482C1114.33 172.604 1060.81 193.456 1033.11 213.123C988.739 245.94 952.506 306.074 933.494 378.643L927.48 400.565L927.778 376.124C928.387 344.94 945.513 295.129 966.78 263.853C1001.93 214.195 1066.8 175.808 1143.12 160.159C1164.55 156.333 1187.22 147.509 1195.42 140.032L1209.47 127.128L1186.64 130.474C1174.14 131.637 1156.57 134.494 1147.55 136.554ZM1168.71 232.237C1169.44 237.052 1167.36 240.908 1163.41 241.275C1160.13 241.581 1156.02 236.471 1154.92 229.249C1153.92 222.628 1156.66 218.711 1160.22 220.211C1164.44 221.649 1167.98 227.422 1168.71 232.237Z" fill="url(#paint2_linear)"/>
<path d="M1147.55 136.554L1146.42 132.682L1146.43 132.68L1147.55 136.554ZM967.481 233.271L970.674 235.867L970.659 235.885L970.644 235.903L967.481 233.271ZM910.642 386.263L914.667 386.674L914.666 386.688L914.666 386.701L910.642 386.263ZM887.445 387.202L883.42 387.161L883.42 387.155L887.445 387.202ZM906.043 281.104L902.484 279.049L902.496 279.027L902.508 279.006L906.043 281.104ZM841.625 260.856L840.839 256.921L840.846 256.92L840.854 256.919L841.625 260.856ZM218.939 477.511L220.735 481.163L220.725 481.167L218.939 477.511ZM0.754137 573.505L3.89505 576.163L3.71834 576.37L3.51271 576.549L0.754137 573.505ZM93.7176 614.898L94.9138 611.175L94.9224 611.178L94.931 611.181L93.7176 614.898ZM161.496 639.715L163.817 643.087L162.186 644.129L160.283 643.432L161.496 639.715ZM252.088 581.845L254.417 585.211L254.408 585.216L252.088 581.845ZM817.688 300.925L816.675 297.029L816.678 297.028L817.688 300.925ZM663 371.477L661.152 367.849L661.154 367.848L663 371.477ZM206.154 648.375L207.436 644.684L207.458 644.692L207.48 644.701L206.154 648.375ZM413.257 615.668L416.186 618.554L416.18 618.56L413.257 615.668ZM627.04 433.417L624.653 430.088L624.655 430.087L627.04 433.417ZM809.126 367.639L807.716 363.844L807.725 363.841L809.126 367.639ZM450.648 611.576L447.781 608.63L447.791 608.621L447.801 608.612L450.648 611.576ZM474.326 671.016L474.875 674.977L474.874 674.977L474.326 671.016ZM523.077 667.088L526.232 669.73L525.227 670.92L523.627 671.049L523.077 667.088ZM575.659 604.821L572.505 602.179L572.51 602.172L575.659 604.821ZM799.388 549.815L797.46 546.225L797.488 546.211L797.516 546.198L799.388 549.815ZM708.816 603.411L711.413 606.588L711.392 606.604L711.372 606.62L708.816 603.411ZM632.71 655.661L634.992 659.057L634.987 659.06L632.71 655.661ZM485.793 773.095L482.652 770.437L482.664 770.423L482.676 770.409L485.793 773.095ZM432.794 823.804L435.39 826.981L435.361 827.004L435.331 827.026L432.794 823.804ZM401.846 1024.43L405.176 1022.38L405.182 1022.39L405.188 1022.4L401.846 1024.43ZM420.033 1052.04L423.955 1053.16L421.843 1061.89L416.691 1054.07L420.033 1052.04ZM425.773 1028.31L429.709 1029.37L429.703 1029.4L429.695 1029.43L425.773 1028.31ZM478.47 940.398L480.79 943.77L480.773 943.781L480.756 943.792L478.47 940.398ZM558.785 849.916L555.091 848.128L555.099 848.11L555.107 848.092L558.785 849.916ZM578.708 783.366L582.684 784.227L582.673 784.295L582.659 784.363L578.708 783.366ZM633.546 678.776L636.118 681.971L636.11 681.978L633.546 678.776ZM641.437 678.041L638.116 675.611L638.138 675.581L638.16 675.551L641.437 678.041ZM615.859 790.893L619.878 790.838L619.88 790.868L619.882 790.897L615.859 790.893ZM548.174 1017.53L551.645 1019.73L551.638 1019.74L548.174 1017.53ZM526.028 1139.82L529.702 1141.65L524.082 1153.64L522.044 1140.19L526.028 1139.82ZM545.179 1098.98L548.881 1100.75L548.868 1100.78L548.853 1100.81L545.179 1098.98ZM624.769 981.709L628.01 984.245L628 984.258L627.99 984.271L624.769 981.709ZM697.14 882.811L693.515 880.88L693.548 880.814L693.584 880.75L697.14 882.811ZM727.379 840.324L730.429 843.084L730.399 843.117L730.367 843.15L727.379 840.324ZM758.654 734.266L757.328 737.94L757.142 737.866L756.964 737.775L758.654 734.266ZM767.159 763.991L763.136 763.972L763.133 763.92L763.132 763.867L767.159 763.991ZM768.542 790.717L772.053 792.856L765.228 804.427L764.518 790.698L768.542 790.717ZM783.397 765.531L786.921 767.648L786.915 767.659L786.909 767.67L783.397 765.531ZM859.104 697.45L857.405 693.758L857.415 693.754L859.104 697.45ZM965.689 674.71L966.601 678.625L966.573 678.63L966.546 678.635L965.689 674.71ZM1161.44 619.867L1159.52 616.273L1159.55 616.256L1159.59 616.24L1161.44 619.867ZM1248.55 605.044L1251.51 602.516L1251.52 602.532L1251.54 602.548L1248.55 605.044ZM1136.07 685.704L1137.51 689.488L1137.5 689.492L1137.48 689.497L1136.07 685.704ZM1127.23 750.611L1129.94 753.703L1124.37 758.356L1123.25 750.982L1127.23 750.611ZM1171.63 713.521L1168.92 710.429L1168.94 710.419L1168.95 710.408L1171.63 713.521ZM1248.14 655.13L1245.71 651.825L1245.75 651.797L1245.79 651.771L1248.14 655.13ZM1293.66 616.713L1296.88 619.278L1296.84 619.325L1296.8 619.371L1293.66 616.713ZM1251.26 565.73L1250.02 569.437L1249.98 569.423L1249.95 569.409L1251.26 565.73ZM1185.11 534.048L1183.12 537.391L1183.07 537.361L1183.03 537.33L1185.11 534.048ZM1142.1 514.249L1142.36 510.304L1142.49 510.319L1142.61 510.341L1142.1 514.249ZM1096.43 415.353L1099.97 413.64L1099.98 413.665L1099.99 413.69L1096.43 415.353ZM1075.34 324.546L1071.31 324.368L1071.31 324.359L1075.34 324.546ZM1077.38 267.595L1073.71 265.747L1073.72 265.732L1073.73 265.717L1077.38 267.595ZM1098.84 277.193L1102.54 275.832L1102.58 275.936L1102.62 276.041L1098.84 277.193ZM1120.88 303.827L1122.83 300.463L1122.99 300.558L1123.14 300.666L1120.88 303.827ZM1147.43 329.431L1150.58 327.128L1150.61 327.172L1150.65 327.218L1147.43 329.431ZM1181.55 237.756L1185.56 237.568L1185.56 237.58L1185.56 237.591L1181.55 237.756ZM1174.17 167.034L1173.57 163.077L1177.74 162.689L1178.18 166.847L1174.17 167.034ZM1033.11 213.123L1030.58 209.896L1030.61 209.875L1030.64 209.854L1033.11 213.123ZM933.494 378.643L937.399 379.836L937.394 379.857L937.388 379.878L933.494 378.643ZM927.48 400.565L931.374 401.8L923.452 400.295L927.48 400.565ZM927.778 376.124L923.749 375.854L923.749 375.84L923.75 375.825L927.778 376.124ZM966.78 263.853L963.395 261.515L963.415 261.486L963.435 261.458L966.78 263.853ZM1143.12 160.159L1142.09 156.266L1142.14 156.256L1142.19 156.247L1143.12 160.159ZM1195.42 140.032L1198.25 143.01L1198.25 143.014L1198.24 143.019L1195.42 140.032ZM1209.47 127.128L1208.66 123.196L1221.94 121.249L1212.3 130.105L1209.47 127.128ZM1186.64 130.474L1187.44 134.406L1187.34 134.421L1187.24 134.431L1186.64 130.474ZM1160.22 220.211L1159.1 223.959L1158.96 223.911L1158.82 223.853L1160.22 220.211ZM1148.67 140.426C1060.89 160.739 1009.34 188.509 970.674 235.867L964.288 230.675C1004.36 181.594 1057.68 153.217 1146.42 132.682L1148.67 140.426ZM970.644 235.903C940.152 272.296 917.217 334.081 914.667 386.674L906.618 385.853C909.241 331.766 932.691 268.386 964.317 230.64L970.644 235.903ZM914.666 386.701C913.947 399.646 912.691 409.443 910.674 416.169C909.667 419.529 908.395 422.384 906.707 424.507C904.966 426.696 902.651 428.25 899.708 428.524L898.509 420.611C898.855 420.579 899.447 420.413 900.261 419.389C901.128 418.299 902.061 416.447 902.936 413.529C904.685 407.697 905.908 398.649 906.619 385.826L914.666 386.701ZM899.708 428.524C897.203 428.758 894.386 428.484 891.86 426.613C889.449 424.827 888.01 422.097 887.025 419.007C885.084 412.918 884.141 402.834 883.42 387.161L891.47 387.244C892.203 403.173 893.147 412.139 894.701 417.015C895.464 419.408 896.176 420.14 896.464 420.354C896.637 420.482 897.069 420.745 898.509 420.611L899.708 428.524ZM883.42 387.155C881.184 336.912 886.312 308.19 902.484 279.049L909.603 283.159C894.346 310.653 889.27 337.811 891.47 387.25L883.42 387.155ZM902.508 279.006C906.138 272.665 909.28 266.373 911.471 261.471C912.569 259.014 913.408 256.951 913.947 255.429C914.219 254.663 914.394 254.093 914.489 253.71C914.512 253.62 914.528 253.549 914.538 253.496C914.549 253.442 914.553 253.418 914.552 253.418C914.552 253.419 914.551 253.43 914.549 253.451C914.547 253.471 914.545 253.504 914.543 253.55C914.541 253.627 914.539 253.812 914.577 254.065L922.545 253.323C922.646 253.989 922.585 254.576 922.541 254.897C922.49 255.278 922.408 255.659 922.32 256.012C922.143 256.721 921.883 257.541 921.57 258.421C920.942 260.194 920.018 262.452 918.875 265.01C916.584 270.138 913.331 276.648 909.579 283.202L902.508 279.006ZM914.577 254.065C914.832 255.744 916.013 256.612 916.431 256.871C916.882 257.151 917.242 257.241 917.276 257.249C917.386 257.279 917.292 257.244 916.836 257.213C915.993 257.155 914.616 257.149 912.672 257.218C908.829 257.354 903.231 257.76 896.269 258.408C882.369 259.703 863.262 261.937 842.396 264.793L840.854 256.919C861.798 254.052 881.024 251.803 895.07 250.495C902.082 249.842 907.861 249.419 911.936 249.275C913.952 249.204 915.669 249.196 916.947 249.284C917.552 249.326 918.275 249.401 918.947 249.578C919.261 249.661 919.837 249.835 920.439 250.208C921.008 250.56 922.274 251.531 922.545 253.323L914.577 254.065ZM842.41 264.791C701.972 284.551 559.843 333.62 220.735 481.163L217.144 473.86C556.192 326.344 699.211 276.848 840.839 256.921L842.41 264.791ZM220.725 481.167C161.272 506.84 107.017 530.503 67.4873 547.912C47.7212 556.618 31.643 563.756 20.4395 568.8C14.8354 571.322 10.4636 573.315 7.46355 574.715C5.95992 575.417 4.82298 575.96 4.05508 576.342C3.66643 576.535 3.40603 576.67 3.2517 576.755C3.17062 576.8 3.1592 576.808 3.18885 576.79C3.20276 576.781 3.26318 576.742 3.34657 576.68C3.38737 576.649 3.63503 576.467 3.89505 576.163L-2.38677 570.847C-1.95524 570.341 -1.43755 570.037 -1.43288 570.034C-1.27368 569.933 -1.10877 569.839 -0.967334 569.762C-0.676609 569.602 -0.307166 569.412 0.11419 569.203C0.966289 568.779 2.16994 568.205 3.69028 567.496C6.73822 566.073 11.1478 564.063 16.7611 561.536C27.9922 556.48 44.092 549.332 63.8655 540.624C103.415 523.206 157.687 499.536 217.154 473.856L220.725 481.167ZM3.51271 576.549C3.73845 576.352 4.1597 575.858 4.25614 575.047C4.34817 574.273 4.08004 573.738 4.00281 573.604C3.944 573.502 4.22777 573.954 5.65675 574.942C8.32913 576.79 13.2208 579.332 20.7521 582.665C35.6978 589.278 59.9869 598.555 94.9138 611.175L92.5214 618.621C57.6057 606.005 33.0564 596.636 17.8026 589.887C10.2343 586.538 4.68595 583.72 1.28246 581.365C-0.326504 580.253 -1.98964 578.892 -2.94128 577.247C-3.46493 576.342 -3.91596 575.103 -3.74793 573.689C-3.5755 572.238 -2.81935 571.17 -2.00443 570.461L3.51271 576.549ZM94.931 611.181L162.71 635.998L160.283 643.432L92.5042 618.615L94.931 611.181ZM159.176 636.344L249.767 578.473L254.408 585.216L163.817 643.087L159.176 636.344ZM249.759 578.478C527.466 400.045 679.986 324.487 816.675 297.029L818.702 304.821C683.587 331.963 532.134 406.77 254.417 585.211L249.759 578.478ZM816.678 297.028C833.646 293.638 844.256 291.804 850.787 292.034C854.093 292.15 857.205 292.802 859.589 294.821C862.046 296.9 862.889 299.709 863.263 302.176L855.295 302.917C855.03 301.171 854.643 300.814 854.542 300.728C854.369 300.582 853.595 300.07 850.951 299.977C845.582 299.788 836.035 301.357 818.698 304.822L816.678 297.028ZM863.263 302.176C863.605 304.433 863.426 306.675 862.479 308.748C861.536 310.813 859.963 312.421 858.008 313.66C854.244 316.043 848.647 317.314 841.61 317.969L840.411 310.056C847.183 309.425 851.222 308.274 853.391 306.901C854.402 306.261 854.87 305.657 855.1 305.153C855.327 304.656 855.454 303.97 855.295 302.917L863.263 302.176ZM841.61 317.969C824.324 319.578 795.464 326.906 763.071 337.393C730.772 347.848 695.281 361.338 664.845 375.106L661.154 367.848C691.878 353.95 727.638 340.36 760.178 329.827C792.623 319.324 822.188 311.752 840.411 310.056L841.61 317.969ZM664.848 375.104C602.362 403.422 483.54 470.697 382.618 531.893C332.182 562.477 286.299 591.492 254.242 613.304C238.194 624.223 225.7 633.277 217.841 639.792C213.865 643.088 211.283 645.567 209.995 647.211C209.277 648.128 209.339 648.323 209.4 647.966C209.447 647.691 209.502 646.953 209.023 646.102C208.527 645.222 207.802 644.825 207.436 644.684L204.872 652.066C203.908 651.694 202.766 650.967 202.029 649.658C201.309 648.379 201.299 647.115 201.452 646.22C201.726 644.622 202.686 643.197 203.515 642.137C205.323 639.828 208.434 636.926 212.458 633.59C220.599 626.841 233.334 617.625 249.42 606.68C281.631 584.763 327.639 555.672 378.125 525.058C479.052 463.859 598.214 396.372 661.152 367.849L664.848 375.104ZM207.48 644.701C209.006 645.309 212.116 646.18 216.69 647.246C221.174 648.291 226.823 649.47 233.265 650.722C246.145 653.226 262.086 656.002 277.99 658.557C293.894 661.112 309.726 663.442 322.386 665.054C328.719 665.861 334.23 666.484 338.546 666.868C342.993 667.263 345.836 667.369 347.054 667.255L348.253 675.169C346.183 675.361 342.603 675.169 338.271 674.784C333.807 674.387 328.181 673.749 321.797 672.936C309.021 671.309 293.095 668.965 277.131 666.4C261.167 663.835 245.131 661.044 232.137 658.518C225.642 657.255 219.881 656.054 215.257 654.976C210.723 653.919 207.028 652.925 204.828 652.049L207.48 644.701ZM347.054 667.255C346.884 667.271 347.362 667.207 348.797 666.402C350.06 665.694 351.691 664.631 353.672 663.212C357.622 660.382 362.72 656.311 368.63 651.286C380.434 641.248 395.289 627.562 410.334 612.775L416.18 618.56C401.043 633.437 386.055 647.248 374.083 657.429C368.104 662.513 362.83 666.732 358.641 669.733C356.551 671.23 354.671 672.467 353.07 673.366C351.64 674.167 349.902 675.015 348.253 675.169L347.054 667.255ZM410.328 612.781C491.617 532.511 565.044 469.974 624.653 430.088L629.427 436.745C570.365 476.264 497.312 538.444 416.186 618.554L410.328 612.781ZM624.655 430.087C665.815 402.594 723.199 374.576 770.698 356.138C794.435 346.924 815.874 340.035 831.688 336.821C839.536 335.226 846.32 334.466 851.412 334.929C853.943 335.16 856.445 335.722 858.506 336.95C860.754 338.289 862.385 340.385 862.798 343.111L854.829 343.853C854.818 343.778 854.811 343.801 854.844 343.848C854.868 343.882 854.838 343.818 854.629 343.694C854.141 343.402 853.074 343.021 851.118 342.843C847.238 342.49 841.38 343.055 833.732 344.609C818.554 347.694 797.583 354.404 774.006 363.557C726.876 381.851 670.015 409.633 629.424 436.746L624.655 430.087ZM862.798 343.111C863.33 346.622 860.966 349.343 858.883 351.131C856.546 353.135 853.143 355.169 848.882 357.248C840.313 361.431 827.464 366.185 810.527 371.436L807.725 363.841C824.545 358.626 836.95 354.01 844.99 350.085C849.035 348.111 851.776 346.406 853.404 345.009C855.286 343.395 854.708 343.051 854.829 343.853L862.798 343.111ZM810.536 371.433C719.696 399.846 590.787 487.093 453.494 614.541L447.801 608.612C585.277 480.994 715.193 392.783 807.716 363.844L810.536 371.433ZM453.514 614.523C435.664 631.334 422.396 643.797 413.927 652.991C409.681 657.601 406.813 661.208 405.183 663.998C403.423 667.012 403.709 668.059 403.719 668.085C403.719 668.085 403.719 668.085 403.718 668.084C403.717 668.083 403.717 668.082 403.717 668.082C403.717 668.083 403.719 668.085 403.722 668.089C403.725 668.093 403.731 668.101 403.74 668.111C403.773 668.15 403.87 668.248 404.087 668.387C404.55 668.684 405.395 669.06 406.821 669.401C409.695 670.088 414.02 670.433 420.078 670.42C432.139 670.395 449.814 668.979 473.777 667.055L474.874 674.977C451.071 676.889 433.004 678.343 420.546 678.369C414.344 678.381 409.215 678.047 405.339 677.12C401.662 676.239 397.731 674.482 396.21 670.55C394.781 666.857 396.233 663.018 398.144 659.747C400.186 656.251 403.493 652.174 407.828 647.469C416.52 638.033 430.034 625.344 447.781 608.63L453.514 614.523ZM473.776 667.055L522.528 663.127L523.627 671.049L474.875 674.977L473.776 667.055ZM519.923 664.445L572.505 602.179L578.813 607.464L526.232 669.73L519.923 664.445ZM572.51 602.172C617.871 548.713 658.984 508.21 696.366 480.345C733.71 452.507 767.612 437.069 798.538 434.19L799.738 442.103C770.824 444.795 738.251 459.349 701.448 486.783C664.683 514.189 623.976 554.238 578.808 607.47L572.51 602.172ZM798.538 434.19C815.902 432.573 830.869 435.443 842.185 442.801C853.615 450.233 860.793 461.904 863.044 476.752L855.075 477.494C853.13 464.657 847.116 455.279 838.018 449.363C828.807 443.374 815.91 440.598 799.738 442.103L798.538 434.19ZM863.044 476.752C865.856 495.314 865.671 508.256 856.238 519.799C851.665 525.395 845.079 530.465 836.166 535.765C827.243 541.072 815.771 546.733 801.26 553.431L797.516 546.198C811.987 539.518 823.16 533.992 831.728 528.897C840.307 523.795 846.06 519.248 849.854 514.605C857.157 505.669 857.826 495.644 855.075 477.494L863.044 476.752ZM801.317 553.405C771.618 567.715 730.824 591.546 711.413 606.588L706.22 600.234C726.195 584.755 767.498 560.661 797.46 546.225L801.317 553.405ZM711.372 606.62C690.938 622.004 657.032 645.356 634.992 659.057L630.428 652.265C652.268 638.688 685.992 615.462 706.261 600.203L711.372 606.62ZM634.987 659.06C576.03 695.582 519.257 740.955 488.91 775.781L482.676 770.409C513.681 734.828 571.123 689.004 630.433 652.262L634.987 659.06ZM488.934 775.753C474.04 793.19 449.905 815.734 435.39 826.981L430.197 820.627C444.328 809.677 468.095 787.479 482.652 770.437L488.934 775.753ZM435.331 827.026C400.235 853.119 380.465 883.385 375.462 916.145C370.46 948.903 380.127 984.789 405.176 1022.38L398.516 1026.48C372.638 987.645 362.119 949.728 367.492 914.536C372.866 879.346 394.032 847.514 430.256 820.582L435.331 827.026ZM405.188 1022.4L423.375 1050L416.691 1054.07L398.504 1026.47L405.188 1022.4ZM416.111 1050.91L421.851 1027.19L429.695 1029.43L423.955 1053.16L416.111 1050.91ZM421.837 1027.24C425.726 1009.95 433.895 990.836 443.689 974.418C453.427 958.097 465.074 943.931 476.184 937.005L480.756 943.792C471.15 949.78 460.233 962.739 450.694 978.728C441.211 994.622 433.39 1013.01 429.709 1029.37L421.837 1027.24ZM476.15 937.027C489.735 928.35 506.309 913.17 521.152 896.497C536.007 879.809 548.817 861.975 555.091 848.128L562.479 851.703C555.76 866.531 542.397 885.007 527.335 901.927C512.26 918.86 495.173 934.584 480.79 943.77L476.15 937.027ZM555.107 848.092C561.471 834.439 570.174 804.653 574.758 782.369L582.659 784.363C578.027 806.88 569.183 837.32 562.462 851.739L555.107 848.092ZM574.733 782.504C582.556 735.991 604.292 695.791 630.981 675.574L636.11 681.978C611.355 700.729 590.296 738.974 582.684 784.227L574.733 782.504ZM630.973 675.58C635.29 672.291 638.583 669.781 640.917 668.087C642.079 667.243 643.068 666.554 643.861 666.058C644.254 665.812 644.664 665.573 645.062 665.379C645.348 665.239 646.056 664.901 646.935 664.82C647.386 664.778 648.381 664.751 649.463 665.336C650.754 666.035 651.438 667.194 651.675 668.213C651.872 669.062 651.758 669.756 651.689 670.08C651.61 670.455 651.494 670.769 651.403 670.987C651.082 671.76 650.525 672.623 650.007 673.38C648.886 675.021 647.045 677.451 644.713 680.531L638.16 675.551C640.551 672.393 642.252 670.145 643.246 668.69C643.786 667.9 643.929 667.61 643.921 667.629C643.909 667.659 643.847 667.809 643.797 668.046C643.757 668.231 643.648 668.811 643.825 669.572C644.041 670.502 644.679 671.598 645.899 672.257C646.909 672.803 647.806 672.764 648.134 672.733C648.766 672.674 649.123 672.46 648.95 672.544C648.889 672.574 648.73 672.659 648.443 672.839C647.875 673.194 647.053 673.761 645.925 674.58C643.678 676.211 640.469 678.656 636.118 681.971L630.973 675.58ZM644.757 680.472C636.607 691.702 629.634 709.076 625.074 728.924C620.526 748.719 618.452 770.657 619.878 790.838L611.84 790.948C610.352 769.898 612.516 747.191 617.21 726.76C621.892 706.381 629.165 687.945 638.116 675.611L644.757 680.472ZM619.882 790.897C624.196 868.406 604.413 934.449 551.645 1019.73L544.703 1015.32C596.925 930.92 616.038 866.391 611.836 790.889L619.882 790.897ZM551.638 1019.74C535.971 1044.86 528.153 1057.83 524.71 1068.6C521.387 1079 522.126 1087.41 524.631 1103.94L516.663 1104.68C514.153 1088.12 513.096 1078.08 517.012 1065.83C520.806 1053.96 529.259 1040.08 544.709 1015.31L551.638 1019.74ZM524.631 1103.94L530.012 1139.45L522.044 1140.19L516.663 1104.68L524.631 1103.94ZM522.354 1137.99L541.505 1097.15L548.853 1100.81L529.702 1141.65L522.354 1137.99ZM541.477 1097.21C551.645 1074.45 587.925 1021.35 621.549 979.147L627.99 984.271C594.378 1026.45 558.632 1078.93 548.881 1100.75L541.477 1097.21ZM621.528 979.173C637.993 958.127 654.524 936.475 667.7 918.575C680.973 900.542 690.606 886.629 693.515 880.88L700.766 884.742C697.517 891.163 687.444 905.633 674.311 923.475C661.081 941.449 644.505 963.161 628.01 984.245L621.528 979.173ZM693.584 880.75C700.477 868.38 713.703 848.551 724.39 837.498L730.367 843.15C720.301 853.561 707.434 872.78 700.697 884.872L693.584 880.75ZM724.328 837.564C736.725 824.097 744.499 812.182 748.641 799.855C752.768 787.571 753.387 774.582 750.993 758.782L758.961 758.04C761.492 774.741 760.909 789.023 756.305 802.729C751.714 816.391 743.227 829.182 730.429 843.084L724.328 837.564ZM750.993 758.782C749.573 749.409 749.136 742.208 749.877 737.547C750.229 735.333 750.964 732.839 752.815 731.259C753.848 730.378 755.152 729.853 756.623 729.824C758.019 729.797 759.291 730.22 760.344 730.757L756.964 737.775C756.752 737.667 756.872 737.778 757.232 737.771C757.666 737.762 758.049 737.59 758.279 737.393C758.525 737.184 758.128 737.389 757.839 739.202C757.3 742.594 757.554 748.756 758.961 758.04L750.993 758.782ZM759.98 730.592C762.449 731.576 764.206 733.577 765.447 735.617C766.717 737.705 767.714 740.267 768.5 743.079C770.077 748.716 770.983 756.008 771.187 764.114L763.132 763.867C762.937 756.142 762.074 749.561 760.74 744.789C760.071 742.395 759.327 740.619 758.598 739.421C757.84 738.175 757.343 737.946 757.328 737.94L759.98 730.592ZM771.183 764.01L772.566 790.736L764.518 790.698L763.136 763.972L771.183 764.01ZM765.03 788.578L779.886 763.392L786.909 767.67L772.053 792.856L765.03 788.578ZM779.873 763.414C798.213 731.824 827 706.012 857.405 693.758L860.804 701.141C832.132 712.696 804.541 737.298 786.921 767.648L779.873 763.414ZM857.415 693.754C863.747 691.224 879.173 687.316 898.474 683.163C917.915 678.98 941.644 674.475 964.833 670.786L966.546 678.635C943.502 682.301 919.913 686.779 900.606 690.933C881.159 695.118 866.409 698.901 860.793 701.145L857.415 693.754ZM964.778 670.795C1055.61 655.025 1107.76 641.052 1159.52 616.273L1163.36 623.461C1110.66 648.689 1057.7 662.81 966.601 678.625L964.778 670.795ZM1159.59 616.24C1177.66 608.047 1197.74 601.986 1214.41 599.11C1222.73 597.675 1230.35 597.005 1236.53 597.319C1239.62 597.476 1242.48 597.885 1244.95 598.64C1247.38 599.384 1249.77 600.569 1251.51 602.516L1245.59 607.572C1245.31 607.264 1244.59 606.718 1242.96 606.221C1241.38 605.735 1239.24 605.393 1236.57 605.257C1231.21 604.985 1224.23 605.561 1216.22 606.942C1200.24 609.7 1180.78 615.56 1163.28 623.495L1159.59 616.24ZM1251.54 602.548C1253.05 604.281 1253.4 606.325 1253.22 608.089C1253.05 609.767 1252.39 611.401 1251.58 612.891C1249.95 615.888 1247.16 619.279 1243.68 622.841C1236.67 630.024 1226.13 638.644 1214.1 647.292C1190.08 664.55 1159.37 682.442 1137.51 689.488L1134.63 681.919C1155.36 675.235 1185.33 657.876 1209.12 640.777C1220.99 632.247 1231.14 623.912 1237.73 617.164C1241.05 613.76 1243.29 610.942 1244.44 608.836C1245.01 607.775 1245.18 607.135 1245.21 606.858C1245.23 606.667 1245.15 607.077 1245.56 607.54L1251.54 602.548ZM1137.48 689.497C1128.92 692.189 1126.48 693.722 1125.42 696.542C1124.81 698.171 1124.54 700.601 1124.77 704.636C1125 708.638 1125.7 713.815 1126.75 720.75L1118.78 721.492C1117.73 714.585 1116.98 709.063 1116.72 704.643C1116.47 700.254 1116.68 696.536 1117.85 693.421C1120.35 686.754 1126.67 684.421 1134.65 681.911L1137.48 689.497ZM1126.75 720.75L1131.22 750.241L1123.25 750.982L1118.78 721.492L1126.75 720.75ZM1124.53 747.52L1168.92 710.429L1174.33 716.612L1129.94 753.703L1124.53 747.52ZM1168.95 710.408C1193.32 690.403 1228.08 663.912 1245.71 651.825L1250.56 658.435C1233.15 670.361 1198.57 696.711 1174.3 716.633L1168.95 710.408ZM1245.79 651.771C1263.15 640.532 1282.85 623.03 1290.52 614.055L1296.8 619.371C1288.61 628.962 1268.34 646.918 1250.48 658.489L1245.79 651.771ZM1290.44 614.148C1294.7 608.813 1297.04 604.679 1297.78 601.28C1298.44 598.217 1297.85 595.62 1295.52 592.788C1292.98 589.696 1288.33 586.303 1280.7 582.385C1273.14 578.506 1263.05 574.306 1250.02 569.437L1252.5 562.023C1265.62 566.926 1276.08 571.265 1284.1 575.378C1292.03 579.452 1297.97 583.503 1301.66 587.994C1305.57 592.745 1306.85 597.869 1305.66 603.352C1304.55 608.498 1301.31 613.733 1296.88 619.278L1290.44 614.148ZM1249.95 569.409C1228.54 560.964 1198.12 546.578 1183.12 537.391L1187.09 530.704C1201.5 539.532 1231.42 553.707 1252.57 562.051L1249.95 569.409ZM1183.03 537.33C1175.84 532.66 1167.51 528.214 1159.88 524.741C1152.17 521.229 1145.51 518.865 1141.59 518.157L1142.61 510.341C1147.6 511.244 1155.05 513.975 1162.91 517.557C1170.87 521.179 1179.59 525.826 1187.19 530.765L1183.03 537.33ZM1141.83 518.193C1134.59 517.318 1128.6 515.878 1124.55 509.861C1122.7 507.115 1121.42 503.667 1120.37 499.501C1119.3 495.308 1118.39 490.075 1117.41 483.589L1125.37 482.847C1126.35 489.301 1127.22 494.202 1128.18 497.984C1129.14 501.792 1130.13 504.162 1131.18 505.722C1132.93 508.32 1135.34 509.456 1142.36 510.304L1141.83 518.193ZM1117.41 483.589C1115.13 468.56 1104.03 438.335 1092.88 417.016L1099.99 413.69C1111.37 435.438 1122.91 466.581 1125.37 482.847L1117.41 483.589ZM1092.9 417.066C1083.16 399.036 1077.77 387.783 1074.86 374.929C1071.97 362.182 1071.58 348.044 1071.31 324.368L1079.37 324.724C1079.64 348.603 1080.06 361.855 1082.72 373.615C1085.36 385.268 1090.24 395.641 1099.97 413.64L1092.9 417.066ZM1071.31 324.359C1071.18 310.293 1071.32 296.796 1071.67 286.394C1071.85 281.198 1072.08 276.735 1072.37 273.343C1072.51 271.651 1072.68 270.178 1072.86 268.991C1073.02 267.952 1073.26 266.694 1073.71 265.747L1081.04 269.443C1081.12 269.293 1081 269.537 1080.83 270.625C1080.68 271.565 1080.54 272.842 1080.4 274.448C1080.13 277.651 1079.9 281.966 1079.72 287.103C1079.37 297.365 1079.24 310.746 1079.37 324.733L1071.31 324.359ZM1073.73 265.717C1075.28 262.51 1077.29 259.865 1079.92 258.374C1082.76 256.76 1085.96 256.717 1089 258.102C1091.83 259.386 1094.29 261.781 1096.43 264.675C1098.6 267.619 1100.65 271.38 1102.54 275.832L1095.14 278.555C1093.41 274.494 1091.66 271.361 1090 269.111C1088.31 266.811 1086.91 265.714 1085.97 265.288C1085.26 264.962 1084.8 264.993 1084.22 265.318C1083.44 265.766 1082.27 266.926 1081.03 269.472L1073.73 265.717ZM1102.62 276.041C1104.13 280.181 1107.14 285.098 1110.91 289.666C1114.69 294.234 1118.98 298.15 1122.83 300.463L1118.93 307.191C1113.98 304.22 1108.97 299.543 1104.78 294.477C1100.59 289.41 1096.98 283.652 1095.05 278.346L1102.62 276.041ZM1123.14 300.666C1131.7 306.847 1143.69 318.252 1150.58 327.128L1144.28 331.734C1137.92 323.534 1126.53 312.701 1118.62 306.988L1123.14 300.666ZM1150.65 327.218C1153.73 331.411 1157.46 334.944 1161.01 337.327C1164.72 339.82 1167.59 340.631 1169.11 340.489L1170.31 348.403C1165.92 348.811 1161 346.685 1156.74 343.818C1152.3 340.84 1147.85 336.591 1144.22 331.644L1150.65 327.218ZM1169.11 340.489C1171.59 340.259 1173.8 339.003 1175.75 335.661C1177.8 332.155 1179.41 326.562 1180.34 318.244C1182.21 301.648 1181.27 275.705 1177.54 237.92L1185.56 237.591C1189.29 275.404 1190.32 302.072 1188.35 319.555C1187.37 328.276 1185.61 335.088 1182.79 339.912C1179.88 344.9 1175.73 347.898 1170.31 348.403L1169.11 340.489ZM1177.55 237.943L1170.16 167.221L1178.18 166.847L1185.56 237.568L1177.55 237.943ZM1174.77 170.99L1148.47 173.439L1147.27 165.526L1173.57 163.077L1174.77 170.99ZM1148.47 173.439C1132.2 174.953 1110.81 180.814 1089.94 188.814C1069.08 196.807 1049.09 206.803 1035.59 216.393L1030.64 209.854C1044.83 199.777 1065.45 189.512 1086.66 181.383C1107.86 173.26 1130 167.134 1147.27 165.526L1148.47 173.439ZM1035.64 216.351C992.149 248.517 956.27 307.804 937.399 379.836L929.59 377.45C948.742 304.345 985.33 243.363 1030.58 209.896L1035.64 216.351ZM937.388 379.878L931.374 401.8L923.587 399.33L929.601 377.408L937.388 379.878ZM923.452 400.295L923.749 375.854L931.807 376.393L931.509 400.834L923.452 400.295ZM923.75 375.825C924.065 359.676 928.628 339.009 935.711 318.553C942.807 298.063 952.538 277.482 963.395 261.515L970.165 266.191C959.755 281.5 950.289 301.462 943.353 321.493C936.405 341.557 932.1 361.387 931.806 376.422L923.75 375.825ZM963.435 261.458C999.255 210.858 1065.06 172.062 1142.09 156.266L1144.15 164.052C1068.55 179.555 1004.61 217.532 970.126 266.248L963.435 261.458ZM1142.19 156.247C1152.65 154.38 1163.43 151.287 1172.58 147.753C1181.85 144.174 1189.03 140.301 1192.6 137.045L1198.24 143.019C1193.61 147.241 1185.35 151.518 1175.88 155.177C1166.29 158.88 1155.02 162.112 1144.05 164.071L1142.19 156.247ZM1192.59 137.054L1206.64 124.15L1212.3 130.105L1198.25 143.01L1192.59 137.054ZM1210.28 131.059L1187.44 134.406L1185.83 126.542L1208.66 123.196L1210.28 131.059ZM1187.24 134.431C1174.9 135.579 1157.5 138.409 1148.66 140.429L1146.43 132.68C1155.63 130.578 1173.38 127.695 1186.04 126.517L1187.24 134.431ZM1172.7 231.866C1173.17 234.951 1172.78 238.028 1171.35 240.522C1169.88 243.093 1167.34 244.922 1164.01 245.232L1162.82 237.319C1163.43 237.261 1163.91 236.979 1164.28 236.326C1164.7 235.597 1164.99 234.338 1164.73 232.608L1172.7 231.866ZM1164.01 245.232C1160.13 245.594 1156.99 242.823 1155.13 240.298C1153.09 237.526 1151.57 233.787 1150.94 229.62L1158.91 228.878C1159.37 231.933 1160.45 234.36 1161.56 235.872C1162.86 237.631 1163.41 237.263 1162.82 237.319L1164.01 245.232ZM1150.94 229.62C1150.36 225.773 1150.75 222.116 1152.39 219.475C1153.23 218.12 1154.49 216.91 1156.22 216.305C1158 215.683 1159.89 215.838 1161.63 216.569L1158.82 223.853C1158.77 223.834 1158.99 223.916 1159.28 223.813C1159.53 223.728 1159.49 223.63 1159.33 223.895C1158.96 224.492 1158.49 226.104 1158.91 228.878L1150.94 229.62ZM1161.35 216.462C1164.69 217.601 1167.31 220.245 1169.09 222.884C1170.92 225.584 1172.23 228.809 1172.7 231.866L1164.73 232.608C1164.46 230.851 1163.65 228.781 1162.46 227.032C1161.24 225.221 1159.98 224.258 1159.1 223.959L1161.35 216.462Z" fill="white" mask="url(#path-3-inside-1)"/>
</g>
<g id="Vector_4">
<path d="M397.693 249.56C397.768 249.703 397.994 250.05 398.637 250.624C401.079 252.684 406.299 255.538 413.037 258.533C419.716 261.502 427.663 264.513 435.352 266.918L435.376 266.926L435.399 266.934C458.271 274.674 480.625 274.474 569.765 265.92C644.041 258.792 686.551 257.235 711.157 261.953C732.446 265.589 751.542 265.549 763.21 261.389C767.742 259.665 770.899 258.457 772.682 257.434C772.947 257.282 773.15 257.15 773.304 257.041C772.914 256.789 772.307 256.461 771.402 256.063C770.054 255.469 768.233 254.798 765.871 254.012C761.147 252.441 754.462 250.48 745.471 247.844L745.468 247.843C682.486 229.271 629.89 226.702 506.167 236.671L506.16 236.671C455.856 240.546 426.876 243.171 411.439 245.678C407.588 246.303 404.627 246.914 402.41 247.522C400.155 248.141 398.822 248.719 398.11 249.209C397.876 249.371 397.754 249.488 397.693 249.56ZM397.639 249.649C397.642 249.649 397.651 249.636 397.657 249.608C397.639 249.636 397.636 249.649 397.639 249.649Z" fill="#006861"/>
<path d="M397.693 249.56C397.768 249.703 397.994 250.05 398.637 250.624C401.079 252.684 406.299 255.538 413.037 258.533C419.716 261.502 427.663 264.513 435.352 266.918L435.376 266.926L435.399 266.934C458.271 274.674 480.625 274.474 569.765 265.92C644.041 258.792 686.551 257.235 711.157 261.953C732.446 265.589 751.542 265.549 763.21 261.389C767.742 259.665 770.899 258.457 772.682 257.434C772.947 257.282 773.15 257.15 773.304 257.041C772.914 256.789 772.307 256.461 771.402 256.063C770.054 255.469 768.233 254.798 765.871 254.012C761.147 252.441 754.462 250.48 745.471 247.844L745.468 247.843C682.486 229.271 629.89 226.702 506.167 236.671L506.16 236.671C455.856 240.546 426.876 243.171 411.439 245.678C407.588 246.303 404.627 246.914 402.41 247.522C400.155 248.141 398.822 248.719 398.11 249.209C397.876 249.371 397.754 249.488 397.693 249.56ZM397.639 249.649C397.642 249.649 397.651 249.636 397.657 249.608C397.639 249.636 397.636 249.649 397.639 249.649Z" fill="url(#paint3_linear)"/>
<path d="M397.693 249.56C397.768 249.703 397.994 250.05 398.637 250.624C401.079 252.684 406.299 255.538 413.037 258.533C419.716 261.502 427.663 264.513 435.352 266.918L435.376 266.926L435.399 266.934C458.271 274.674 480.625 274.474 569.765 265.92C644.041 258.792 686.551 257.235 711.157 261.953C732.446 265.589 751.542 265.549 763.21 261.389C767.742 259.665 770.899 258.457 772.682 257.434C772.947 257.282 773.15 257.15 773.304 257.041C772.914 256.789 772.307 256.461 771.402 256.063C770.054 255.469 768.233 254.798 765.871 254.012C761.147 252.441 754.462 250.48 745.471 247.844L745.468 247.843C682.486 229.271 629.89 226.702 506.167 236.671L506.16 236.671C455.856 240.546 426.876 243.171 411.439 245.678C407.588 246.303 404.627 246.914 402.41 247.522C400.155 248.141 398.822 248.719 398.11 249.209C397.876 249.371 397.754 249.488 397.693 249.56ZM397.639 249.649C397.642 249.649 397.651 249.636 397.657 249.608C397.639 249.636 397.636 249.649 397.639 249.649Z" stroke="white" stroke-width="4"/>
</g>
<g id="Vector_5">
<path d="M1110.98 727.627L1110.98 727.625C1109.34 710.071 1106.47 697.239 1103.12 690.082C1101.4 686.406 1099.79 684.75 1098.63 684.286C1097.86 683.978 1096.63 683.993 1094.82 686.179C1094.83 686.165 1094.83 686.167 1094.82 686.191C1094.79 686.261 1094.67 686.526 1094.55 687.137C1094.4 687.864 1094.28 688.863 1094.21 690.132C1094.06 692.662 1094.1 696.08 1094.3 700.166C1094.71 708.328 1095.81 718.996 1097.47 730.23C1099.7 745.393 1101.67 755.398 1103.77 761.294C1104.84 764.281 1105.84 765.896 1106.67 766.648C1107.05 766.986 1107.34 767.102 1107.56 767.141C1107.78 767.178 1108.09 767.17 1108.52 767.015C1108.9 766.765 1109.54 765.986 1110.17 764.096C1110.81 762.181 1111.31 759.488 1111.62 756.032C1112.24 749.135 1112.09 739.496 1110.98 727.627Z" fill="#006861"/>
<path d="M1110.98 727.627L1110.98 727.625C1109.34 710.071 1106.47 697.239 1103.12 690.082C1101.4 686.406 1099.79 684.75 1098.63 684.286C1097.86 683.978 1096.63 683.993 1094.82 686.179C1094.83 686.165 1094.83 686.167 1094.82 686.191C1094.79 686.261 1094.67 686.526 1094.55 687.137C1094.4 687.864 1094.28 688.863 1094.21 690.132C1094.06 692.662 1094.1 696.08 1094.3 700.166C1094.71 708.328 1095.81 718.996 1097.47 730.23C1099.7 745.393 1101.67 755.398 1103.77 761.294C1104.84 764.281 1105.84 765.896 1106.67 766.648C1107.05 766.986 1107.34 767.102 1107.56 767.141C1107.78 767.178 1108.09 767.17 1108.52 767.015C1108.9 766.765 1109.54 765.986 1110.17 764.096C1110.81 762.181 1111.31 759.488 1111.62 756.032C1112.24 749.135 1112.09 739.496 1110.98 727.627Z" fill="url(#paint4_linear)"/>
<path d="M1110.98 727.627L1110.98 727.625C1109.34 710.071 1106.47 697.239 1103.12 690.082C1101.4 686.406 1099.79 684.75 1098.63 684.286C1097.86 683.978 1096.63 683.993 1094.82 686.179C1094.83 686.165 1094.83 686.167 1094.82 686.191C1094.79 686.261 1094.67 686.526 1094.55 687.137C1094.4 687.864 1094.28 688.863 1094.21 690.132C1094.06 692.662 1094.1 696.08 1094.3 700.166C1094.71 708.328 1095.81 718.996 1097.47 730.23C1099.7 745.393 1101.67 755.398 1103.77 761.294C1104.84 764.281 1105.84 765.896 1106.67 766.648C1107.05 766.986 1107.34 767.102 1107.56 767.141C1107.78 767.178 1108.09 767.17 1108.52 767.015C1108.9 766.765 1109.54 765.986 1110.17 764.096C1110.81 762.181 1111.31 759.488 1111.62 756.032C1112.24 749.135 1112.09 739.496 1110.98 727.627Z" stroke="white" stroke-width="4"/>
</g>
<g id="Vector_6">
<path d="M495.666 1168.35L495.677 1168.34L495.688 1168.33C498.195 1165.87 499.805 1161.26 499.976 1152.25C500.146 1143.3 498.901 1130.47 496.202 1112.09C493.234 1091.87 490.956 1079.64 488.527 1072.57C487.308 1069.02 486.14 1067.05 485.052 1066.01C484.104 1065.1 483.124 1064.79 481.75 1064.93C480.431 1065.05 479.585 1065.52 478.927 1066.72C478.166 1068.1 477.628 1070.53 477.539 1074.72C477.361 1083.04 478.95 1097.16 482.397 1120.64C486.114 1145.95 488.471 1159.78 490.751 1166.4C491.315 1168.04 491.828 1169.09 492.273 1169.73C492.489 1170.04 492.658 1170.21 492.765 1170.29C492.817 1170.33 492.852 1170.35 492.869 1170.36C492.878 1170.36 492.884 1170.37 492.887 1170.37C492.891 1170.37 492.892 1170.37 492.893 1170.37C492.894 1170.37 492.895 1170.37 492.897 1170.37C492.9 1170.37 492.905 1170.37 492.913 1170.37C492.93 1170.37 492.963 1170.37 493.017 1170.36C493.13 1170.33 493.314 1170.26 493.576 1170.11C494.12 1169.8 494.803 1169.23 495.666 1168.35Z" fill="#006861"/>
<path d="M495.666 1168.35L495.677 1168.34L495.688 1168.33C498.195 1165.87 499.805 1161.26 499.976 1152.25C500.146 1143.3 498.901 1130.47 496.202 1112.09C493.234 1091.87 490.956 1079.64 488.527 1072.57C487.308 1069.02 486.14 1067.05 485.052 1066.01C484.104 1065.1 483.124 1064.79 481.75 1064.93C480.431 1065.05 479.585 1065.52 478.927 1066.72C478.166 1068.1 477.628 1070.53 477.539 1074.72C477.361 1083.04 478.95 1097.16 482.397 1120.64C486.114 1145.95 488.471 1159.78 490.751 1166.4C491.315 1168.04 491.828 1169.09 492.273 1169.73C492.489 1170.04 492.658 1170.21 492.765 1170.29C492.817 1170.33 492.852 1170.35 492.869 1170.36C492.878 1170.36 492.884 1170.37 492.887 1170.37C492.891 1170.37 492.892 1170.37 492.893 1170.37C492.894 1170.37 492.895 1170.37 492.897 1170.37C492.9 1170.37 492.905 1170.37 492.913 1170.37C492.93 1170.37 492.963 1170.37 493.017 1170.36C493.13 1170.33 493.314 1170.26 493.576 1170.11C494.12 1169.8 494.803 1169.23 495.666 1168.35Z" fill="url(#paint5_linear)"/>
<path d="M495.666 1168.35L495.677 1168.34L495.688 1168.33C498.195 1165.87 499.805 1161.26 499.976 1152.25C500.146 1143.3 498.901 1130.47 496.202 1112.09C493.234 1091.87 490.956 1079.64 488.527 1072.57C487.308 1069.02 486.14 1067.05 485.052 1066.01C484.104 1065.1 483.124 1064.79 481.75 1064.93C480.431 1065.05 479.585 1065.52 478.927 1066.72C478.166 1068.1 477.628 1070.53 477.539 1074.72C477.361 1083.04 478.95 1097.16 482.397 1120.64C486.114 1145.95 488.471 1159.78 490.751 1166.4C491.315 1168.04 491.828 1169.09 492.273 1169.73C492.489 1170.04 492.658 1170.21 492.765 1170.29C492.817 1170.33 492.852 1170.35 492.869 1170.36C492.878 1170.36 492.884 1170.37 492.887 1170.37C492.891 1170.37 492.892 1170.37 492.893 1170.37C492.894 1170.37 492.895 1170.37 492.897 1170.37C492.9 1170.37 492.905 1170.37 492.913 1170.37C492.93 1170.37 492.963 1170.37 493.017 1170.36C493.13 1170.33 493.314 1170.26 493.576 1170.11C494.12 1169.8 494.803 1169.23 495.666 1168.35Z" stroke="white" stroke-width="4"/>
</g>
</g>
<g id="JUMP">
<path d="M488.074 1137.81H506.922V1238.5C506.922 1252.1 502.82 1262.75 494.617 1270.43C486.479 1278.11 475.607 1281.95 462 1281.95C447.872 1281.95 436.87 1278.34 428.992 1271.11C421.115 1263.89 417.176 1253.76 417.176 1240.74H435.926C435.926 1248.88 438.139 1255.23 442.566 1259.79C447.059 1264.34 453.536 1266.62 462 1266.62C469.747 1266.62 475.997 1264.18 480.75 1259.3C485.568 1254.41 488.009 1247.58 488.074 1238.79V1137.81ZM638.953 1137.81V1234.49C638.888 1247.9 634.656 1258.87 626.258 1267.4C617.924 1275.93 606.596 1280.72 592.273 1281.76L587.293 1281.95C571.733 1281.95 559.331 1277.75 550.086 1269.36C540.841 1260.96 536.154 1249.4 536.023 1234.69V1137.81H554.578V1234.1C554.578 1244.39 557.41 1252.4 563.074 1258.12C568.738 1263.79 576.811 1266.62 587.293 1266.62C597.905 1266.62 606.01 1263.79 611.609 1258.12C617.273 1252.46 620.105 1244.49 620.105 1234.2V1137.81H638.953ZM692.762 1137.81L739.246 1253.83L785.73 1137.81H810.047V1280H791.297V1224.63L793.055 1164.86L746.375 1280H732.02L685.438 1165.16L687.293 1224.63V1280H668.543V1137.81H692.762ZM861.902 1224.34V1280H843.152V1137.81H895.594C911.154 1137.81 923.328 1141.78 932.117 1149.73C940.971 1157.67 945.398 1168.18 945.398 1181.27C945.398 1195.07 941.069 1205.72 932.41 1213.2C923.816 1220.62 911.479 1224.34 895.398 1224.34H861.902ZM861.902 1209H895.594C905.62 1209 913.302 1206.66 918.641 1201.97C923.979 1197.22 926.648 1190.38 926.648 1181.46C926.648 1173 923.979 1166.23 918.641 1161.15C913.302 1156.07 905.978 1153.44 896.668 1153.24H861.902V1209Z" fill="#54C6EB"/>
<path d="M488.074 1137.81V1133.81H484.074V1137.81H488.074ZM506.922 1137.81H510.922V1133.81H506.922V1137.81ZM494.617 1270.43L491.883 1267.51L491.877 1267.52L491.871 1267.52L494.617 1270.43ZM417.176 1240.74V1236.74H413.176V1240.74H417.176ZM435.926 1240.74H439.926V1236.74H435.926V1240.74ZM442.566 1259.79L439.697 1262.57L439.707 1262.58L439.718 1262.59L442.566 1259.79ZM480.75 1259.3L477.903 1256.49L477.893 1256.5L477.884 1256.51L480.75 1259.3ZM488.074 1238.79L492.074 1238.82L492.074 1238.8V1238.79H488.074ZM488.074 1141.81H506.922V1133.81H488.074V1141.81ZM502.922 1137.81V1238.5H510.922V1137.81H502.922ZM502.922 1238.5C502.922 1251.25 499.112 1260.74 491.883 1267.51L497.351 1273.35C506.529 1264.75 510.922 1252.96 510.922 1238.5H502.922ZM491.871 1267.52C484.629 1274.36 474.819 1277.95 462 1277.95V1285.95C476.395 1285.95 488.329 1281.87 497.363 1273.34L491.871 1267.52ZM462 1277.95C448.544 1277.95 438.625 1274.52 431.696 1268.17L426.288 1274.06C435.115 1282.16 447.2 1285.95 462 1285.95V1277.95ZM431.696 1268.17C424.821 1261.86 421.176 1252.91 421.176 1240.74H413.176C413.176 1254.62 417.408 1265.92 426.288 1274.06L431.696 1268.17ZM417.176 1244.74H435.926V1236.74H417.176V1244.74ZM431.926 1240.74C431.926 1249.62 434.357 1257.08 439.697 1262.57L445.436 1257C441.921 1253.38 439.926 1248.14 439.926 1240.74H431.926ZM439.718 1262.59C445.181 1268.14 452.824 1270.62 462 1270.62V1262.62C454.249 1262.62 448.936 1260.55 445.415 1256.98L439.718 1262.59ZM462 1270.62C470.665 1270.62 478.005 1267.85 483.616 1262.09L477.884 1256.51C473.99 1260.51 468.829 1262.62 462 1262.62V1270.62ZM483.597 1262.11C489.336 1256.29 492.004 1248.34 492.074 1238.82L484.074 1238.76C484.015 1246.81 481.799 1252.54 477.903 1256.49L483.597 1262.11ZM492.074 1238.79V1137.81H484.074V1238.79H492.074ZM638.953 1137.81H642.953V1133.81H638.953V1137.81ZM638.953 1234.49L642.953 1234.51L642.953 1234.5V1234.49H638.953ZM626.258 1267.4L623.408 1264.6L623.402 1264.6L623.397 1264.61L626.258 1267.4ZM592.273 1281.76L592.43 1285.75L592.497 1285.75L592.564 1285.75L592.273 1281.76ZM587.293 1281.95V1285.95H587.371L587.45 1285.95L587.293 1281.95ZM550.086 1269.36L547.396 1272.32L550.086 1269.36ZM536.023 1234.69H532.023V1234.71L532.024 1234.72L536.023 1234.69ZM536.023 1137.81V1133.81H532.023V1137.81H536.023ZM554.578 1137.81H558.578V1133.81H554.578V1137.81ZM563.074 1258.12L560.23 1260.94L560.238 1260.95L560.246 1260.95L563.074 1258.12ZM611.609 1258.12L608.781 1255.3L608.773 1255.3L608.765 1255.31L611.609 1258.12ZM620.105 1137.81V1133.81H616.105V1137.81H620.105ZM634.953 1137.81V1234.49H642.953V1137.81H634.953ZM634.953 1234.47C634.892 1246.98 630.983 1256.9 623.408 1264.6L629.108 1270.21C638.329 1260.84 642.884 1248.83 642.953 1234.51L634.953 1234.47ZM623.397 1264.61C615.879 1272.3 605.541 1276.78 591.983 1277.77L592.564 1285.75C607.652 1284.65 619.97 1279.56 629.119 1270.2L623.397 1264.61ZM592.117 1277.76L587.136 1277.96L587.45 1285.95L592.43 1285.75L592.117 1277.76ZM587.293 1277.95C572.473 1277.95 561.115 1273.97 552.776 1266.39L547.396 1272.32C557.546 1281.54 570.993 1285.95 587.293 1285.95V1277.95ZM552.776 1266.39C544.504 1258.88 540.146 1248.47 540.023 1234.65L532.024 1234.72C532.162 1250.34 537.178 1263.03 547.396 1272.32L552.776 1266.39ZM540.023 1234.69V1137.81H532.023V1234.69H540.023ZM536.023 1141.81H554.578V1133.81H536.023V1141.81ZM550.578 1137.81V1234.1H558.578V1137.81H550.578ZM550.578 1234.1C550.578 1245.14 553.635 1254.27 560.23 1260.94L565.919 1255.31C561.185 1250.52 558.578 1243.64 558.578 1234.1H550.578ZM560.246 1260.95C566.871 1267.58 576.091 1270.62 587.293 1270.62V1262.62C577.532 1262.62 570.606 1260 565.903 1255.3L560.246 1260.95ZM587.293 1270.62C598.606 1270.62 607.879 1267.59 614.454 1260.94L608.765 1255.31C604.141 1259.99 597.204 1262.62 587.293 1262.62V1270.62ZM614.438 1260.95C621.049 1254.34 624.105 1245.23 624.105 1234.2H616.105C616.105 1243.74 613.498 1250.58 608.781 1255.3L614.438 1260.95ZM624.105 1234.2V1137.81H616.105V1234.2H624.105ZM620.105 1141.81H638.953V1133.81H620.105V1141.81ZM692.762 1137.81L696.475 1136.32L695.468 1133.81H692.762V1137.81ZM739.246 1253.83L735.533 1255.32L739.246 1264.58L742.959 1255.32L739.246 1253.83ZM785.73 1137.81V1133.81H783.024L782.017 1136.32L785.73 1137.81ZM810.047 1137.81H814.047V1133.81H810.047V1137.81ZM810.047 1280V1284H814.047V1280H810.047ZM791.297 1280H787.297V1284H791.297V1280ZM791.297 1224.63L787.299 1224.51L787.297 1224.57V1224.63H791.297ZM793.055 1164.86L797.053 1164.98L789.348 1163.36L793.055 1164.86ZM746.375 1280V1284H749.07L750.082 1281.5L746.375 1280ZM732.02 1280L728.313 1281.5L729.325 1284H732.02V1280ZM685.438 1165.16L689.144 1163.65L681.439 1165.28L685.438 1165.16ZM687.293 1224.63H691.293V1224.57L691.291 1224.5L687.293 1224.63ZM687.293 1280V1284H691.293V1280H687.293ZM668.543 1280H664.543V1284H668.543V1280ZM668.543 1137.81V1133.81H664.543V1137.81H668.543ZM689.049 1139.3L735.533 1255.32L742.959 1252.34L696.475 1136.32L689.049 1139.3ZM742.959 1255.32L789.444 1139.3L782.017 1136.32L735.533 1252.34L742.959 1255.32ZM785.73 1141.81H810.047V1133.81H785.73V1141.81ZM806.047 1137.81V1280H814.047V1137.81H806.047ZM810.047 1276H791.297V1284H810.047V1276ZM795.297 1280V1224.63H787.297V1280H795.297ZM795.295 1224.75L797.053 1164.98L789.056 1164.75L787.299 1224.51L795.295 1224.75ZM789.348 1163.36L742.668 1278.5L750.082 1281.5L796.762 1166.37L789.348 1163.36ZM746.375 1276H732.02V1284H746.375V1276ZM735.726 1278.5L689.144 1163.65L681.731 1166.66L728.313 1281.5L735.726 1278.5ZM681.439 1165.28L683.295 1224.75L691.291 1224.5L689.436 1165.03L681.439 1165.28ZM683.293 1224.63V1280H691.293V1224.63H683.293ZM687.293 1276H668.543V1284H687.293V1276ZM672.543 1280V1137.81H664.543V1280H672.543ZM668.543 1141.81H692.762V1133.81H668.543V1141.81ZM861.902 1224.34V1220.34H857.902V1224.34H861.902ZM861.902 1280V1284H865.902V1280H861.902ZM843.152 1280H839.152V1284H843.152V1280ZM843.152 1137.81V1133.81H839.152V1137.81H843.152ZM932.117 1149.73L929.435 1152.69L929.441 1152.7L929.446 1152.7L932.117 1149.73ZM932.41 1213.2L935.025 1216.23L935.026 1216.23L932.41 1213.2ZM861.902 1209H857.902V1213H861.902V1209ZM918.641 1201.97L921.28 1204.98L921.29 1204.97L921.3 1204.96L918.641 1201.97ZM896.668 1153.24L896.752 1149.24L896.71 1149.24H896.668V1153.24ZM861.902 1153.24V1149.24H857.902V1153.24H861.902ZM857.902 1224.34V1280H865.902V1224.34H857.902ZM861.902 1276H843.152V1284H861.902V1276ZM847.152 1280V1137.81H839.152V1280H847.152ZM843.152 1141.81H895.594V1133.81H843.152V1141.81ZM895.594 1141.81C910.48 1141.81 921.587 1145.6 929.435 1152.69L934.799 1146.76C925.069 1137.97 911.827 1133.81 895.594 1133.81V1141.81ZM929.446 1152.7C937.364 1159.81 941.398 1169.19 941.398 1181.27H949.398C949.398 1167.17 944.578 1155.53 934.788 1146.75L929.446 1152.7ZM941.398 1181.27C941.398 1194.17 937.394 1203.61 929.794 1210.18L935.026 1216.23C944.744 1207.83 949.398 1195.97 949.398 1181.27H941.398ZM929.796 1210.18C922.18 1216.75 910.914 1220.34 895.398 1220.34V1228.34C912.044 1228.34 925.453 1224.5 935.025 1216.23L929.796 1210.18ZM895.398 1220.34H861.902V1228.34H895.398V1220.34ZM861.902 1213H895.594V1205H861.902V1213ZM895.594 1213C906.195 1213 914.96 1210.53 921.28 1204.98L916.001 1198.97C911.644 1202.79 905.045 1205 895.594 1205V1213ZM921.3 1204.96C927.695 1199.27 930.648 1191.22 930.648 1181.46H922.648C922.648 1189.55 920.263 1195.17 915.981 1198.99L921.3 1204.96ZM930.648 1181.46C930.648 1172.08 927.65 1164.2 921.397 1158.25L915.884 1164.05C920.308 1168.26 922.648 1173.92 922.648 1181.46H930.648ZM921.397 1158.25C915.16 1152.32 906.786 1149.45 896.752 1149.24L896.584 1157.24C905.17 1157.42 911.444 1159.83 915.884 1164.05L921.397 1158.25ZM896.668 1149.24H861.902V1157.24H896.668V1149.24ZM857.902 1153.24V1209H865.902V1153.24H857.902Z" fill="white"/>
</g>
<g id="START">
<path d="M772.158 1022.11C753.665 1016.8 740.189 1010.28 731.729 1002.57C723.343 994.787 719.15 985.203 719.15 973.823C719.15 960.946 724.279 950.314 734.536 941.929C744.868 933.468 758.27 929.238 774.741 929.238C785.972 929.238 795.967 931.41 804.727 935.752C813.561 940.094 820.374 946.084 825.166 953.721C830.033 961.357 832.466 969.705 832.466 978.765H810.791C810.791 968.882 807.646 961.133 801.357 955.518C795.068 949.827 786.196 946.982 774.741 946.982C764.11 946.982 755.799 949.341 749.81 954.058C743.895 958.7 740.938 965.176 740.938 973.486C740.938 980.15 743.745 985.802 749.36 990.444C755.05 995.011 764.671 999.204 778.223 1003.02C791.849 1006.84 802.48 1011.07 810.117 1015.71C817.829 1020.28 823.519 1025.63 827.188 1031.77C830.931 1037.91 832.803 1045.14 832.803 1053.45C832.803 1066.7 827.637 1077.33 817.305 1085.34C806.973 1093.28 793.159 1097.25 775.864 1097.25C764.634 1097.25 754.152 1095.11 744.419 1090.84C734.686 1086.5 727.161 1080.59 721.846 1073.1C716.605 1065.61 713.984 1057.12 713.984 1047.61H735.659C735.659 1057.49 739.29 1065.31 746.553 1071.08C753.89 1076.77 763.66 1079.61 775.864 1079.61C787.244 1079.61 795.967 1077.29 802.031 1072.65C808.096 1068.01 811.128 1061.68 811.128 1053.67C811.128 1045.66 808.32 1039.48 802.705 1035.14C797.09 1030.72 786.908 1026.38 772.158 1022.11ZM973.521 949.229H920.962V1095H899.512V949.229H847.065V931.484H973.521V949.229ZM1079.09 1052.32H1010.58L995.195 1095H972.959L1035.4 931.484H1054.27L1116.82 1095H1094.7L1079.09 1052.32ZM1017.09 1034.58H1072.69L1044.83 958.101L1017.09 1034.58ZM1198.8 1028.85H1160.4V1095H1138.72V931.484H1192.85C1211.27 931.484 1225.42 935.677 1235.3 944.062C1245.26 952.448 1250.24 964.652 1250.24 980.674C1250.24 990.856 1247.47 999.728 1241.93 1007.29C1236.46 1014.85 1228.83 1020.5 1219.02 1024.25L1257.43 1093.65V1095H1234.29L1198.8 1028.85ZM1160.4 1011.22H1193.53C1204.23 1011.22 1212.73 1008.45 1219.02 1002.91C1225.38 997.37 1228.56 989.958 1228.56 980.674C1228.56 970.566 1225.53 962.817 1219.47 957.427C1213.48 952.036 1204.79 949.303 1193.41 949.229H1160.4V1011.22ZM1384.56 949.229H1332V1095H1310.55V949.229H1258.1V931.484H1384.56V949.229Z" fill="#06D6A0"/>
<path d="M772.158 1022.11L773.27 1018.27L773.263 1018.27L772.158 1022.11ZM731.729 1002.57L729.007 1005.5L729.02 1005.52L729.034 1005.53L731.729 1002.57ZM734.536 941.929L737.068 945.026L737.07 945.024L734.536 941.929ZM804.727 935.752L802.95 939.336L802.962 939.342L804.727 935.752ZM825.166 953.721L821.778 955.847L821.785 955.859L821.793 955.87L825.166 953.721ZM832.466 978.765V982.765H836.466V978.765H832.466ZM810.791 978.765H806.791V982.765H810.791V978.765ZM801.357 955.518L798.674 958.484L798.684 958.493L798.693 958.501L801.357 955.518ZM749.81 954.058L752.279 957.204L752.284 957.2L749.81 954.058ZM749.36 990.444L746.812 993.527L746.834 993.546L746.857 993.564L749.36 990.444ZM778.223 1003.02L777.138 1006.87L777.143 1006.87L778.223 1003.02ZM810.117 1015.71L808.04 1019.13L808.059 1019.14L808.079 1019.15L810.117 1015.71ZM827.188 1031.77L823.754 1033.82L823.763 1033.84L823.772 1033.85L827.188 1031.77ZM817.305 1085.34L819.741 1088.51L819.749 1088.51L819.756 1088.5L817.305 1085.34ZM744.419 1090.84L742.789 1094.5L742.801 1094.5L742.813 1094.51L744.419 1090.84ZM721.846 1073.1L718.569 1075.39L718.576 1075.41L718.584 1075.42L721.846 1073.1ZM713.984 1047.61V1043.61H709.984V1047.61H713.984ZM735.659 1047.61H739.659V1043.61H735.659V1047.61ZM746.553 1071.08L744.066 1074.21L744.084 1074.23L744.101 1074.24L746.553 1071.08ZM802.705 1035.14L800.232 1038.29L800.245 1038.3L800.258 1038.31L802.705 1035.14ZM773.263 1018.27C755.01 1013.02 742.219 1006.72 734.423 999.617L729.034 1005.53C738.158 1013.85 752.321 1020.57 771.053 1025.96L773.263 1018.27ZM734.45 999.642C726.875 992.608 723.15 984.084 723.15 973.823H715.15C715.15 986.323 719.811 996.966 729.007 1005.5L734.45 999.642ZM723.15 973.823C723.15 962.185 727.709 952.677 737.068 945.026L732.004 938.832C720.849 947.952 715.15 959.706 715.15 973.823H723.15ZM737.07 945.024C746.533 937.275 758.971 933.238 774.741 933.238V925.238C757.568 925.238 743.204 929.661 732.002 938.834L737.07 945.024ZM774.741 933.238C785.447 933.238 794.819 935.305 802.95 939.336L806.503 932.168C797.114 927.514 786.496 925.238 774.741 925.238V933.238ZM802.962 939.342C811.194 943.388 817.417 948.897 821.778 955.847L828.554 951.595C823.332 943.271 815.929 936.801 806.491 932.162L802.962 939.342ZM821.793 955.87C826.25 962.865 828.466 970.467 828.466 978.765H836.466C836.466 968.944 833.815 959.85 828.539 951.571L821.793 955.87ZM832.466 974.765H810.791V982.765H832.466V974.765ZM814.791 978.765C814.791 967.958 811.309 959.041 804.021 952.534L798.693 958.501C803.984 963.225 806.791 969.806 806.791 978.765H814.791ZM804.041 952.551C796.792 945.992 786.836 942.982 774.741 942.982V950.982C785.557 950.982 793.345 953.663 798.674 958.484L804.041 952.551ZM774.741 942.982C763.56 942.982 754.262 945.46 747.335 950.915L752.284 957.2C757.337 953.221 764.659 950.982 774.741 950.982V942.982ZM747.34 950.911C740.348 956.398 736.938 964.095 736.938 973.486H744.938C744.938 966.256 747.441 961.001 752.279 957.204L747.34 950.911ZM736.938 973.486C736.938 981.463 740.375 988.206 746.812 993.527L751.909 987.361C747.115 983.399 744.938 978.836 744.938 973.486H736.938ZM746.857 993.564C753.196 998.652 763.46 1003.02 777.138 1006.87L779.307 999.172C765.882 995.39 756.905 991.371 751.864 987.325L746.857 993.564ZM777.143 1006.87C790.598 1010.64 800.841 1014.76 808.04 1019.13L812.195 1012.29C804.12 1007.39 793.1 1003.04 779.302 999.171L777.143 1006.87ZM808.079 1019.15C815.359 1023.47 820.503 1028.38 823.754 1033.82L830.621 1029.72C826.535 1022.88 820.298 1017.09 812.155 1012.27L808.079 1019.15ZM823.772 1033.85C827.077 1039.27 828.803 1045.75 828.803 1053.45H836.803C836.803 1044.52 834.785 1036.55 830.603 1029.69L823.772 1033.85ZM828.803 1053.45C828.803 1065.48 824.193 1074.94 814.854 1082.18L819.756 1088.5C831.08 1079.72 836.803 1067.92 836.803 1053.45H828.803ZM814.868 1082.17C805.433 1089.42 792.566 1093.25 775.864 1093.25V1101.25C793.753 1101.25 808.512 1097.14 819.741 1088.51L814.868 1082.17ZM775.864 1093.25C765.155 1093.25 755.223 1091.21 746.025 1087.18L742.813 1094.51C753.081 1099.01 764.113 1101.25 775.864 1101.25V1093.25ZM746.049 1087.19C736.863 1083.09 729.946 1077.6 725.107 1070.78L718.584 1075.42C724.377 1083.58 732.509 1089.91 742.789 1094.5L746.049 1087.19ZM725.123 1070.81C720.372 1064.02 717.984 1056.33 717.984 1047.61H709.984C709.984 1057.9 712.837 1067.21 718.569 1075.39L725.123 1070.81ZM713.984 1051.61H735.659V1043.61H713.984V1051.61ZM731.659 1047.61C731.659 1058.62 735.777 1067.63 744.066 1074.21L749.04 1067.95C742.803 1063 739.659 1056.36 739.659 1047.61H731.659ZM744.101 1074.24C752.333 1080.62 763.053 1083.61 775.864 1083.61V1075.61C764.268 1075.61 755.447 1072.91 749.004 1067.92L744.101 1074.24ZM775.864 1083.61C787.712 1083.61 797.432 1081.21 804.463 1075.83L799.6 1069.48C794.502 1073.38 786.777 1075.61 775.864 1075.61V1083.61ZM804.463 1075.83C811.571 1070.39 815.128 1062.86 815.128 1053.67H807.128C807.128 1060.51 804.621 1065.63 799.6 1069.48L804.463 1075.83ZM815.128 1053.67C815.128 1044.6 811.882 1037.18 805.152 1031.98L800.258 1038.31C804.759 1041.79 807.128 1046.72 807.128 1053.67H815.128ZM805.178 1032C798.911 1027.07 788.076 1022.56 773.27 1018.27L771.046 1025.96C785.739 1030.21 795.269 1034.38 800.232 1038.29L805.178 1032ZM973.521 949.229V953.229H977.521V949.229H973.521ZM920.962 949.229V945.229H916.962V949.229H920.962ZM920.962 1095V1099H924.962V1095H920.962ZM899.512 1095H895.512V1099H899.512V1095ZM899.512 949.229H903.512V945.229H899.512V949.229ZM847.065 949.229H843.065V953.229H847.065V949.229ZM847.065 931.484V927.484H843.065V931.484H847.065ZM973.521 931.484H977.521V927.484H973.521V931.484ZM973.521 945.229H920.962V953.229H973.521V945.229ZM916.962 949.229V1095H924.962V949.229H916.962ZM920.962 1091H899.512V1099H920.962V1091ZM903.512 1095V949.229H895.512V1095H903.512ZM899.512 945.229H847.065V953.229H899.512V945.229ZM851.065 949.229V931.484H843.065V949.229H851.065ZM847.065 935.484H973.521V927.484H847.065V935.484ZM969.521 931.484V949.229H977.521V931.484H969.521ZM1079.09 1052.32L1082.84 1050.95L1081.88 1048.32H1079.09V1052.32ZM1010.58 1052.32V1048.32H1007.77L1006.82 1050.97L1010.58 1052.32ZM995.195 1095V1099H998.005L998.958 1096.36L995.195 1095ZM972.959 1095L969.222 1093.57L967.15 1099H972.959V1095ZM1035.4 931.484V927.484H1032.65L1031.66 930.057L1035.4 931.484ZM1054.27 931.484L1058 930.055L1057.02 927.484H1054.27V931.484ZM1116.82 1095V1099H1122.63L1120.56 1093.57L1116.82 1095ZM1094.7 1095L1090.94 1096.37L1091.9 1099H1094.7V1095ZM1017.09 1034.58L1013.33 1033.22L1011.39 1038.58H1017.09V1034.58ZM1072.69 1034.58V1038.58H1078.4L1076.44 1033.21L1072.69 1034.58ZM1044.83 958.101L1048.59 956.732L1044.83 946.39L1041.07 956.737L1044.83 958.101ZM1079.09 1048.32H1010.58V1056.32H1079.09V1048.32ZM1006.82 1050.97L991.432 1093.64L998.958 1096.36L1014.34 1053.68L1006.82 1050.97ZM995.195 1091H972.959V1099H995.195V1091ZM976.696 1096.43L1039.14 932.911L1031.66 930.057L969.222 1093.57L976.696 1096.43ZM1035.4 935.484H1054.27V927.484H1035.4V935.484ZM1050.53 932.914L1113.09 1096.43L1120.56 1093.57L1058 930.055L1050.53 932.914ZM1116.82 1091H1094.7V1099H1116.82V1091ZM1098.45 1093.63L1082.84 1050.95L1075.33 1053.7L1090.94 1096.37L1098.45 1093.63ZM1017.09 1038.58H1072.69V1030.58H1017.09V1038.58ZM1076.44 1033.21L1048.59 956.732L1041.08 959.469L1068.93 1035.95L1076.44 1033.21ZM1041.07 956.737L1013.33 1033.22L1020.86 1035.94L1048.59 959.464L1041.07 956.737ZM1198.8 1028.85L1202.33 1026.96L1201.2 1024.85H1198.8V1028.85ZM1160.4 1028.85V1024.85H1156.4V1028.85H1160.4ZM1160.4 1095V1099H1164.4V1095H1160.4ZM1138.72 1095H1134.72V1099H1138.72V1095ZM1138.72 931.484V927.484H1134.72V931.484H1138.72ZM1235.3 944.062L1232.71 947.113L1232.72 947.117L1232.73 947.122L1235.3 944.062ZM1241.93 1007.29L1238.7 1004.93L1238.69 1004.94L1238.69 1004.95L1241.93 1007.29ZM1219.02 1024.25L1217.59 1020.51L1213.29 1022.15L1215.52 1026.18L1219.02 1024.25ZM1257.43 1093.65H1261.43V1092.62L1260.93 1091.72L1257.43 1093.65ZM1257.43 1095V1099H1261.43V1095H1257.43ZM1234.29 1095L1230.77 1096.89L1231.9 1099H1234.29V1095ZM1160.4 1011.22H1156.4V1015.22H1160.4V1011.22ZM1219.02 1002.91L1216.39 999.893L1216.38 999.901L1216.37 999.909L1219.02 1002.91ZM1219.47 957.427L1216.79 960.4L1216.8 960.408L1216.81 960.416L1219.47 957.427ZM1193.41 949.229L1193.44 945.229L1193.43 945.229H1193.41V949.229ZM1160.4 949.229V945.229H1156.4V949.229H1160.4ZM1198.8 1024.85H1160.4V1032.85H1198.8V1024.85ZM1156.4 1028.85V1095H1164.4V1028.85H1156.4ZM1160.4 1091H1138.72V1099H1160.4V1091ZM1142.72 1095V931.484H1134.72V1095H1142.72ZM1138.72 935.484H1192.85V927.484H1138.72V935.484ZM1192.85 935.484C1210.71 935.484 1223.81 939.554 1232.71 947.113L1237.89 941.012C1227.03 931.8 1211.82 927.484 1192.85 927.484V935.484ZM1232.73 947.122C1241.58 954.575 1246.24 965.534 1246.24 980.674H1254.24C1254.24 963.769 1248.94 950.321 1237.88 941.003L1232.73 947.122ZM1246.24 980.674C1246.24 990.083 1243.7 998.11 1238.7 1004.93L1245.16 1009.65C1251.24 1001.35 1254.24 991.629 1254.24 980.674H1246.24ZM1238.69 1004.95C1233.73 1011.8 1226.77 1017.01 1217.59 1020.51L1220.44 1027.99C1230.89 1024 1239.19 1017.9 1245.17 1009.63L1238.69 1004.95ZM1215.52 1026.18L1253.93 1095.59L1260.93 1091.72L1222.52 1022.31L1215.52 1026.18ZM1253.43 1093.65V1095H1261.43V1093.65H1253.43ZM1257.43 1091H1234.29V1099H1257.43V1091ZM1237.82 1093.11L1202.33 1026.96L1195.28 1030.74L1230.77 1096.89L1237.82 1093.11ZM1160.4 1015.22H1193.53V1007.22H1160.4V1015.22ZM1193.53 1015.22C1204.93 1015.22 1214.46 1012.26 1221.66 1005.91L1216.37 999.909C1211 1004.64 1203.54 1007.22 1193.53 1007.22V1015.22ZM1221.65 1005.93C1228.98 999.545 1232.56 990.984 1232.56 980.674H1224.56C1224.56 988.931 1221.79 995.194 1216.39 999.893L1221.65 1005.93ZM1232.56 980.674C1232.56 969.726 1229.25 960.767 1222.13 954.437L1216.81 960.416C1221.82 964.868 1224.56 971.406 1224.56 980.674H1232.56ZM1222.14 954.454C1215.17 948.182 1205.4 945.307 1193.44 945.229L1193.39 953.228C1204.19 953.299 1211.78 955.891 1216.79 960.4L1222.14 954.454ZM1193.41 945.229H1160.4V953.229H1193.41V945.229ZM1156.4 949.229V1011.22H1164.4V949.229H1156.4ZM1384.56 949.229V953.229H1388.56V949.229H1384.56ZM1332 949.229V945.229H1328V949.229H1332ZM1332 1095V1099H1336V1095H1332ZM1310.55 1095H1306.55V1099H1310.55V1095ZM1310.55 949.229H1314.55V945.229H1310.55V949.229ZM1258.1 949.229H1254.1V953.229H1258.1V949.229ZM1258.1 931.484V927.484H1254.1V931.484H1258.1ZM1384.56 931.484H1388.56V927.484H1384.56V931.484ZM1384.56 945.229H1332V953.229H1384.56V945.229ZM1328 949.229V1095H1336V949.229H1328ZM1332 1091H1310.55V1099H1332V1091ZM1314.55 1095V949.229H1306.55V1095H1314.55ZM1310.55 945.229H1258.1V953.229H1310.55V945.229ZM1262.1 949.229V931.484H1254.1V949.229H1262.1ZM1258.1 935.484H1384.56V927.484H1258.1V935.484ZM1380.56 931.484V949.229H1388.56V931.484H1380.56Z" fill="white"/>
</g>
<g id="CAREER">
<path d="M1331.48 842.092C1329.1 862.395 1321.59 878.083 1308.93 889.157C1296.36 900.144 1279.62 905.637 1258.7 905.637C1236.03 905.637 1217.83 897.507 1204.12 881.247C1190.5 864.987 1183.69 843.234 1183.69 815.988V797.531C1183.69 779.689 1186.85 764.001 1193.18 750.466C1199.6 736.931 1208.65 726.56 1220.34 719.353C1232.03 712.058 1245.56 708.41 1260.94 708.41C1281.33 708.41 1297.68 714.123 1309.99 725.549C1322.29 736.887 1329.46 752.619 1331.48 772.746H1306.03C1303.83 757.453 1299.04 746.379 1291.66 739.523C1284.37 732.668 1274.13 729.24 1260.94 729.24C1244.77 729.24 1232.07 735.217 1222.84 747.17C1213.7 759.123 1209.13 776.13 1209.13 798.19V816.779C1209.13 837.609 1213.48 854.177 1222.18 866.481C1230.89 878.786 1243.06 884.938 1258.7 884.938C1272.77 884.938 1283.53 881.774 1291 875.446C1298.56 869.03 1303.57 857.912 1306.03 842.092H1331.48ZM1472.15 852.902H1391.73L1373.66 903H1347.56L1420.86 711.047H1443.01L1516.44 903H1490.47L1472.15 852.902ZM1399.37 832.072H1464.63L1431.94 742.292L1399.37 832.072ZM1612.68 825.349H1567.59V903H1542.15V711.047H1605.7C1627.32 711.047 1643.93 715.969 1655.53 725.812C1667.22 735.656 1673.06 749.982 1673.06 768.791C1673.06 780.744 1669.81 791.159 1663.31 800.036C1656.89 808.913 1647.93 815.549 1636.41 819.943L1681.5 901.418V903H1654.34L1612.68 825.349ZM1567.59 804.65H1606.49C1619.05 804.65 1629.03 801.398 1636.41 794.895C1643.88 788.391 1647.62 779.689 1647.62 768.791C1647.62 756.926 1644.06 747.829 1636.94 741.501C1629.91 735.173 1619.71 731.965 1606.35 731.877H1567.59V804.65ZM1817.16 814.274H1733.97V882.302H1830.61V903H1708.66V711.047H1829.29V731.877H1733.97V793.576H1817.16V814.274ZM1970.62 814.274H1887.43V882.302H1984.06V903H1862.12V711.047H1982.75V731.877H1887.43V793.576H1970.62V814.274ZM2085.97 825.349H2040.89V903H2015.44V711.047H2078.99C2100.61 711.047 2117.22 715.969 2128.82 725.812C2140.51 735.656 2146.35 749.982 2146.35 768.791C2146.35 780.744 2143.1 791.159 2136.6 800.036C2130.18 808.913 2121.22 815.549 2109.7 819.943L2154.79 901.418V903H2127.63L2085.97 825.349ZM2040.89 804.65H2079.78C2092.35 804.65 2102.32 801.398 2109.7 794.895C2117.17 788.391 2120.91 779.689 2120.91 768.791C2120.91 756.926 2117.35 747.829 2110.23 741.501C2103.2 735.173 2093 731.965 2079.65 731.877H2040.89V804.65Z" fill="#048A81"/>
<path d="M1331.48 842.092L1335.45 842.556L1335.97 838.092H1331.48V842.092ZM1308.93 889.157L1311.57 892.169L1311.57 892.168L1308.93 889.157ZM1204.12 881.247L1201.06 883.816L1201.07 883.826L1204.12 881.247ZM1193.18 750.466L1189.57 748.752L1189.56 748.762L1189.56 748.772L1193.18 750.466ZM1220.34 719.353L1222.44 722.757L1222.45 722.752L1222.46 722.746L1220.34 719.353ZM1309.99 725.549L1307.27 728.48L1307.27 728.485L1307.28 728.49L1309.99 725.549ZM1331.48 772.746V776.746H1335.9L1335.46 772.346L1331.48 772.746ZM1306.03 772.746L1302.07 773.315L1302.57 776.746H1306.03V772.746ZM1291.66 739.523L1288.92 742.438L1288.93 742.446L1288.94 742.455L1291.66 739.523ZM1222.84 747.17L1219.68 744.725L1219.67 744.733L1219.67 744.74L1222.84 747.17ZM1291 875.446L1293.59 878.498L1293.59 878.496L1291 875.446ZM1306.03 842.092V838.092H1302.61L1302.08 841.477L1306.03 842.092ZM1327.5 841.627C1325.22 861.168 1318.06 875.86 1306.3 886.147L1311.57 892.168C1325.12 880.306 1332.99 863.621 1335.45 842.556L1327.5 841.627ZM1306.3 886.146C1294.63 896.346 1278.91 901.637 1258.7 901.637V909.637C1280.34 909.637 1298.1 903.941 1311.57 892.169L1306.3 886.146ZM1258.7 901.637C1237.12 901.637 1220.08 893.961 1207.18 878.668L1201.07 883.826C1215.59 901.053 1234.94 909.637 1258.7 909.637V901.637ZM1207.19 878.678C1194.32 863.323 1187.69 842.568 1187.69 815.988H1179.69C1179.69 843.901 1186.68 866.652 1201.06 883.816L1207.19 878.678ZM1187.69 815.988V797.531H1179.69V815.988H1187.69ZM1187.69 797.531C1187.69 780.163 1190.77 765.072 1196.8 752.16L1189.56 748.772C1182.94 762.93 1179.69 779.216 1179.69 797.531H1187.69ZM1196.8 752.179C1202.91 739.276 1211.47 729.522 1222.44 722.757L1218.24 715.948C1205.83 723.597 1196.28 734.585 1189.57 748.752L1196.8 752.179ZM1222.46 722.746C1233.44 715.892 1246.22 712.41 1260.94 712.41V704.41C1244.9 704.41 1230.62 708.223 1218.22 715.959L1222.46 722.746ZM1260.94 712.41C1280.55 712.41 1295.85 717.882 1307.27 728.48L1312.71 722.618C1299.51 710.364 1282.12 704.41 1260.94 704.41V712.41ZM1307.28 728.49C1318.72 739.033 1325.55 753.779 1327.5 773.146L1335.46 772.346C1333.36 751.459 1325.87 734.741 1312.7 722.607L1307.28 728.49ZM1331.48 768.746H1306.03V776.746H1331.48V768.746ZM1309.99 772.177C1307.73 756.438 1302.71 744.326 1294.38 736.592L1288.94 742.455C1295.38 748.432 1299.94 758.468 1302.07 773.315L1309.99 772.177ZM1294.4 736.609C1286.15 728.858 1274.81 725.24 1260.94 725.24V733.24C1273.44 733.24 1282.58 736.478 1288.92 742.438L1294.4 736.609ZM1260.94 725.24C1243.63 725.24 1229.72 731.714 1219.68 744.725L1226.01 749.614C1234.42 738.72 1245.91 733.24 1260.94 733.24V725.24ZM1219.67 744.74C1209.79 757.65 1205.13 775.645 1205.13 798.19H1213.13C1213.13 776.615 1217.61 760.597 1226.02 749.6L1219.67 744.74ZM1205.13 798.19V816.779H1213.13V798.19H1205.13ZM1205.13 816.779C1205.13 838.129 1209.59 855.597 1218.92 868.791L1225.45 864.172C1217.38 852.757 1213.13 837.09 1213.13 816.779H1205.13ZM1218.92 868.791C1228.4 882.203 1241.82 888.938 1258.7 888.938V880.938C1244.3 880.938 1233.37 875.369 1225.45 864.172L1218.92 868.791ZM1258.7 888.938C1273.31 888.938 1285.14 885.658 1293.59 878.498L1288.42 872.394C1281.93 877.891 1272.22 880.938 1258.7 880.938V888.938ZM1293.59 878.496C1302.22 871.175 1307.46 858.928 1309.98 842.707L1302.08 841.477C1299.68 856.896 1294.91 866.886 1288.41 872.397L1293.59 878.496ZM1306.03 846.092H1331.48V838.092H1306.03V846.092ZM1472.15 852.902L1475.9 851.528L1474.94 848.902H1472.15V852.902ZM1391.73 852.902V848.902H1388.92L1387.96 851.546L1391.73 852.902ZM1373.66 903V907H1376.47L1377.43 904.357L1373.66 903ZM1347.56 903L1343.82 901.573L1341.75 907H1347.56V903ZM1420.86 711.047V707.047H1418.11L1417.12 709.62L1420.86 711.047ZM1443.01 711.047L1446.75 709.618L1445.76 707.047H1443.01V711.047ZM1516.44 903V907H1522.26L1520.18 901.571L1516.44 903ZM1490.47 903L1486.71 904.374L1487.67 907H1490.47V903ZM1399.37 832.072L1395.61 830.708L1393.67 836.072H1399.37V832.072ZM1464.63 832.072V836.072H1470.34L1468.39 830.704L1464.63 832.072ZM1431.94 742.292L1435.69 740.923L1431.93 730.582L1428.18 740.928L1431.94 742.292ZM1472.15 848.902H1391.73V856.902H1472.15V848.902ZM1387.96 851.546L1369.9 901.643L1377.43 904.357L1395.49 854.259L1387.96 851.546ZM1373.66 899H1347.56V907H1373.66V899ZM1351.3 904.427L1424.6 712.474L1417.12 709.62L1343.82 901.573L1351.3 904.427ZM1420.86 715.047H1443.01V707.047H1420.86V715.047ZM1439.27 712.476L1512.71 904.429L1520.18 901.571L1446.75 709.618L1439.27 712.476ZM1516.44 899H1490.47V907H1516.44V899ZM1494.23 901.626L1475.9 851.528L1468.39 854.276L1486.71 904.374L1494.23 901.626ZM1399.37 836.072H1464.63V828.072H1399.37V836.072ZM1468.39 830.704L1435.69 740.923L1428.18 743.661L1460.87 833.441L1468.39 830.704ZM1428.18 740.928L1395.61 830.708L1403.13 833.436L1435.7 743.656L1428.18 740.928ZM1612.68 825.349L1616.21 823.458L1615.08 821.349H1612.68V825.349ZM1567.59 825.349V821.349H1563.59V825.349H1567.59ZM1567.59 903V907H1571.59V903H1567.59ZM1542.15 903H1538.15V907H1542.15V903ZM1542.15 711.047V707.047H1538.15V711.047H1542.15ZM1655.53 725.812L1652.94 728.863L1652.95 728.867L1652.95 728.872L1655.53 725.812ZM1663.31 800.036L1660.08 797.672L1660.07 797.683L1660.07 797.693L1663.31 800.036ZM1636.41 819.943L1634.99 816.206L1630.68 817.849L1632.91 821.88L1636.41 819.943ZM1681.5 901.418H1685.5V900.385L1685 899.481L1681.5 901.418ZM1681.5 903V907H1685.5V903H1681.5ZM1654.34 903L1650.82 904.891L1651.95 907H1654.34V903ZM1567.59 804.65H1563.59V808.65H1567.59V804.65ZM1636.41 794.895L1633.79 791.878L1633.78 791.885L1633.77 791.893L1636.41 794.895ZM1636.94 741.501L1634.26 744.474L1634.27 744.482L1634.28 744.491L1636.94 741.501ZM1606.35 731.877L1606.38 727.877L1606.37 727.877H1606.35V731.877ZM1567.59 731.877V727.877H1563.59V731.877H1567.59ZM1612.68 821.349H1567.59V829.349H1612.68V821.349ZM1563.59 825.349V903H1571.59V825.349H1563.59ZM1567.59 899H1542.15V907H1567.59V899ZM1546.15 903V711.047H1538.15V903H1546.15ZM1542.15 715.047H1605.7V707.047H1542.15V715.047ZM1605.7 715.047C1626.76 715.047 1642.31 719.846 1652.94 728.863L1658.12 722.762C1645.54 712.092 1627.87 707.047 1605.7 707.047V715.047ZM1652.95 728.872C1663.53 737.783 1669.06 750.865 1669.06 768.791H1677.06C1677.06 749.1 1670.9 733.529 1658.11 722.753L1652.95 728.872ZM1669.06 768.791C1669.06 779.971 1666.04 789.541 1660.08 797.672L1666.53 802.4C1673.58 792.778 1677.06 781.517 1677.06 768.791H1669.06ZM1660.07 797.693C1654.16 805.861 1645.87 812.054 1634.99 816.206L1637.84 823.68C1649.99 819.044 1659.62 811.965 1666.55 802.379L1660.07 797.693ZM1632.91 821.88L1678 903.355L1685 899.481L1639.91 818.007L1632.91 821.88ZM1677.5 901.418V903H1685.5V901.418H1677.5ZM1681.5 899H1654.34V907H1681.5V899ZM1657.87 901.109L1616.21 823.458L1609.16 827.24L1650.82 904.891L1657.87 901.109ZM1567.59 808.65H1606.49V800.65H1567.59V808.65ZM1606.49 808.65C1619.75 808.65 1630.76 805.206 1639.06 797.896L1633.77 791.893C1627.3 797.591 1618.36 800.65 1606.49 800.65V808.65ZM1639.04 797.911C1647.48 790.566 1651.62 780.716 1651.62 768.791H1643.62C1643.62 778.663 1640.29 786.215 1633.79 791.878L1639.04 797.911ZM1651.62 768.791C1651.62 756.086 1647.77 745.779 1639.6 738.511L1634.28 744.491C1640.35 749.879 1643.62 757.766 1643.62 768.791H1651.62ZM1639.62 738.528C1631.61 731.318 1620.32 727.969 1606.38 727.877L1606.33 735.877C1619.11 735.961 1628.21 739.027 1634.26 744.474L1639.62 738.528ZM1606.35 727.877H1567.59V735.877H1606.35V727.877ZM1563.59 731.877V804.65H1571.59V731.877H1563.59ZM1817.16 814.274V818.274H1821.16V814.274H1817.16ZM1733.97 814.274V810.274H1729.97V814.274H1733.97ZM1733.97 882.302H1729.97V886.302H1733.97V882.302ZM1830.61 882.302H1834.61V878.302H1830.61V882.302ZM1830.61 903V907H1834.61V903H1830.61ZM1708.66 903H1704.66V907H1708.66V903ZM1708.66 711.047V707.047H1704.66V711.047H1708.66ZM1829.29 711.047H1833.29V707.047H1829.29V711.047ZM1829.29 731.877V735.877H1833.29V731.877H1829.29ZM1733.97 731.877V727.877H1729.97V731.877H1733.97ZM1733.97 793.576H1729.97V797.576H1733.97V793.576ZM1817.16 793.576H1821.16V789.576H1817.16V793.576ZM1817.16 810.274H1733.97V818.274H1817.16V810.274ZM1729.97 814.274V882.302H1737.97V814.274H1729.97ZM1733.97 886.302H1830.61V878.302H1733.97V886.302ZM1826.61 882.302V903H1834.61V882.302H1826.61ZM1830.61 899H1708.66V907H1830.61V899ZM1712.66 903V711.047H1704.66V903H1712.66ZM1708.66 715.047H1829.29V707.047H1708.66V715.047ZM1825.29 711.047V731.877H1833.29V711.047H1825.29ZM1829.29 727.877H1733.97V735.877H1829.29V727.877ZM1729.97 731.877V793.576H1737.97V731.877H1729.97ZM1733.97 797.576H1817.16V789.576H1733.97V797.576ZM1813.16 793.576V814.274H1821.16V793.576H1813.16ZM1970.62 814.274V818.274H1974.62V814.274H1970.62ZM1887.43 814.274V810.274H1883.43V814.274H1887.43ZM1887.43 882.302H1883.43V886.302H1887.43V882.302ZM1984.06 882.302H1988.06V878.302H1984.06V882.302ZM1984.06 903V907H1988.06V903H1984.06ZM1862.12 903H1858.12V907H1862.12V903ZM1862.12 711.047V707.047H1858.12V711.047H1862.12ZM1982.75 711.047H1986.75V707.047H1982.75V711.047ZM1982.75 731.877V735.877H1986.75V731.877H1982.75ZM1887.43 731.877V727.877H1883.43V731.877H1887.43ZM1887.43 793.576H1883.43V797.576H1887.43V793.576ZM1970.62 793.576H1974.62V789.576H1970.62V793.576ZM1970.62 810.274H1887.43V818.274H1970.62V810.274ZM1883.43 814.274V882.302H1891.43V814.274H1883.43ZM1887.43 886.302H1984.06V878.302H1887.43V886.302ZM1980.06 882.302V903H1988.06V882.302H1980.06ZM1984.06 899H1862.12V907H1984.06V899ZM1866.12 903V711.047H1858.12V903H1866.12ZM1862.12 715.047H1982.75V707.047H1862.12V715.047ZM1978.75 711.047V731.877H1986.75V711.047H1978.75ZM1982.75 727.877H1887.43V735.877H1982.75V727.877ZM1883.43 731.877V793.576H1891.43V731.877H1883.43ZM1887.43 797.576H1970.62V789.576H1887.43V797.576ZM1966.62 793.576V814.274H1974.62V793.576H1966.62ZM2085.97 825.349L2089.5 823.458L2088.37 821.349H2085.97V825.349ZM2040.89 825.349V821.349H2036.89V825.349H2040.89ZM2040.89 903V907H2044.89V903H2040.89ZM2015.44 903H2011.44V907H2015.44V903ZM2015.44 711.047V707.047H2011.44V711.047H2015.44ZM2128.82 725.812L2126.23 728.863L2126.24 728.867L2126.24 728.872L2128.82 725.812ZM2136.6 800.036L2133.37 797.672L2133.36 797.683L2133.36 797.693L2136.6 800.036ZM2109.7 819.943L2108.28 816.206L2103.97 817.849L2106.2 821.88L2109.7 819.943ZM2154.79 901.418H2158.79V900.385L2158.29 899.481L2154.79 901.418ZM2154.79 903V907H2158.79V903H2154.79ZM2127.63 903L2124.11 904.891L2125.24 907H2127.63V903ZM2040.89 804.65H2036.89V808.65H2040.89V804.65ZM2109.7 794.895L2107.08 791.878L2107.07 791.885L2107.06 791.893L2109.7 794.895ZM2110.23 741.501L2107.56 744.474L2107.56 744.482L2107.57 744.491L2110.23 741.501ZM2079.65 731.877L2079.67 727.877L2079.66 727.877H2079.65V731.877ZM2040.89 731.877V727.877H2036.89V731.877H2040.89ZM2085.97 821.349H2040.89V829.349H2085.97V821.349ZM2036.89 825.349V903H2044.89V825.349H2036.89ZM2040.89 899H2015.44V907H2040.89V899ZM2019.44 903V711.047H2011.44V903H2019.44ZM2015.44 715.047H2078.99V707.047H2015.44V715.047ZM2078.99 715.047C2100.05 715.047 2115.61 719.846 2126.23 728.863L2131.41 722.762C2118.83 712.092 2101.16 707.047 2078.99 707.047V715.047ZM2126.24 728.872C2136.83 737.783 2142.35 750.865 2142.35 768.791H2150.35C2150.35 749.1 2144.19 733.529 2131.4 722.753L2126.24 728.872ZM2142.35 768.791C2142.35 779.971 2139.33 789.541 2133.37 797.672L2139.83 802.4C2146.88 792.778 2150.35 781.517 2150.35 768.791H2142.35ZM2133.36 797.693C2127.45 805.861 2119.16 812.054 2108.28 816.206L2111.13 823.68C2123.28 819.044 2132.91 811.965 2139.84 802.379L2133.36 797.693ZM2106.2 821.88L2151.29 903.355L2158.29 899.481L2113.2 818.007L2106.2 821.88ZM2150.79 901.418V903H2158.79V901.418H2150.79ZM2154.79 899H2127.63V907H2154.79V899ZM2131.16 901.109L2089.5 823.458L2082.45 827.24L2124.11 904.891L2131.16 901.109ZM2040.89 808.65H2079.78V800.65H2040.89V808.65ZM2079.78 808.65C2093.04 808.65 2104.05 805.206 2112.35 797.896L2107.06 791.893C2100.59 797.591 2091.65 800.65 2079.78 800.65V808.65ZM2112.33 797.911C2120.77 790.566 2124.91 780.716 2124.91 768.791H2116.91C2116.91 778.663 2113.58 786.215 2107.08 791.878L2112.33 797.911ZM2124.91 768.791C2124.91 756.086 2121.06 745.779 2112.89 738.511L2107.57 744.491C2113.64 749.879 2116.91 757.766 2116.91 768.791H2124.91ZM2112.91 738.528C2104.9 731.318 2093.61 727.969 2079.67 727.877L2079.62 735.877C2092.4 735.961 2101.5 739.027 2107.56 744.474L2112.91 738.528ZM2079.65 727.877H2040.89V735.877H2079.65V727.877ZM2036.89 731.877V804.65H2044.89V731.877H2036.89Z" fill="white"/>
</g>
<defs>
<linearGradient id="paint0_linear" x1="576.333" y1="282.763" x2="546.81" y2="-33.222" gradientUnits="userSpaceOnUse">
<stop stop-color="#00F4B5"/>
<stop offset="1" stop-color="white" stop-opacity="0"/>
</linearGradient>
<linearGradient id="paint1_linear" x1="577.428" y1="279.339" x2="561.951" y2="114.869" gradientUnits="userSpaceOnUse">
<stop stop-color="#00F4B5"/>
<stop offset="1" stop-color="white" stop-opacity="0"/>
</linearGradient>
<linearGradient id="paint2_linear" x1="732.101" y1="1120.64" x2="644.508" y2="179.722" gradientUnits="userSpaceOnUse">
<stop stop-color="#00F4B5"/>
<stop offset="1" stop-color="white" stop-opacity="0"/>
</linearGradient>
<linearGradient id="paint3_linear" x1="589.832" y1="281.499" x2="584.54" y2="226.356" gradientUnits="userSpaceOnUse">
<stop stop-color="#00F4B5"/>
<stop offset="1" stop-color="white" stop-opacity="0"/>
</linearGradient>
<linearGradient id="paint4_linear" x1="1110.31" y1="768.933" x2="1101.96" y2="681.732" gradientUnits="userSpaceOnUse">
<stop stop-color="#00F4B5"/>
<stop offset="1" stop-color="white" stop-opacity="0"/>
</linearGradient>
<linearGradient id="paint5_linear" x1="497.459" y1="1171.94" x2="486.92" y2="1062.42" gradientUnits="userSpaceOnUse">
<stop stop-color="#00F4B5"/>
<stop offset="1" stop-color="white" stop-opacity="0"/>
</linearGradient>
</defs>
</svg>
