<svg width="2200" height="1358" viewBox="0 0 2200 1358" fill="none" xmlns="http://www.w3.org/2000/svg">
<g id="CAREER" filter="url(#filter0_d)">
<path d="M1122.91 700.045C1119.84 726.363 1110.1 746.7 1093.69 761.056C1077.4 775.297 1055.69 782.418 1028.58 782.418C999.184 782.418 975.6 771.879 957.826 750.802C940.167 729.724 931.337 701.526 931.337 666.207V642.281C931.337 619.153 935.438 598.816 943.642 581.271C951.959 563.725 963.694 550.281 978.847 540.938C994 531.482 1011.55 526.754 1031.48 526.754C1057.92 526.754 1079.11 534.16 1095.06 548.971C1111.01 563.668 1120.29 584.062 1122.91 610.152H1089.93C1087.08 590.328 1080.87 575.973 1071.3 567.086C1061.85 558.199 1048.57 553.756 1031.48 553.756C1010.52 553.756 994.057 561.503 982.094 576.998C970.245 592.493 964.32 614.539 964.32 643.136V667.232C964.32 694.234 969.96 715.711 981.239 731.661C992.519 747.612 1008.3 755.587 1028.58 755.587C1046.81 755.587 1060.76 751.485 1070.45 743.282C1080.25 734.965 1086.74 720.553 1089.93 700.045H1122.91ZM1305.26 714.059H1201.01L1177.6 779H1143.76L1238.78 530.172H1267.49L1362.68 779H1329.02L1305.26 714.059ZM1210.93 687.057H1295.52L1253.14 570.675L1210.93 687.057ZM1487.44 678.341H1428.99V779H1396.01V530.172H1478.38C1506.41 530.172 1527.94 536.552 1542.98 549.312C1558.14 562.073 1565.71 580.644 1565.71 605.025C1565.71 620.52 1561.5 634.021 1553.07 645.528C1544.75 657.035 1533.13 665.637 1518.2 671.334L1576.65 776.949V779H1541.44L1487.44 678.341ZM1428.99 651.51H1479.41C1495.7 651.51 1508.63 647.294 1518.2 638.863C1527.89 630.432 1532.73 619.153 1532.73 605.025C1532.73 589.645 1528.11 577.853 1518.89 569.649C1509.77 561.446 1496.56 557.288 1479.24 557.174H1428.99V651.51ZM1752.5 663.985H1644.67V752.169H1769.94V779H1611.85V530.172H1768.23V557.174H1644.67V637.154H1752.5V663.985ZM1951.43 663.985H1843.59V752.169H1968.86V779H1810.78V530.172H1967.15V557.174H1843.59V637.154H1951.43V663.985ZM2100.97 678.341H2042.52V779H2009.54V530.172H2091.91C2119.94 530.172 2141.47 536.552 2156.51 549.312C2171.66 562.073 2179.24 580.644 2179.24 605.025C2179.24 620.52 2175.02 634.021 2166.59 645.528C2158.27 657.035 2146.65 665.637 2131.73 671.334L2190.17 776.949V779H2154.97L2100.97 678.341ZM2042.52 651.51H2092.93C2109.23 651.51 2122.16 647.294 2131.73 638.863C2141.41 630.432 2146.25 619.153 2146.25 605.025C2146.25 589.645 2141.64 577.853 2132.41 569.649C2123.3 561.446 2110.08 557.288 2092.76 557.174H2042.52V651.51Z" fill="#093258"/>
<path d="M1122.91 700.045L1127.88 700.625L1128.53 695.045H1122.91V700.045ZM1093.69 761.056L1096.98 764.82L1096.98 764.819L1093.69 761.056ZM957.826 750.802L953.994 754.013L953.999 754.019L954.004 754.025L957.826 750.802ZM943.642 581.271L939.124 579.129L939.118 579.141L939.112 579.153L943.642 581.271ZM978.847 540.938L981.471 545.195L981.482 545.187L981.494 545.18L978.847 540.938ZM1095.06 548.971L1091.66 552.635L1091.66 552.641L1091.67 552.648L1095.06 548.971ZM1122.91 610.152V615.152H1128.44L1127.89 609.653L1122.91 610.152ZM1089.93 610.152L1084.98 610.863L1085.6 615.152H1089.93V610.152ZM1071.3 567.086L1067.88 570.73L1067.89 570.74L1067.9 570.75L1071.3 567.086ZM982.094 576.998L978.136 573.942L978.129 573.952L978.122 573.961L982.094 576.998ZM1070.45 743.282L1073.68 747.097L1073.68 747.094L1070.45 743.282ZM1089.93 700.045V695.045H1085.65L1084.99 699.276L1089.93 700.045ZM1117.95 699.464C1114.98 724.83 1105.68 743.922 1090.4 757.293L1096.98 764.819C1114.51 749.479 1124.69 727.897 1127.88 700.625L1117.95 699.464ZM1090.4 757.291C1075.23 770.55 1054.8 777.418 1028.58 777.418V787.418C1056.59 787.418 1079.56 780.045 1096.98 764.82L1090.4 757.291ZM1028.58 777.418C1000.55 777.418 978.403 767.447 961.649 747.579L954.004 754.025C972.797 776.311 997.821 787.418 1028.58 787.418V777.418ZM961.659 747.591C944.947 727.644 936.337 700.693 936.337 666.207H926.337C926.337 702.36 935.387 731.805 953.994 754.013L961.659 747.591ZM936.337 666.207V642.281H926.337V666.207H936.337ZM936.337 642.281C936.337 619.745 940.332 600.155 948.171 583.388L939.112 579.153C930.545 597.478 926.337 618.561 926.337 642.281H936.337ZM948.16 583.412C956.102 566.657 967.214 553.984 981.471 545.195L976.223 536.682C960.173 546.578 947.815 560.793 939.124 579.129L948.16 583.412ZM981.494 545.18C995.763 536.276 1012.37 531.754 1031.48 531.754V521.754C1010.72 521.754 992.237 526.689 976.2 536.697L981.494 545.18ZM1031.48 531.754C1056.94 531.754 1076.82 538.858 1091.66 552.635L1098.46 545.307C1081.39 529.461 1058.89 521.754 1031.48 521.754V531.754ZM1091.67 552.648C1106.54 566.35 1115.41 585.512 1117.94 610.652L1127.89 609.653C1125.17 582.611 1115.48 560.986 1098.45 545.294L1091.67 552.648ZM1122.91 605.152H1089.93V615.152H1122.91V605.152ZM1094.88 609.441C1091.95 589.059 1085.46 573.407 1074.7 563.422L1067.9 570.75C1076.29 578.539 1082.21 591.597 1084.98 610.863L1094.88 609.441ZM1074.73 563.442C1064.08 553.437 1049.43 548.756 1031.48 548.756V558.756C1047.72 558.756 1059.61 562.962 1067.88 570.73L1074.73 563.442ZM1031.48 548.756C1009.1 548.756 991.121 557.124 978.136 573.942L986.051 580.054C996.993 565.882 1011.94 558.756 1031.48 558.756V548.756ZM978.122 573.961C965.359 590.651 959.32 613.933 959.32 643.136H969.32C969.32 615.145 975.131 594.335 986.066 580.035L978.122 573.961ZM959.32 643.136V667.232H969.32V643.136H959.32ZM959.32 667.232C959.32 694.884 965.091 717.486 977.157 734.548L985.322 728.774C974.829 713.936 969.32 693.585 969.32 667.232H959.32ZM977.157 734.548C989.415 751.883 1006.75 760.587 1028.58 760.587V750.587C1009.85 750.587 995.622 743.341 985.322 728.774L977.157 734.548ZM1028.58 760.587C1047.48 760.587 1062.77 756.339 1073.68 747.097L1067.22 739.467C1058.76 746.631 1046.13 750.587 1028.58 750.587V760.587ZM1073.68 747.094C1084.81 737.646 1091.6 721.823 1094.87 700.813L1084.99 699.276C1081.88 719.283 1075.68 732.284 1067.21 739.47L1073.68 747.094ZM1089.93 705.045H1122.91V695.045H1089.93V705.045ZM1305.26 714.059L1309.96 712.341L1308.76 709.059H1305.26V714.059ZM1201.01 714.059V709.059H1197.5L1196.31 712.363L1201.01 714.059ZM1177.6 779V784H1181.11L1182.31 780.696L1177.6 779ZM1143.76 779L1139.09 777.216L1136.5 784H1143.76V779ZM1238.78 530.172V525.172H1235.34L1234.11 528.388L1238.78 530.172ZM1267.49 530.172L1272.16 528.385L1270.93 525.172H1267.49V530.172ZM1362.68 779V784H1369.95L1367.35 777.213L1362.68 779ZM1329.02 779L1324.32 780.718L1325.52 784H1329.02V779ZM1210.93 687.057L1206.23 685.352L1203.79 692.057H1210.93V687.057ZM1295.52 687.057V692.057H1302.66L1300.22 685.346L1295.52 687.057ZM1253.14 570.675L1257.84 568.964L1253.13 556.037L1248.44 568.97L1253.14 570.675ZM1305.26 709.059H1201.01V719.059H1305.26V709.059ZM1196.31 712.363L1172.9 777.304L1182.31 780.696L1205.72 715.754L1196.31 712.363ZM1177.6 774H1143.76V784H1177.6V774ZM1148.43 780.784L1243.45 531.956L1234.11 528.388L1139.09 777.216L1148.43 780.784ZM1238.78 535.172H1267.49V525.172H1238.78V535.172ZM1262.82 531.958L1358.01 780.787L1367.35 777.213L1272.16 528.385L1262.82 531.958ZM1362.68 774H1329.02V784H1362.68V774ZM1333.71 777.282L1309.96 712.341L1300.57 715.776L1324.32 780.718L1333.71 777.282ZM1210.93 692.057H1295.52V682.057H1210.93V692.057ZM1300.22 685.346L1257.84 568.964L1248.44 572.386L1290.82 688.768L1300.22 685.346ZM1248.44 568.97L1206.23 685.352L1215.63 688.761L1257.84 572.38L1248.44 568.97ZM1487.44 678.341L1491.85 675.977L1490.43 673.341H1487.44V678.341ZM1428.99 678.341V673.341H1423.99V678.341H1428.99ZM1428.99 779V784H1433.99V779H1428.99ZM1396.01 779H1391.01V784H1396.01V779ZM1396.01 530.172V525.172H1391.01V530.172H1396.01ZM1542.98 549.312L1539.75 553.125L1539.75 553.131L1539.76 553.137L1542.98 549.312ZM1553.07 645.528L1549.03 642.573L1549.02 642.586L1549.01 642.599L1553.07 645.528ZM1518.2 671.334L1516.42 666.663L1511.04 668.716L1513.83 673.755L1518.2 671.334ZM1576.65 776.949H1581.65V775.658L1581.02 774.528L1576.65 776.949ZM1576.65 779V784H1581.65V779H1576.65ZM1541.44 779L1537.04 781.364L1538.45 784H1541.44V779ZM1428.99 651.51H1423.99V656.51H1428.99V651.51ZM1518.2 638.863L1514.92 635.092L1514.91 635.102L1514.9 635.111L1518.2 638.863ZM1518.89 569.649L1515.54 573.366L1515.55 573.376L1515.56 573.386L1518.89 569.649ZM1479.24 557.174L1479.27 552.174L1479.25 552.174H1479.24V557.174ZM1428.99 557.174V552.174H1423.99V557.174H1428.99ZM1487.44 673.341H1428.99V683.341H1487.44V673.341ZM1423.99 678.341V779H1433.99V678.341H1423.99ZM1428.99 774H1396.01V784H1428.99V774ZM1401.01 779V530.172H1391.01V779H1401.01ZM1396.01 535.172H1478.38V525.172H1396.01V535.172ZM1478.38 535.172C1505.72 535.172 1525.93 541.399 1539.75 553.125L1546.22 545.5C1529.96 531.706 1507.1 525.172 1478.38 525.172V535.172ZM1539.76 553.137C1553.53 564.732 1560.71 581.747 1560.71 605.025H1570.71C1570.71 579.541 1562.74 559.414 1546.2 545.488L1539.76 553.137ZM1560.71 605.025C1560.71 619.554 1556.78 631.998 1549.03 642.573L1557.1 648.483C1566.21 636.044 1570.71 621.486 1570.71 605.025H1560.71ZM1549.01 642.599C1541.34 653.221 1530.55 661.268 1516.42 666.663L1519.99 676.005C1535.7 670.006 1548.16 660.85 1557.12 648.457L1549.01 642.599ZM1513.83 673.755L1572.27 779.37L1581.02 774.528L1522.58 668.913L1513.83 673.755ZM1571.65 776.949V779H1581.65V776.949H1571.65ZM1576.65 774H1541.44V784H1576.65V774ZM1545.85 776.636L1491.85 675.977L1483.03 680.705L1537.04 781.364L1545.85 776.636ZM1428.99 656.51H1479.41V646.51H1428.99V656.51ZM1479.41 656.51C1496.57 656.51 1510.79 652.054 1521.51 642.615L1514.9 635.111C1506.47 642.535 1494.83 646.51 1479.41 646.51V656.51ZM1521.49 642.634C1532.38 633.152 1537.73 620.436 1537.73 605.025H1527.73C1527.73 617.87 1523.4 627.713 1514.92 635.092L1521.49 642.634ZM1537.73 605.025C1537.73 588.595 1532.76 575.29 1522.21 565.912L1515.56 573.386C1523.47 580.416 1527.73 590.695 1527.73 605.025H1537.73ZM1522.23 565.933C1511.89 556.628 1497.31 552.293 1479.27 552.174L1479.2 562.174C1495.8 562.283 1507.65 566.264 1515.54 573.366L1522.23 565.933ZM1479.24 552.174H1428.99V562.174H1479.24V552.174ZM1423.99 557.174V651.51H1433.99V557.174H1423.99ZM1752.5 663.985V668.985H1757.5V663.985H1752.5ZM1644.67 663.985V658.985H1639.67V663.985H1644.67ZM1644.67 752.169H1639.67V757.169H1644.67V752.169ZM1769.94 752.169H1774.94V747.169H1769.94V752.169ZM1769.94 779V784H1774.94V779H1769.94ZM1611.85 779H1606.85V784H1611.85V779ZM1611.85 530.172V525.172H1606.85V530.172H1611.85ZM1768.23 530.172H1773.23V525.172H1768.23V530.172ZM1768.23 557.174V562.174H1773.23V557.174H1768.23ZM1644.67 557.174V552.174H1639.67V557.174H1644.67ZM1644.67 637.154H1639.67V642.154H1644.67V637.154ZM1752.5 637.154H1757.5V632.154H1752.5V637.154ZM1752.5 658.985H1644.67V668.985H1752.5V658.985ZM1639.67 663.985V752.169H1649.67V663.985H1639.67ZM1644.67 757.169H1769.94V747.169H1644.67V757.169ZM1764.94 752.169V779H1774.94V752.169H1764.94ZM1769.94 774H1611.85V784H1769.94V774ZM1616.85 779V530.172H1606.85V779H1616.85ZM1611.85 535.172H1768.23V525.172H1611.85V535.172ZM1763.23 530.172V557.174H1773.23V530.172H1763.23ZM1768.23 552.174H1644.67V562.174H1768.23V552.174ZM1639.67 557.174V637.154H1649.67V557.174H1639.67ZM1644.67 642.154H1752.5V632.154H1644.67V642.154ZM1747.5 637.154V663.985H1757.5V637.154H1747.5ZM1951.43 663.985V668.985H1956.43V663.985H1951.43ZM1843.59 663.985V658.985H1838.59V663.985H1843.59ZM1843.59 752.169H1838.59V757.169H1843.59V752.169ZM1968.86 752.169H1973.86V747.169H1968.86V752.169ZM1968.86 779V784H1973.86V779H1968.86ZM1810.78 779H1805.78V784H1810.78V779ZM1810.78 530.172V525.172H1805.78V530.172H1810.78ZM1967.15 530.172H1972.15V525.172H1967.15V530.172ZM1967.15 557.174V562.174H1972.15V557.174H1967.15ZM1843.59 557.174V552.174H1838.59V557.174H1843.59ZM1843.59 637.154H1838.59V642.154H1843.59V637.154ZM1951.43 637.154H1956.43V632.154H1951.43V637.154ZM1951.43 658.985H1843.59V668.985H1951.43V658.985ZM1838.59 663.985V752.169H1848.59V663.985H1838.59ZM1843.59 757.169H1968.86V747.169H1843.59V757.169ZM1963.86 752.169V779H1973.86V752.169H1963.86ZM1968.86 774H1810.78V784H1968.86V774ZM1815.78 779V530.172H1805.78V779H1815.78ZM1810.78 535.172H1967.15V525.172H1810.78V535.172ZM1962.15 530.172V557.174H1972.15V530.172H1962.15ZM1967.15 552.174H1843.59V562.174H1967.15V552.174ZM1838.59 557.174V637.154H1848.59V557.174H1838.59ZM1843.59 642.154H1951.43V632.154H1843.59V642.154ZM1946.43 637.154V663.985H1956.43V637.154H1946.43ZM2100.97 678.341L2105.37 675.977L2103.96 673.341H2100.97V678.341ZM2042.52 678.341V673.341H2037.52V678.341H2042.52ZM2042.52 779V784H2047.52V779H2042.52ZM2009.54 779H2004.54V784H2009.54V779ZM2009.54 530.172V525.172H2004.54V530.172H2009.54ZM2156.51 549.312L2153.27 553.125L2153.28 553.131L2153.29 553.137L2156.51 549.312ZM2166.59 645.528L2162.56 642.573L2162.55 642.586L2162.54 642.599L2166.59 645.528ZM2131.73 671.334L2129.94 666.663L2124.56 668.716L2127.35 673.755L2131.73 671.334ZM2190.17 776.949H2195.17V775.658L2194.55 774.528L2190.17 776.949ZM2190.17 779V784H2195.17V779H2190.17ZM2154.97 779L2150.56 781.364L2151.98 784H2154.97V779ZM2042.52 651.51H2037.52V656.51H2042.52V651.51ZM2131.73 638.863L2128.44 635.092L2128.43 635.102L2128.42 635.111L2131.73 638.863ZM2132.41 569.649L2129.07 573.366L2129.08 573.376L2129.09 573.386L2132.41 569.649ZM2092.76 557.174L2092.8 552.174L2092.78 552.174H2092.76V557.174ZM2042.52 557.174V552.174H2037.52V557.174H2042.52ZM2100.97 673.341H2042.52V683.341H2100.97V673.341ZM2037.52 678.341V779H2047.52V678.341H2037.52ZM2042.52 774H2009.54V784H2042.52V774ZM2014.54 779V530.172H2004.54V779H2014.54ZM2009.54 535.172H2091.91V525.172H2009.54V535.172ZM2091.91 535.172C2119.24 535.172 2139.45 541.399 2153.27 553.125L2159.74 545.5C2143.49 531.706 2120.63 525.172 2091.91 525.172V535.172ZM2153.29 553.137C2167.06 564.732 2174.24 581.747 2174.24 605.025H2184.24C2184.24 579.541 2176.27 559.414 2159.73 545.488L2153.29 553.137ZM2174.24 605.025C2174.24 619.554 2170.31 631.998 2162.56 642.573L2170.62 648.483C2179.74 636.044 2184.24 621.486 2184.24 605.025H2174.24ZM2162.54 642.599C2154.86 653.221 2144.08 661.268 2129.94 666.663L2133.51 676.005C2149.23 670.006 2161.69 660.85 2170.64 648.457L2162.54 642.599ZM2127.35 673.755L2185.8 779.37L2194.55 774.528L2136.1 668.913L2127.35 673.755ZM2185.17 776.949V779H2195.17V776.949H2185.17ZM2190.17 774H2154.97V784H2190.17V774ZM2159.38 776.636L2105.37 675.977L2096.56 680.705L2150.56 781.364L2159.38 776.636ZM2042.52 656.51H2092.93V646.51H2042.52V656.51ZM2092.93 656.51C2110.1 656.51 2124.32 652.054 2135.03 642.615L2128.42 635.111C2120 642.535 2108.36 646.51 2092.93 646.51V656.51ZM2135.01 642.634C2145.9 633.152 2151.25 620.436 2151.25 605.025H2141.25C2141.25 617.87 2136.92 627.713 2128.44 635.092L2135.01 642.634ZM2151.25 605.025C2151.25 588.595 2146.28 575.29 2135.73 565.912L2129.09 573.386C2137 580.416 2141.25 590.695 2141.25 605.025H2151.25ZM2135.76 565.933C2125.42 556.628 2110.84 552.293 2092.8 552.174L2092.73 562.174C2109.33 562.283 2121.18 566.264 2129.07 573.366L2135.76 565.933ZM2092.76 552.174H2042.52V562.174H2092.76V552.174ZM2037.52 557.174V651.51H2047.52V557.174H2037.52Z" fill="white"/>
</g>
<g id="Frame" style="mix-blend-mode:darken">
<g id="Vector">
<path d="M576.635 293.416C577.216 294.701 584.46 304.157 592.928 314.454L608.162 333.101L626.836 345.425C656.198 364.652 682.503 377.836 710.248 387.283L719.81 390.577L722.921 408.182C724.653 417.794 727.615 430.37 729.596 436.011C735.836 453.817 735.441 461.114 727.657 472.284C721.943 480.44 716.902 484.993 697.743 499.445C679.169 513.536 670.717 521.252 659.008 534.692C626.974 571.662 604.431 587.763 566.836 600.856C561.262 602.741 546.572 607.242 534.095 610.816C506.413 618.821 494.438 623.632 480.53 632.243C464.36 642.342 432.19 668.524 414.812 685.793C408.988 691.649 404.621 697.188 389.698 718.261L371.591 743.806L366.408 740.039C362.77 737.302 361.111 736.439 360.593 737.192C360.191 737.778 358.118 737.025 354.754 735.037C350.107 732.293 349.431 732.129 348.397 733.636C347.764 734.557 345.883 735.328 344.187 735.503L341.126 735.695L342.049 738.123C342.982 741.028 341.192 742.323 338.388 740.667C336.225 739.389 335.972 739.593 335.564 742.647C335.355 743.935 333.961 747.113 332.339 749.802C330.797 752.539 329.691 755.298 330.022 755.964C330.398 756.892 329.973 757.347 328.276 757.522C325.181 757.929 325.099 758.704 327.983 760.408L330.569 762.053L327.692 762.472C324.069 763.156 323.667 763.742 326.07 765.161C327.111 765.776 328.048 767.036 328.149 768.037C328.18 769.467 327.733 769.791 325.818 769.955C323.526 770.013 323.469 770.096 325.32 772.484C326.577 773.933 327.293 776.826 327.275 779.64C327.154 782.275 328.083 786.824 329.337 789.918C330.716 793.321 331.236 796.335 330.649 797.518C329.947 798.868 330.413 800.32 332.162 802.53C333.464 804.24 334.925 806.868 335.277 808.488C335.809 811.156 335.694 811.323 333.803 811.618C331.751 811.818 331.774 811.949 332.561 813.591C333.154 814.53 336.641 818.472 340.425 822.472C350.68 833.118 354.748 838.345 360.398 848.154C363.252 853.017 368.551 861.207 372.218 866.197C375.827 871.271 378.866 875.536 378.911 875.798C379.014 875.977 375.186 876.304 370.487 876.588C358.911 877.046 354.335 878.461 351.886 882.192C347.332 889.151 349.083 905.129 358.585 944.747L364.557 969.337L360.734 992.612C354.271 1032.68 354.017 1038.3 357.546 1064.15C358.741 1072.74 359.875 1083.06 359.98 1087.01C360.224 1090.91 360.726 1096.74 361.189 1099.84C362.014 1105.03 362.424 1105.75 365.195 1106.8C366.89 1107.44 370.751 1107.72 373.731 1107.48C385.079 1106.54 391.099 1099.74 399.203 1078.76C407.699 1056.71 410.582 1043.82 410.293 1029.65C410.188 1025.71 408.694 1012.47 407.06 1000.09C402.775 969.437 402.348 960.713 404.688 954.682C407.086 948.568 420.998 928.31 425.637 924.343C429.69 920.736 433.418 919.408 466.719 909.78C519.847 894.565 521.97 893.113 544.334 860.551C558.683 839.492 559.5 837.975 566.458 817.022C568.443 811.016 570.266 805.739 570.611 805.237C571.416 804.065 601.64 792.03 613.83 788.053C619.071 786.324 633.784 781.954 646.421 778.475C677.153 769.8 687.165 766.536 696.24 762.012C726.894 747.055 765.418 718.508 792.767 690.655C814.35 668.575 845.803 630.32 883.402 580.165C911.667 542.616 919.87 533.459 932.321 525.988C940.125 521.184 943.83 519.724 960.789 515.034C968.885 512.756 977.831 509.568 980.86 507.945C983.809 506.275 991.477 500.685 997.986 495.469C1014.13 482.295 1024.16 476.217 1047.11 465.42C1070.26 454.502 1077.59 450.237 1084.28 443.602C1090.73 437.171 1099.52 424.364 1102.6 416.768C1106.84 406.33 1107.47 392.463 1103.86 390.333C1101.3 388.819 1090.4 391.086 1079.95 395.151C1063.58 401.603 1048.87 405.973 1034.1 408.782C1012.72 412.861 992.562 421.548 976.652 433.565C970.349 438.314 953.692 446.008 946.079 447.747C938.523 449.403 936.738 448.23 932.164 438.822C927.876 429.817 922.243 422.607 913.997 415.265C903.189 405.586 897.873 400.21 896.973 397.914C895.138 393.535 899.159 383.908 914.05 356.816C929.665 328.504 935.267 304.279 927.742 297.363C922.882 292.962 888.708 287.956 850.529 285.996C817.735 284.392 815.648 284.807 793.627 297.687C776.369 307.731 774.213 308.575 770.287 306.257C768.525 305.216 761.791 298.296 755.264 290.911C748.657 283.478 739.067 272.519 733.878 266.63C712.389 242.17 700.746 232.233 674.551 215.937C654.388 203.321 646.65 199.339 645.558 200.929C642.971 204.696 653.272 225.606 683.019 277.065C696.74 300.702 707.685 320.346 707.397 320.764C706.477 322.104 673.447 313.301 628.888 299.806C592.746 288.812 580.18 286.45 576.757 289.958C576.079 290.617 576.053 292.131 576.635 293.416Z" fill="#202A33"/>
<path d="M576.635 293.416C577.216 294.701 584.46 304.157 592.928 314.454L608.162 333.101L626.836 345.425C656.198 364.652 682.503 377.836 710.248 387.283L719.81 390.577L722.921 408.182C724.653 417.794 727.615 430.37 729.596 436.011C735.836 453.817 735.441 461.114 727.657 472.284C721.943 480.44 716.902 484.993 697.743 499.445C679.169 513.536 670.717 521.252 659.008 534.692C626.974 571.662 604.431 587.763 566.836 600.856C561.262 602.741 546.572 607.242 534.095 610.816C506.413 618.821 494.438 623.632 480.53 632.243C464.36 642.342 432.19 668.524 414.812 685.793C408.988 691.649 404.621 697.188 389.698 718.261L371.591 743.806L366.408 740.039C362.77 737.302 361.111 736.439 360.593 737.192C360.191 737.778 358.118 737.025 354.754 735.037C350.107 732.293 349.431 732.129 348.397 733.636C347.764 734.557 345.883 735.328 344.187 735.503L341.126 735.695L342.049 738.123C342.982 741.028 341.192 742.323 338.388 740.667C336.225 739.389 335.972 739.593 335.564 742.647C335.355 743.935 333.961 747.113 332.339 749.802C330.797 752.539 329.691 755.298 330.022 755.964C330.398 756.892 329.973 757.347 328.276 757.522C325.181 757.929 325.099 758.704 327.983 760.408L330.569 762.053L327.692 762.472C324.069 763.156 323.667 763.742 326.07 765.161C327.111 765.776 328.048 767.036 328.149 768.037C328.18 769.467 327.733 769.791 325.818 769.955C323.526 770.013 323.469 770.096 325.32 772.484C326.577 773.933 327.293 776.826 327.275 779.64C327.154 782.275 328.083 786.824 329.337 789.918C330.716 793.321 331.236 796.335 330.649 797.518C329.947 798.868 330.413 800.32 332.162 802.53C333.464 804.24 334.925 806.868 335.277 808.488C335.809 811.156 335.694 811.323 333.803 811.618C331.751 811.818 331.774 811.949 332.561 813.591C333.154 814.53 336.641 818.472 340.425 822.472C350.68 833.118 354.748 838.345 360.398 848.154C363.252 853.017 368.551 861.207 372.218 866.197C375.827 871.271 378.866 875.536 378.911 875.798C379.014 875.977 375.186 876.304 370.487 876.588C358.911 877.046 354.335 878.461 351.886 882.192C347.332 889.151 349.083 905.129 358.585 944.747L364.557 969.337L360.734 992.612C354.271 1032.68 354.017 1038.3 357.546 1064.15C358.741 1072.74 359.875 1083.06 359.98 1087.01C360.224 1090.91 360.726 1096.74 361.189 1099.84C362.014 1105.03 362.424 1105.75 365.195 1106.8C366.89 1107.44 370.751 1107.72 373.731 1107.48C385.079 1106.54 391.099 1099.74 399.203 1078.76C407.699 1056.71 410.582 1043.82 410.293 1029.65C410.188 1025.71 408.694 1012.47 407.06 1000.09C402.775 969.437 402.348 960.713 404.688 954.682C407.086 948.568 420.998 928.31 425.637 924.343C429.69 920.736 433.418 919.408 466.719 909.78C519.847 894.565 521.97 893.113 544.334 860.551C558.683 839.492 559.5 837.975 566.458 817.022C568.443 811.016 570.266 805.739 570.611 805.237C571.416 804.065 601.64 792.03 613.83 788.053C619.071 786.324 633.784 781.954 646.421 778.475C677.153 769.8 687.165 766.536 696.24 762.012C726.894 747.055 765.418 718.508 792.767 690.655C814.35 668.575 845.803 630.32 883.402 580.165C911.667 542.616 919.87 533.459 932.321 525.988C940.125 521.184 943.83 519.724 960.789 515.034C968.885 512.756 977.831 509.568 980.86 507.945C983.809 506.275 991.477 500.685 997.986 495.469C1014.13 482.295 1024.16 476.217 1047.11 465.42C1070.26 454.502 1077.59 450.237 1084.28 443.602C1090.73 437.171 1099.52 424.364 1102.6 416.768C1106.84 406.33 1107.47 392.463 1103.86 390.333C1101.3 388.819 1090.4 391.086 1079.95 395.151C1063.58 401.603 1048.87 405.973 1034.1 408.782C1012.72 412.861 992.562 421.548 976.652 433.565C970.349 438.314 953.692 446.008 946.079 447.747C938.523 449.403 936.738 448.23 932.164 438.822C927.876 429.817 922.243 422.607 913.997 415.265C903.189 405.586 897.873 400.21 896.973 397.914C895.138 393.535 899.159 383.908 914.05 356.816C929.665 328.504 935.267 304.279 927.742 297.363C922.882 292.962 888.708 287.956 850.529 285.996C817.735 284.392 815.648 284.807 793.627 297.687C776.369 307.731 774.213 308.575 770.287 306.257C768.525 305.216 761.791 298.296 755.264 290.911C748.657 283.478 739.067 272.519 733.878 266.63C712.389 242.17 700.746 232.233 674.551 215.937C654.388 203.321 646.65 199.339 645.558 200.929C642.971 204.696 653.272 225.606 683.019 277.065C696.74 300.702 707.685 320.346 707.397 320.764C706.477 322.104 673.447 313.301 628.888 299.806C592.746 288.812 580.18 286.45 576.757 289.958C576.079 290.617 576.053 292.131 576.635 293.416Z" fill="url(#paint0_linear)" fill-opacity="0.8"/>
<path d="M576.635 293.416C577.216 294.701 584.46 304.157 592.928 314.454L608.162 333.101L626.836 345.425C656.198 364.652 682.503 377.836 710.248 387.283L719.81 390.577L722.921 408.182C724.653 417.794 727.615 430.37 729.596 436.011C735.836 453.817 735.441 461.114 727.657 472.284C721.943 480.44 716.902 484.993 697.743 499.445C679.169 513.536 670.717 521.252 659.008 534.692C626.974 571.662 604.431 587.763 566.836 600.856C561.262 602.741 546.572 607.242 534.095 610.816C506.413 618.821 494.438 623.632 480.53 632.243C464.36 642.342 432.19 668.524 414.812 685.793C408.988 691.649 404.621 697.188 389.698 718.261L371.591 743.806L366.408 740.039C362.77 737.302 361.111 736.439 360.593 737.192C360.191 737.778 358.118 737.025 354.754 735.037C350.107 732.293 349.431 732.129 348.397 733.636C347.764 734.557 345.883 735.328 344.187 735.503L341.126 735.695L342.049 738.123C342.982 741.028 341.192 742.323 338.388 740.667C336.225 739.389 335.972 739.593 335.564 742.647C335.355 743.935 333.961 747.113 332.339 749.802C330.797 752.539 329.691 755.298 330.022 755.964C330.398 756.892 329.973 757.347 328.276 757.522C325.181 757.929 325.099 758.704 327.983 760.408L330.569 762.053L327.692 762.472C324.069 763.156 323.667 763.742 326.07 765.161C327.111 765.776 328.048 767.036 328.149 768.037C328.18 769.467 327.733 769.791 325.818 769.955C323.526 770.013 323.469 770.096 325.32 772.484C326.577 773.933 327.293 776.826 327.275 779.64C327.154 782.275 328.083 786.824 329.337 789.918C330.716 793.321 331.236 796.335 330.649 797.518C329.947 798.868 330.413 800.32 332.162 802.53C333.464 804.24 334.925 806.868 335.277 808.488C335.809 811.156 335.694 811.323 333.803 811.618C331.751 811.818 331.774 811.949 332.561 813.591C333.154 814.53 336.641 818.472 340.425 822.472C350.68 833.118 354.748 838.345 360.398 848.154C363.252 853.017 368.551 861.207 372.218 866.197C375.827 871.271 378.866 875.536 378.911 875.798C379.014 875.977 375.186 876.304 370.487 876.588C358.911 877.046 354.335 878.461 351.886 882.192C347.332 889.151 349.083 905.129 358.585 944.747L364.557 969.337L360.734 992.612C354.271 1032.68 354.017 1038.3 357.546 1064.15C358.741 1072.74 359.875 1083.06 359.98 1087.01C360.224 1090.91 360.726 1096.74 361.189 1099.84C362.014 1105.03 362.424 1105.75 365.195 1106.8C366.89 1107.44 370.751 1107.72 373.731 1107.48C385.079 1106.54 391.099 1099.74 399.203 1078.76C407.699 1056.71 410.582 1043.82 410.293 1029.65C410.188 1025.71 408.694 1012.47 407.06 1000.09C402.775 969.437 402.348 960.713 404.688 954.682C407.086 948.568 420.998 928.31 425.637 924.343C429.69 920.736 433.418 919.408 466.719 909.78C519.847 894.565 521.97 893.113 544.334 860.551C558.683 839.492 559.5 837.975 566.458 817.022C568.443 811.016 570.266 805.739 570.611 805.237C571.416 804.065 601.64 792.03 613.83 788.053C619.071 786.324 633.784 781.954 646.421 778.475C677.153 769.8 687.165 766.536 696.24 762.012C726.894 747.055 765.418 718.508 792.767 690.655C814.35 668.575 845.803 630.32 883.402 580.165C911.667 542.616 919.87 533.459 932.321 525.988C940.125 521.184 943.83 519.724 960.789 515.034C968.885 512.756 977.831 509.568 980.86 507.945C983.809 506.275 991.477 500.685 997.986 495.469C1014.13 482.295 1024.16 476.217 1047.11 465.42C1070.26 454.502 1077.59 450.237 1084.28 443.602C1090.73 437.171 1099.52 424.364 1102.6 416.768C1106.84 406.33 1107.47 392.463 1103.86 390.333C1101.3 388.819 1090.4 391.086 1079.95 395.151C1063.58 401.603 1048.87 405.973 1034.1 408.782C1012.72 412.861 992.562 421.548 976.652 433.565C970.349 438.314 953.692 446.008 946.079 447.747C938.523 449.403 936.738 448.23 932.164 438.822C927.876 429.817 922.243 422.607 913.997 415.265C903.189 405.586 897.873 400.21 896.973 397.914C895.138 393.535 899.159 383.908 914.05 356.816C929.665 328.504 935.267 304.279 927.742 297.363C922.882 292.962 888.708 287.956 850.529 285.996C817.735 284.392 815.648 284.807 793.627 297.687C776.369 307.731 774.213 308.575 770.287 306.257C768.525 305.216 761.791 298.296 755.264 290.911C748.657 283.478 739.067 272.519 733.878 266.63C712.389 242.17 700.746 232.233 674.551 215.937C654.388 203.321 646.65 199.339 645.558 200.929C642.971 204.696 653.272 225.606 683.019 277.065C696.74 300.702 707.685 320.346 707.397 320.764C706.477 322.104 673.447 313.301 628.888 299.806C592.746 288.812 580.18 286.45 576.757 289.958C576.079 290.617 576.053 292.131 576.635 293.416Z" stroke="white" stroke-width="10"/>
</g>
</g>
<g id="JUMP">
<path d="M359.896 1088.16H384.398V1219.04C384.398 1236.73 379.066 1250.57 368.402 1260.56C357.823 1270.55 343.689 1275.54 326 1275.54C307.634 1275.54 293.331 1270.84 283.09 1261.45C272.849 1252.05 267.729 1238.89 267.729 1221.96H292.104C292.104 1232.54 294.981 1240.8 300.736 1246.72C306.576 1252.65 314.997 1255.61 326 1255.61C336.072 1255.61 344.197 1252.43 350.375 1246.09C356.638 1239.74 359.812 1230.85 359.896 1219.43V1088.16ZM556.039 1088.16V1213.84C555.954 1231.27 550.453 1245.54 539.535 1256.62C528.702 1267.71 513.975 1273.93 495.355 1275.29L488.881 1275.54C468.653 1275.54 452.53 1270.08 440.512 1259.16C428.493 1248.24 422.4 1233.22 422.23 1214.09V1088.16H446.352V1213.33C446.352 1226.7 450.033 1237.11 457.396 1244.56C464.76 1251.93 475.255 1255.61 488.881 1255.61C502.676 1255.61 513.214 1251.93 520.492 1244.56C527.855 1237.2 531.537 1226.83 531.537 1213.46V1088.16H556.039ZM625.99 1088.16L686.42 1238.98L746.85 1088.16H778.461V1273H754.086V1201.02L756.371 1123.32L695.688 1273H677.025L616.469 1123.7L618.881 1201.02V1273H594.506V1088.16H625.99ZM845.873 1200.64V1273H821.498V1088.16H889.672C909.9 1088.16 925.727 1093.32 937.152 1103.64C948.663 1113.97 954.418 1127.64 954.418 1144.65C954.418 1162.59 948.79 1176.43 937.533 1186.16C926.361 1195.81 910.323 1200.64 889.418 1200.64H845.873ZM845.873 1180.71H889.672C902.706 1180.71 912.693 1177.66 919.633 1171.56C926.573 1165.39 930.043 1156.5 930.043 1144.9C930.043 1133.9 926.573 1125.1 919.633 1118.5C912.693 1111.9 903.171 1108.47 891.068 1108.21H845.873V1180.71Z" fill="#2E5B84"/>
<path d="M359.896 1088.16V1083.16H354.896V1088.16H359.896ZM384.398 1088.16H389.398V1083.16H384.398V1088.16ZM368.402 1260.56L364.985 1256.91L364.977 1256.92L364.97 1256.92L368.402 1260.56ZM267.729 1221.96V1216.96H262.729V1221.96H267.729ZM292.104 1221.96H297.104V1216.96H292.104V1221.96ZM300.736 1246.72L297.15 1250.2L297.163 1250.22L297.175 1250.23L300.736 1246.72ZM350.375 1246.09L346.816 1242.57L346.804 1242.59L346.792 1242.6L350.375 1246.09ZM359.896 1219.43L364.896 1219.46L364.896 1219.44V1219.43H359.896ZM359.896 1093.16H384.398V1083.16H359.896V1093.16ZM379.398 1088.16V1219.04H389.398V1088.16H379.398ZM379.398 1219.04C379.398 1235.67 374.431 1248.06 364.985 1256.91L371.82 1264.21C383.702 1253.08 389.398 1237.8 389.398 1219.04H379.398ZM364.97 1256.92C355.511 1265.85 342.704 1270.54 326 1270.54V1280.54C344.674 1280.54 360.135 1275.24 371.835 1264.19L364.97 1256.92ZM326 1270.54C308.474 1270.54 295.524 1266.07 286.47 1257.76L279.71 1265.13C291.137 1275.61 306.794 1280.54 326 1280.54V1270.54ZM286.47 1257.76C277.482 1249.52 272.729 1237.82 272.729 1221.96H262.729C262.729 1239.96 268.216 1254.59 279.71 1265.13L286.47 1257.76ZM267.729 1226.96H292.104V1216.96H267.729V1226.96ZM287.104 1221.96C287.104 1233.46 290.253 1243.11 297.15 1250.2L304.323 1243.24C299.709 1238.49 297.104 1231.62 297.104 1221.96H287.104ZM297.175 1250.23C304.229 1257.39 314.107 1260.61 326 1260.61V1250.61C315.888 1250.61 308.923 1247.9 304.297 1243.21L297.175 1250.23ZM326 1260.61C337.219 1260.61 346.706 1257.02 353.958 1249.57L346.792 1242.6C341.687 1247.84 334.924 1250.61 326 1250.61V1260.61ZM353.934 1249.6C361.349 1242.08 364.805 1231.81 364.896 1219.46L354.897 1219.39C354.819 1229.89 351.928 1237.39 346.816 1242.57L353.934 1249.6ZM364.896 1219.43V1088.16H354.896V1219.43H364.896ZM556.039 1088.16H561.039V1083.16H556.039V1088.16ZM556.039 1213.84L561.039 1213.86L561.039 1213.85V1213.84H556.039ZM539.535 1256.62L535.973 1253.11L535.966 1253.12L535.959 1253.13L539.535 1256.62ZM495.355 1275.29L495.551 1280.28L495.635 1280.28L495.718 1280.27L495.355 1275.29ZM488.881 1275.54V1280.54H488.979L489.077 1280.54L488.881 1275.54ZM440.512 1259.16L437.15 1262.86L440.512 1259.16ZM422.23 1214.09H417.23V1214.12L417.231 1214.14L422.23 1214.09ZM422.23 1088.16V1083.16H417.23V1088.16H422.23ZM446.352 1088.16H451.352V1083.16H446.352V1088.16ZM457.396 1244.56L453.841 1248.08L453.851 1248.09L453.861 1248.1L457.396 1244.56ZM520.492 1244.56L516.957 1241.03L516.946 1241.04L516.936 1241.05L520.492 1244.56ZM531.537 1088.16V1083.16H526.537V1088.16H531.537ZM551.039 1088.16V1213.84H561.039V1088.16H551.039ZM551.039 1213.82C550.96 1230.12 545.862 1243.07 535.973 1253.11L543.098 1260.13C555.044 1248 560.949 1232.43 561.039 1213.86L551.039 1213.82ZM535.959 1253.13C526.145 1263.17 512.656 1269.01 494.993 1270.3L495.718 1280.27C515.294 1278.85 531.258 1272.25 543.111 1260.12L535.959 1253.13ZM495.16 1270.29L488.685 1270.54L489.077 1280.54L495.551 1280.28L495.16 1270.29ZM488.881 1270.54C469.578 1270.54 454.761 1265.35 443.874 1255.46L437.15 1262.86C450.299 1274.81 467.728 1280.54 488.881 1280.54V1270.54ZM443.874 1255.46C433.072 1245.65 427.39 1232.05 427.23 1214.05L417.231 1214.14C417.41 1234.39 423.915 1250.84 437.15 1262.86L443.874 1255.46ZM427.23 1214.09V1088.16H417.23V1214.09H427.23ZM422.23 1093.16H446.352V1083.16H422.23V1093.16ZM441.352 1088.16V1213.33H451.352V1088.16H441.352ZM441.352 1213.33C441.352 1227.64 445.315 1239.45 453.841 1248.08L460.952 1241.05C454.752 1234.78 451.352 1225.77 451.352 1213.33H441.352ZM453.861 1248.1C462.425 1256.66 474.354 1260.61 488.881 1260.61V1250.61C476.155 1250.61 467.094 1247.19 460.932 1241.03L453.861 1248.1ZM488.881 1260.61C503.553 1260.61 515.55 1256.67 524.048 1248.08L516.936 1241.05C510.877 1247.18 501.8 1250.61 488.881 1250.61V1260.61ZM524.028 1248.1C532.575 1239.55 536.537 1227.76 536.537 1213.46H526.537C526.537 1225.9 523.136 1234.85 516.957 1241.03L524.028 1248.1ZM536.537 1213.46V1088.16H526.537V1213.46H536.537ZM531.537 1093.16H556.039V1083.16H531.537V1093.16ZM625.99 1088.16L630.632 1086.3L629.373 1083.16H625.99V1088.16ZM686.42 1238.98L681.779 1240.84L686.42 1252.42L691.061 1240.84L686.42 1238.98ZM746.85 1088.16V1083.16H743.467L742.208 1086.3L746.85 1088.16ZM778.461 1088.16H783.461V1083.16H778.461V1088.16ZM778.461 1273V1278H783.461V1273H778.461ZM754.086 1273H749.086V1278H754.086V1273ZM754.086 1201.02L749.088 1200.87L749.086 1200.94V1201.02H754.086ZM756.371 1123.32L761.369 1123.47L751.737 1121.44L756.371 1123.32ZM695.688 1273V1278H699.056L700.321 1274.88L695.688 1273ZM677.025 1273L672.392 1274.88L673.658 1278H677.025V1273ZM616.469 1123.7L621.102 1121.82L611.471 1123.86L616.469 1123.7ZM618.881 1201.02H623.881V1200.94L623.878 1200.86L618.881 1201.02ZM618.881 1273V1278H623.881V1273H618.881ZM594.506 1273H589.506V1278H594.506V1273ZM594.506 1088.16V1083.16H589.506V1088.16H594.506ZM621.349 1090.02L681.779 1240.84L691.061 1237.12L630.632 1086.3L621.349 1090.02ZM691.061 1240.84L751.491 1090.02L742.208 1086.3L681.779 1237.12L691.061 1240.84ZM746.85 1093.16H778.461V1083.16H746.85V1093.16ZM773.461 1088.16V1273H783.461V1088.16H773.461ZM778.461 1268H754.086V1278H778.461V1268ZM759.086 1273V1201.02H749.086V1273H759.086ZM759.084 1201.16L761.369 1123.47L751.373 1123.18L749.088 1200.87L759.084 1201.16ZM751.737 1121.44L691.054 1271.12L700.321 1274.88L761.005 1125.2L751.737 1121.44ZM695.688 1268H677.025V1278H695.688V1268ZM681.659 1271.12L621.102 1121.82L611.835 1125.58L672.392 1274.88L681.659 1271.12ZM611.471 1123.86L613.883 1201.17L623.878 1200.86L621.466 1123.55L611.471 1123.86ZM613.881 1201.02V1273H623.881V1201.02H613.881ZM618.881 1268H594.506V1278H618.881V1268ZM599.506 1273V1088.16H589.506V1273H599.506ZM594.506 1093.16H625.99V1083.16H594.506V1093.16ZM845.873 1200.64V1195.64H840.873V1200.64H845.873ZM845.873 1273V1278H850.873V1273H845.873ZM821.498 1273H816.498V1278H821.498V1273ZM821.498 1088.16V1083.16H816.498V1088.16H821.498ZM937.152 1103.64L933.8 1107.35L933.807 1107.36L933.814 1107.37L937.152 1103.64ZM937.533 1186.16L940.801 1189.95L940.804 1189.95L937.533 1186.16ZM845.873 1180.71H840.873V1185.71H845.873V1180.71ZM919.633 1171.56L922.932 1175.32L922.945 1175.31L922.957 1175.3L919.633 1171.56ZM891.068 1108.21L891.173 1103.22L891.121 1103.21H891.068V1108.21ZM845.873 1108.21V1103.21H840.873V1108.21H845.873ZM840.873 1200.64V1273H850.873V1200.64H840.873ZM845.873 1268H821.498V1278H845.873V1268ZM826.498 1273V1088.16H816.498V1273H826.498ZM821.498 1093.16H889.672V1083.16H821.498V1093.16ZM889.672 1093.16C909.058 1093.16 923.551 1098.09 933.8 1107.35L940.505 1099.93C927.903 1088.55 910.741 1083.16 889.672 1083.16V1093.16ZM933.814 1107.37C944.154 1116.64 949.418 1128.9 949.418 1144.65H959.418C959.418 1126.38 953.172 1111.3 940.491 1099.92L933.814 1107.37ZM949.418 1144.65C949.418 1161.47 944.196 1173.79 934.263 1182.38L940.804 1189.95C953.384 1179.07 959.418 1163.72 959.418 1144.65H949.418ZM934.265 1182.38C924.316 1190.97 909.617 1195.64 889.418 1195.64V1205.64C911.029 1205.64 928.407 1200.65 940.801 1189.95L934.265 1182.38ZM889.418 1195.64H845.873V1205.64H889.418V1195.64ZM845.873 1185.71H889.672V1175.71H845.873V1185.71ZM889.672 1185.71C903.424 1185.71 914.765 1182.49 922.932 1175.32L916.334 1167.81C910.62 1172.82 901.987 1175.71 889.672 1175.71V1185.71ZM922.957 1175.3C931.218 1167.95 935.043 1157.55 935.043 1144.9H925.043C925.043 1155.45 921.928 1162.83 916.308 1167.83L922.957 1175.3ZM935.043 1144.9C935.043 1132.75 931.162 1122.56 923.079 1114.88L916.187 1122.12C921.984 1127.64 925.043 1135.05 925.043 1144.9H935.043ZM923.079 1114.88C915.015 1107.21 904.181 1103.49 891.173 1103.22L890.963 1113.21C902.161 1113.45 910.37 1116.59 916.187 1122.12L923.079 1114.88ZM891.068 1103.21H845.873V1113.21H891.068V1103.21ZM840.873 1108.21V1180.71H850.873V1108.21H840.873Z" fill="white"/>
</g>
<g id="START">
<path d="M640.598 957.932C616.477 950.998 598.898 942.502 587.863 932.443C576.926 922.287 571.457 909.787 571.457 894.943C571.457 878.146 578.146 864.279 591.525 853.342C605.002 842.307 622.482 836.789 643.967 836.789C658.615 836.789 671.652 839.621 683.078 845.285C694.602 850.949 703.488 858.762 709.738 868.723C716.086 878.684 719.26 889.572 719.26 901.389H690.988C690.988 888.498 686.887 878.391 678.684 871.066C670.48 863.645 658.908 859.934 643.967 859.934C630.1 859.934 619.26 863.01 611.447 869.162C603.732 875.217 599.875 883.664 599.875 894.504C599.875 903.195 603.537 910.568 610.861 916.623C618.283 922.58 630.832 928.049 648.508 933.029C666.281 938.01 680.148 943.527 690.109 949.582C700.168 955.539 707.59 962.521 712.375 970.529C717.258 978.537 719.699 987.961 719.699 998.801C719.699 1016.09 712.961 1029.95 699.484 1040.4C686.008 1050.75 667.99 1055.93 645.432 1055.93C630.783 1055.93 617.111 1053.15 604.416 1047.58C591.721 1041.92 581.906 1034.2 574.973 1024.44C568.137 1014.67 564.719 1003.59 564.719 991.184H592.99C592.99 1004.07 597.727 1014.28 607.199 1021.8C616.77 1029.22 629.514 1032.93 645.432 1032.93C660.275 1032.93 671.652 1029.9 679.562 1023.85C687.473 1017.79 691.428 1009.54 691.428 999.094C691.428 988.645 687.766 980.588 680.441 974.924C673.117 969.162 659.836 963.498 640.598 957.932ZM903.244 862.863H834.689V1053H806.711V862.863H738.303V839.719H903.244V862.863ZM1040.94 997.336H951.584L931.516 1053H902.512L983.957 839.719H1008.57L1090.16 1053H1061.3L1040.94 997.336ZM960.08 974.191H1032.59L996.262 874.436L960.08 974.191ZM1197.09 966.721H1146.99V1053H1118.72V839.719H1189.33C1213.35 839.719 1231.81 845.188 1244.7 856.125C1257.69 867.062 1264.18 882.98 1264.18 903.879C1264.18 917.16 1260.57 928.732 1253.34 938.596C1246.21 948.459 1236.25 955.832 1223.46 960.715L1273.56 1051.24V1053H1243.38L1197.09 966.721ZM1146.99 943.723H1190.21C1204.17 943.723 1215.26 940.109 1223.46 932.883C1231.76 925.656 1235.91 915.988 1235.91 903.879C1235.91 890.695 1231.96 880.588 1224.04 873.557C1216.23 866.525 1204.9 862.961 1190.06 862.863H1146.99V943.723ZM1439.38 862.863H1370.82V1053H1342.84V862.863H1274.44V839.719H1439.38V862.863Z" fill="#1F2932"/>
<path d="M640.598 957.932C616.477 950.998 598.898 942.502 587.863 932.443C576.926 922.287 571.457 909.787 571.457 894.943C571.457 878.146 578.146 864.279 591.525 853.342C605.002 842.307 622.482 836.789 643.967 836.789C658.615 836.789 671.652 839.621 683.078 845.285C694.602 850.949 703.488 858.762 709.738 868.723C716.086 878.684 719.26 889.572 719.26 901.389H690.988C690.988 888.498 686.887 878.391 678.684 871.066C670.48 863.645 658.908 859.934 643.967 859.934C630.1 859.934 619.26 863.01 611.447 869.162C603.732 875.217 599.875 883.664 599.875 894.504C599.875 903.195 603.537 910.568 610.861 916.623C618.283 922.58 630.832 928.049 648.508 933.029C666.281 938.01 680.148 943.527 690.109 949.582C700.168 955.539 707.59 962.521 712.375 970.529C717.258 978.537 719.699 987.961 719.699 998.801C719.699 1016.09 712.961 1029.95 699.484 1040.4C686.008 1050.75 667.99 1055.93 645.432 1055.93C630.783 1055.93 617.111 1053.15 604.416 1047.58C591.721 1041.92 581.906 1034.2 574.973 1024.44C568.137 1014.67 564.719 1003.59 564.719 991.184H592.99C592.99 1004.07 597.727 1014.28 607.199 1021.8C616.77 1029.22 629.514 1032.93 645.432 1032.93C660.275 1032.93 671.652 1029.9 679.562 1023.85C687.473 1017.79 691.428 1009.54 691.428 999.094C691.428 988.645 687.766 980.588 680.441 974.924C673.117 969.162 659.836 963.498 640.598 957.932ZM903.244 862.863H834.689V1053H806.711V862.863H738.303V839.719H903.244V862.863ZM1040.94 997.336H951.584L931.516 1053H902.512L983.957 839.719H1008.57L1090.16 1053H1061.3L1040.94 997.336ZM960.08 974.191H1032.59L996.262 874.436L960.08 974.191ZM1197.09 966.721H1146.99V1053H1118.72V839.719H1189.33C1213.35 839.719 1231.81 845.188 1244.7 856.125C1257.69 867.062 1264.18 882.98 1264.18 903.879C1264.18 917.16 1260.57 928.732 1253.34 938.596C1246.21 948.459 1236.25 955.832 1223.46 960.715L1273.56 1051.24V1053H1243.38L1197.09 966.721ZM1146.99 943.723H1190.21C1204.17 943.723 1215.26 940.109 1223.46 932.883C1231.76 925.656 1235.91 915.988 1235.91 903.879C1235.91 890.695 1231.96 880.588 1224.04 873.557C1216.23 866.525 1204.9 862.961 1190.06 862.863H1146.99V943.723ZM1439.38 862.863H1370.82V1053H1342.84V862.863H1274.44V839.719H1439.38V862.863Z" fill="url(#paint1_linear)"/>
<path d="M640.598 957.932L641.987 953.129L641.979 953.126L640.598 957.932ZM587.863 932.443L584.461 936.107L584.478 936.123L584.495 936.139L587.863 932.443ZM591.525 853.342L594.69 857.213L594.693 857.21L591.525 853.342ZM683.078 845.285L680.857 849.765L680.865 849.769L680.873 849.772L683.078 845.285ZM709.738 868.723L705.503 871.38L705.512 871.395L705.522 871.41L709.738 868.723ZM719.26 901.389V906.389H724.26V901.389H719.26ZM690.988 901.389H685.988V906.389H690.988V901.389ZM678.684 871.066L675.329 874.774L675.341 874.785L675.354 874.796L678.684 871.066ZM611.447 869.162L614.534 873.095L614.541 873.09L611.447 869.162ZM610.861 916.623L607.676 920.477L607.703 920.5L607.732 920.522L610.861 916.623ZM648.508 933.029L647.152 937.842L647.159 937.844L648.508 933.029ZM690.109 949.582L687.512 953.855L687.537 953.87L687.562 953.884L690.109 949.582ZM712.375 970.529L708.083 973.094L708.094 973.113L708.106 973.132L712.375 970.529ZM699.484 1040.4L702.53 1044.37L702.539 1044.36L702.548 1044.35L699.484 1040.4ZM604.416 1047.58L602.379 1052.15L602.393 1052.15L602.408 1052.16L604.416 1047.58ZM574.973 1024.44L570.876 1027.3L570.886 1027.32L570.896 1027.33L574.973 1024.44ZM564.719 991.184V986.184H559.719V991.184H564.719ZM592.99 991.184H597.99V986.184H592.99V991.184ZM607.199 1021.8L604.091 1025.71L604.113 1025.73L604.135 1025.75L607.199 1021.8ZM680.441 974.924L677.35 978.854L677.366 978.866L677.383 978.879L680.441 974.924ZM641.979 953.126C618.157 946.279 601.437 938.05 591.232 928.748L584.495 936.139C596.36 946.954 614.796 955.717 639.216 962.737L641.979 953.126ZM591.266 928.779C581.34 919.563 576.457 908.388 576.457 894.943H566.457C566.457 911.186 572.511 925.011 584.461 936.107L591.266 928.779ZM576.457 894.943C576.457 879.696 582.434 867.232 594.69 857.213L588.361 849.471C573.859 861.326 566.457 876.597 566.457 894.943H576.457ZM594.693 857.21C607.082 847.065 623.359 841.789 643.967 841.789V831.789C621.605 831.789 602.921 837.548 588.358 849.473L594.693 857.21ZM643.967 841.789C657.96 841.789 670.218 844.491 680.857 849.765L685.299 840.805C673.087 834.752 659.271 831.789 643.967 831.789V841.789ZM680.873 849.772C691.642 855.066 699.791 862.277 705.503 871.38L713.974 866.065C707.185 855.246 697.561 846.833 685.284 840.798L680.873 849.772ZM705.522 871.41C711.357 880.567 714.26 890.524 714.26 901.389H724.26C724.26 888.621 720.814 876.8 713.955 866.036L705.522 871.41ZM719.26 896.389H690.988V906.389H719.26V896.389ZM695.988 901.389C695.988 887.343 691.465 875.775 682.014 867.337L675.354 874.796C682.309 881.006 685.988 889.653 685.988 901.389H695.988ZM682.038 867.359C672.634 858.851 659.708 854.934 643.967 854.934V864.934C658.109 864.934 668.327 868.438 675.329 874.774L682.038 867.359ZM643.967 854.934C629.413 854.934 617.338 858.159 608.354 865.234L614.541 873.09C621.182 867.861 630.787 864.934 643.967 864.934V854.934ZM608.36 865.229C599.299 872.34 594.875 882.314 594.875 894.504H604.875C604.875 885.015 608.165 878.094 614.534 873.095L608.36 865.229ZM594.875 894.504C594.875 904.837 599.324 913.573 607.676 920.477L614.047 912.769C607.75 907.564 604.875 901.553 604.875 894.504H594.875ZM607.732 920.522C615.965 927.131 629.319 932.817 647.152 937.842L649.864 928.217C632.346 923.281 620.601 918.029 613.991 912.724L607.732 920.522ZM647.159 937.844C664.717 942.764 678.099 948.133 687.512 953.855L692.706 945.309C682.198 938.922 667.846 933.256 649.857 928.215L647.159 937.844ZM687.562 953.884C697.081 959.522 703.82 965.961 708.083 973.094L716.667 967.965C711.359 959.082 703.255 951.556 692.657 945.28L687.562 953.884ZM708.106 973.132C712.44 980.24 714.699 988.734 714.699 998.801H724.699C724.699 987.188 722.075 976.834 716.644 967.926L708.106 973.132ZM714.699 998.801C714.699 1014.57 708.656 1026.96 696.421 1036.45L702.548 1044.35C717.266 1032.94 724.699 1017.61 724.699 998.801H714.699ZM696.439 1036.44C684.083 1045.93 667.249 1050.93 645.432 1050.93V1060.93C668.732 1060.93 687.932 1055.58 702.53 1044.37L696.439 1036.44ZM645.432 1050.93C631.434 1050.93 618.451 1048.27 606.424 1043L602.408 1052.16C615.772 1058.02 630.132 1060.93 645.432 1060.93V1050.93ZM606.453 1043.01C594.442 1037.66 585.387 1030.47 579.05 1021.54L570.896 1027.33C578.426 1037.94 588.999 1046.18 602.379 1052.15L606.453 1043.01ZM579.069 1021.57C572.846 1012.68 569.719 1002.6 569.719 991.184H559.719C559.719 1004.57 563.427 1016.66 570.876 1027.3L579.069 1021.57ZM564.719 996.184H592.99V986.184H564.719V996.184ZM587.99 991.184C587.99 1005.48 593.335 1017.18 604.091 1025.71L610.308 1017.88C602.118 1011.38 597.99 1002.66 597.99 991.184H587.99ZM604.135 1025.75C614.823 1034.04 628.754 1037.93 645.432 1037.93V1027.93C630.274 1027.93 618.716 1024.4 610.263 1017.85L604.135 1025.75ZM645.432 1037.93C660.86 1037.93 673.484 1034.8 682.602 1027.82L676.523 1019.88C669.821 1025.01 659.691 1027.93 645.432 1027.93V1037.93ZM682.602 1027.82C691.817 1020.77 696.428 1011.01 696.428 999.094H686.428C686.428 1008.08 683.129 1014.82 676.523 1019.88L682.602 1027.82ZM696.428 999.094C696.428 987.323 692.218 977.71 683.5 970.969L677.383 978.879C683.314 983.466 686.428 989.966 686.428 999.094H696.428ZM683.533 970.994C675.393 964.591 661.297 958.716 641.987 953.129L639.208 962.735C658.375 968.28 670.841 973.733 677.35 978.854L683.533 970.994ZM903.244 862.863V867.863H908.244V862.863H903.244ZM834.689 862.863V857.863H829.689V862.863H834.689ZM834.689 1053V1058H839.689V1053H834.689ZM806.711 1053H801.711V1058H806.711V1053ZM806.711 862.863H811.711V857.863H806.711V862.863ZM738.303 862.863H733.303V867.863H738.303V862.863ZM738.303 839.719V834.719H733.303V839.719H738.303ZM903.244 839.719H908.244V834.719H903.244V839.719ZM903.244 857.863H834.689V867.863H903.244V857.863ZM829.689 862.863V1053H839.689V862.863H829.689ZM834.689 1048H806.711V1058H834.689V1048ZM811.711 1053V862.863H801.711V1053H811.711ZM806.711 857.863H738.303V867.863H806.711V857.863ZM743.303 862.863V839.719H733.303V862.863H743.303ZM738.303 844.719H903.244V834.719H738.303V844.719ZM898.244 839.719V862.863H908.244V839.719H898.244ZM1040.94 997.336L1045.64 995.618L1044.43 992.336H1040.94V997.336ZM951.584 997.336V992.336H948.072L946.88 995.64L951.584 997.336ZM931.516 1053V1058H935.028L936.219 1054.7L931.516 1053ZM902.512 1053L897.841 1051.22L895.25 1058H902.512V1053ZM983.957 839.719V834.719H980.514L979.286 837.935L983.957 839.719ZM1008.57 839.719L1013.24 837.932L1012.01 834.719H1008.57V839.719ZM1090.16 1053V1058H1097.42L1094.83 1051.21L1090.16 1053ZM1061.3 1053L1056.61 1054.72L1057.81 1058H1061.3V1053ZM960.08 974.191L955.38 972.487L952.948 979.191H960.08V974.191ZM1032.59 974.191V979.191H1039.73L1037.29 972.48L1032.59 974.191ZM996.262 874.436L1000.96 872.725L996.252 859.798L991.561 872.731L996.262 874.436ZM1040.94 992.336H951.584V1002.34H1040.94V992.336ZM946.88 995.64L926.812 1051.3L936.219 1054.7L956.288 999.032L946.88 995.64ZM931.516 1048H902.512V1058H931.516V1048ZM907.183 1054.78L988.628 841.502L979.286 837.935L897.841 1051.22L907.183 1054.78ZM983.957 844.719H1008.57V834.719H983.957V844.719ZM1003.9 841.505L1085.49 1054.79L1094.83 1051.21L1013.24 837.932L1003.9 841.505ZM1090.16 1048H1061.3V1058H1090.16V1048ZM1066 1051.28L1045.64 995.618L1036.24 999.054L1056.61 1054.72L1066 1051.28ZM960.08 979.191H1032.59V969.191H960.08V979.191ZM1037.29 972.48L1000.96 872.725L991.564 876.146L1027.89 975.902L1037.29 972.48ZM991.561 872.731L955.38 972.487L964.78 975.896L1000.96 876.14L991.561 872.731ZM1197.09 966.721L1201.5 964.357L1200.08 961.721H1197.09V966.721ZM1146.99 966.721V961.721H1141.99V966.721H1146.99ZM1146.99 1053V1058H1151.99V1053H1146.99ZM1118.72 1053H1113.72V1058H1118.72V1053ZM1118.72 839.719V834.719H1113.72V839.719H1118.72ZM1244.7 856.125L1241.46 859.938L1241.47 859.944L1241.48 859.95L1244.7 856.125ZM1253.34 938.596L1249.31 935.641L1249.3 935.654L1249.29 935.667L1253.34 938.596ZM1223.46 960.715L1221.68 956.044L1216.3 958.097L1219.08 963.136L1223.46 960.715ZM1273.56 1051.24H1278.56V1049.95L1277.93 1048.82L1273.56 1051.24ZM1273.56 1053V1058H1278.56V1053H1273.56ZM1243.38 1053L1238.97 1055.36L1240.39 1058H1243.38V1053ZM1146.99 943.723H1141.99V948.723H1146.99V943.723ZM1223.46 932.883L1220.18 929.112L1220.16 929.121L1220.15 929.131L1223.46 932.883ZM1224.04 873.557L1220.7 877.273L1220.71 877.283L1220.72 877.294L1224.04 873.557ZM1190.06 862.863L1190.09 857.863L1190.08 857.863H1190.06V862.863ZM1146.99 862.863V857.863H1141.99V862.863H1146.99ZM1197.09 961.721H1146.99V971.721H1197.09V961.721ZM1141.99 966.721V1053H1151.99V966.721H1141.99ZM1146.99 1048H1118.72V1058H1146.99V1048ZM1123.72 1053V839.719H1113.72V1053H1123.72ZM1118.72 844.719H1189.33V834.719H1118.72V844.719ZM1189.33 844.719C1212.66 844.719 1229.79 850.034 1241.46 859.938L1247.93 852.312C1233.82 840.341 1214.04 834.719 1189.33 834.719V844.719ZM1241.48 859.95C1253.08 869.721 1259.18 884.084 1259.18 903.879H1269.18C1269.18 881.877 1262.29 864.404 1247.92 852.3L1241.48 859.95ZM1259.18 903.879C1259.18 916.194 1255.85 926.709 1249.31 935.641L1257.38 941.551C1265.28 930.755 1269.18 918.126 1269.18 903.879H1259.18ZM1249.29 935.667C1242.8 944.644 1233.68 951.463 1221.68 956.044L1225.24 965.386C1238.83 960.201 1249.63 952.274 1257.39 941.525L1249.29 935.667ZM1219.08 963.136L1269.18 1053.66L1277.93 1048.82L1227.83 958.294L1219.08 963.136ZM1268.56 1051.24V1053H1278.56V1051.24H1268.56ZM1273.56 1048H1243.38V1058H1273.56V1048ZM1247.79 1050.64L1201.5 964.357L1192.69 969.085L1238.97 1055.36L1247.79 1050.64ZM1146.99 948.723H1190.21V938.723H1146.99V948.723ZM1190.21 948.723C1205.04 948.723 1217.42 944.869 1226.76 936.635L1220.15 929.131C1213.09 935.35 1203.3 938.723 1190.21 938.723V948.723ZM1226.74 936.654C1236.25 928.376 1240.91 917.271 1240.91 903.879H1230.91C1230.91 914.705 1227.27 922.937 1220.18 929.112L1226.74 936.654ZM1240.91 903.879C1240.91 889.645 1236.6 878.025 1227.37 869.82L1220.72 877.294C1227.31 883.151 1230.91 891.745 1230.91 903.879H1240.91ZM1227.39 869.84C1218.35 861.707 1205.66 857.966 1190.09 857.863L1190.03 867.863C1204.15 867.956 1214.11 871.343 1220.7 877.273L1227.39 869.84ZM1190.06 857.863H1146.99V867.863H1190.06V857.863ZM1141.99 862.863V943.723H1151.99V862.863H1141.99ZM1439.38 862.863V867.863H1444.38V862.863H1439.38ZM1370.82 862.863V857.863H1365.82V862.863H1370.82ZM1370.82 1053V1058H1375.82V1053H1370.82ZM1342.84 1053H1337.84V1058H1342.84V1053ZM1342.84 862.863H1347.84V857.863H1342.84V862.863ZM1274.44 862.863H1269.44V867.863H1274.44V862.863ZM1274.44 839.719V834.719H1269.44V839.719H1274.44ZM1439.38 839.719H1444.38V834.719H1439.38V839.719ZM1439.38 857.863H1370.82V867.863H1439.38V857.863ZM1365.82 862.863V1053H1375.82V862.863H1365.82ZM1370.82 1048H1342.84V1058H1370.82V1048ZM1347.84 1053V862.863H1337.84V1053H1347.84ZM1342.84 857.863H1274.44V867.863H1342.84V857.863ZM1279.44 862.863V839.719H1269.44V862.863H1279.44ZM1274.44 844.719H1439.38V834.719H1274.44V844.719ZM1434.38 839.719V862.863H1444.38V839.719H1434.38Z" fill="white"/>
</g>
<defs>
<filter id="filter0_d" x="922.337" y="521.754" width="1276.84" height="273.664" filterUnits="userSpaceOnUse" color-interpolation-filters="sRGB">
<feFlood flood-opacity="0" result="BackgroundImageFix"/>
<feColorMatrix in="SourceAlpha" type="matrix" values="0 0 0 0 0 0 0 0 0 0 0 0 0 0 0 0 0 0 127 0"/>
<feOffset dy="4"/>
<feGaussianBlur stdDeviation="2"/>
<feColorMatrix type="matrix" values="0 0 0 0 0 0 0 0 0 0 0 0 0 0 0 0 0 0 0.25 0"/>
<feBlend mode="normal" in2="BackgroundImageFix" result="effect1_dropShadow"/>
<feBlend mode="normal" in="SourceGraphic" in2="effect1_dropShadow" result="shape"/>
</filter>
<linearGradient id="paint0_linear" x1="835.369" y1="808.229" x2="417.76" y2="521.423" gradientUnits="userSpaceOnUse">
<stop offset="0.411458" stop-color="#345370"/>
<stop offset="0.9999" stop-color="#A5A5A5"/>
<stop offset="1" stop-color="white" stop-opacity="0"/>
</linearGradient>
<linearGradient id="paint1_linear" x1="1136" y1="774" x2="1136" y2="1379" gradientUnits="userSpaceOnUse">
<stop stop-color="#354D72"/>
<stop offset="0.588542" stop-color="#18345C"/>
<stop offset="1" stop-color="white" stop-opacity="0"/>
</linearGradient>
</defs>
</svg>
